<svg xmlns="http://www.w3.org/2000/svg" xml:space="preserve" width="100" height="100">
  <path fill-rule="evenodd" d="M55.428 34.068c.665.81-.127 1.881-.938 2.078-.55-.472.547-1.952.938-2.078zm-13.586-.775c.757 1.027-.782 2.921-1.283 4.423-.976-.944.921-2.973 1.283-4.423zm-2.852 1.57c.452.221-1.587 4.62-1.982 5.18-.193-1.404 1.457-3.505 1.982-5.18zm-3.553 2.327c.652.254-1.491 3.676-1.982 5.18-.651-.255 1.492-3.676 1.982-5.18zm6.444 11.844c4.97.774 10.817 3.871 15.615 4.193-4.727 1.111-10.05-2.024-15.615-4.193zm-4.174 1.331c4.677.219 10.418 3.25 15.319 4.06-4.429.203-11.187-2.948-15.319-4.06zm-8.647 2.529c4.551-.118 10.231 2.754 14.668 2.336.554.118.456.484.325.861-4.665-.188-9.442-.669-14.993-3.197z" clip-rule="evenodd"/>
  <path fill-rule="evenodd" d="M68.987 23.039c.434.683 2.404-.124 3.341-.277-5.736 1.106-10.265 11.056-16.383 13.327 4.139-2.874 9.453-11.781 15.167-14.591-7.671.554-18.414 2.076-22.069 13.26 1.869-1.565 3.072-4.901 4.834-6.75.747.884-1.563 2.693-1.953 5.907-.274.799.694-.176 1.187.537.153 2.747-3.537 3.763-6.645 5.218-5.888 2.756-12.522 6.538-17.359 10.743 13.495-8.809 29.65-16.219 45.854-20.03-4.072 1.82-10.413 3.277-15.405 4.835 7.366 4.079 15.992 5.845 22.356 5.094-.452.54-1.057.678-1.562 1.083.133.724 1.809.049 2.318-.383-4.962 4.029-12.253 7.536-18.872 9.344.811.626 1.104-.117 1.914.508-2.617 1.064-5.299 2.212-7.755 2.931-6.584 1.925-11.662 2.236-21.026-.92-1.86-.627-3.399-1.367-5.773-2.251-3.212 1.708-5.97 4.615-8.905 7.057 5.506 1.543 10.933 2.872 15.856 2.872-3.562 1.433-10.213.331-16.124-2.278-.753-.038-1.067 1.085-1.695 1.379 4.279 1.984 7.928 2.303 11.461 2.317 1.32.831-1.383.692-1.695 1.378 3.275.414 6.556.846 9.326-.075-1.944 1.066-4.407 1.731-7.057 2.172-3.852.644-7.504-.509-10.915.432 2.077.936 3.883 1.157 5.744 1.521-2.948.666-6.493-.246-10.11-1.35 2.024 2.091 5.236 1.705 7.688 2.758-3.06.376-7.334.263-10.733-2.346-2.883 1.926-4.961 5.982-7.363 9.182-1.712-3.447 4.079-7.261 5.879-9.853-.744-3.33 2.551-8.185-.134-10.781 1.104-.637 1.399 1.094 2.241 1.37 1.04-1.788.3-2.904-1.168-3.744.993-.518 2.198.959 2.537 1.503 3.789-7.13 8.579-11.611 13.683-15.262-3.785 3.778-9.579 11.803-10.6 19.514.822-.434 1.46-1.351 2.26-1.839.39-2.444.506-4.786 2.031-7.66.415-1.479 1.132-1.156.296.135-.785 2.266-.918 4.285-1.925 6.635 3.047-1.708 1.686-6.065 4.127-9.929.981-1.552.079.17-.105 1.024-.27 1.251-1.495 5.023-1.896 7.364 1.424-.063 1.387-4.19 2.222-6.502.853-2.36 3.075-6.144 1.235-1.944-.502 2.406-1.784 5.105-1.896 7.364 1.194-.723 1.434-4.455 2.222-6.501.42-1.09 2.148-4.763 1.369-2.24-.711 2.483-1.734 5.085-2.327 7.526 2.659-2.775 2.875-7.854 4.663-11.117 4.488-8.184 13.12-10.63 19.724-13.606.276.773-1.562 1.478-1.934 2.701 3.687-1.58 7.053-5.428 11.384-7.008 3.881-1.416 8.135-1.03 12.017-2.078.706.79-2.669 1.457-3.552 2.324zm-6.406 14.975c-.642.477-1.069 1.514-1.829 1.676.422.251 1.143.389 1.053.833-.387-.099-.331.248-.268.594-.938.341-2.601-1.238-3.207-.019 1.312.958 2.133.637 2.833 1.637-.77 1.677-3.366-.993-5.255-.229.961 1.883 5.745 1.438 5.236 3.437-2.023.509-5.438-2.666-7.363-1.896 1.41 1.956 6.279 2.072 6.855 3.812-.441-.308-.981.038-.565.459 7.559 2.81 15.422-2.597 20.443-6.491-5.334.429-11.533-1.424-17.933-3.813zm-13.672 8.119c2.481 2.755 10.621 5.191 11.576 5.229-2.944 1.952-10.292-3.206-14.859-3.497 5.748 3.433 15.449 6.809 19.062 2.892-4.974-.656-8.924-1.221-15.779-4.624zm8.587 7.095c-4.798-.322-10.646-3.419-15.615-4.193 5.565 2.168 10.888 5.303 15.615 4.193zm-4.471 1.197c-4.901-.81-10.642-3.841-15.319-4.06 4.133 1.112 10.891 4.263 15.319 4.06zm-9.239-19.897c1.619-4.289-.938.314-.105 1.025.309-.361.009-.77.105-1.025zm-3.227 3.188c.501-1.502 2.04-3.396 1.283-4.423-.362 1.45-2.259 3.479-1.283 4.423zm-3.552 2.327c.395-.56 2.434-4.959 1.982-5.18-.524 1.675-2.174 3.776-1.982 5.18zm-3.552 2.327c.491-1.504 2.634-4.925 1.982-5.18-.49 1.504-2.633 4.925-1.982 5.18z" clip-rule="evenodd"/>
  <path fill-rule="evenodd" d="M43.681 35.553c-.833-.711 1.724-5.314.105-1.025-.096.255.204.664-.105 1.025zM26.935 54.434c5.383.564 11.445 2.929 16.583 2.845-3.736 1.189-10.48.06-16.583-2.845z" clip-rule="evenodd"/>
  <path fill-rule="evenodd" d="M41.392 58.82c-3.584 1.823-11.594-.487-16.717-2.548 2.647-.774 5.62 1.115 8.522 1.704 2.889.587 5.77.777 8.195.844z" clip-rule="evenodd"/>
  <path fill="none" stroke="#000" stroke-miterlimit="10" stroke-width=".3257" d="M70.271 23.359s6.287-2.034 14.944-.627c0 0 14.081 2.85 5.915 9.852 0 0-6.633 6.058-11.429 9.458" clip-rule="evenodd"/>
  <path fill="none" stroke="#000" stroke-miterlimit="10" stroke-width=".7181" d="M6.58 75.659c2.409-.558 5.118-1.438 7.118-2.62-2.735 1.291-4.669 3.343-3.988 6.118 7.272.565 17.39-.359 15.43-9.847-1.659.407-1.167.053-2.597 1.162 2.959 1.45 7.306 1.34 10.596-.324-1.431 1.746-3.805 4.137-3.473 6.838 3.194.436 8.553-.444 10.588-3.308 1.74-2.448-.725-6.727.741-8.805 1.197-1.696 7.647-2.927 8.804-.017 1.242 3.124-5.559 6.64-6.591 9.38 5.68 3.162 32.819 5.745 36.651-.559 4.601-7.566-7.689-6.199-11.518-4.288 2.547 1.318 3.855.595 5.016-.912" clip-rule="evenodd"/>
</svg>