<?xml version="1.0" encoding="UTF-8" standalone="no"?>
<svg xmlns:rdf="http://www.w3.org/1999/02/22-rdf-syntax-ns#" xmlns="http://www.w3.org/2000/svg" height="1496pt" width="982pt" version="1.1" xmlns:cc="http://creativecommons.org/ns#" xmlns:dc="http://purl.org/dc/elements/1.1/" viewBox="0 0 982 1496">
<path d="m138.65 0c-35.25 25.8-35.76 75.4-48.162 113.62-20.587 2.07-44.926-3.06-62.851 9.09-6.813 15.37-9.549 34.13-6.799 50.68-5.8 16.8-4.376 40.19 8.85 53.41 19.512 5.2 40.087-1.8 59.974-2.6 4.125 30.21 17.228 57.92 30.788 84.81-0.41 35.98-0.36 72.16-2.14 108.09-0.31 15.32-7.01 35.78 7.68 46.8-11.1 15.68-9.15 36.16-8.54 54.35-4.4 103.19-2.15 206.4-5.92 309.59-3.74 12.52 0.9 27.92 15.06 30.54 1.47 8.94-13.6 11.66-15.35 20.52-6.11 127.6 1.41 255.8-0.04 383.2-35.513 33.6-58.276 94-26.563 137.8-17.975 37.7 0.951 80.7 36.113 99.6 1.33 12.4 7.87 23.4 10.32 35.4-23.37-1.6-41.094-21.6-63.894-23.2-17.963 8.7-22.45 30.4-27.375 47.9-11.675 8.3-33.414 4.1-39.801 18.4v6.7c2.9375 92.2 4.5008 184.6 4.8008 276.9 6.1502 5.6 15.161 2.8 22.523 3.5 61.638 2.8 124.07-2.3 185.27 4.9h2.27c20.73-4.1 42.79-0.7 63.84 0h3.59c13.17-3.3 27.27-1 40.67 0h1.19c1.19-4.3 5.53-1.6 8.35 0h7.96c16.53 1.2 12.84-19.3 17.95-29 8.68-21.5 9.31-47.6 21.65-66.8 45.22 22.3 88.88 48.9 130.18 78.1 13.72 7.1 27.07 16.4 42.95 17.7h37.46c19.74-0.1 39.69-3.8 56.95-13.6 33.14-24.7 53.91-61.4 79.78-92.9 25.83-3.5 39.32-35 48.59-57.5 6.39-22.6 25.74 15.4 40.1 2.9 17.53-24.7 12.4-57.2 2.63-83.7-2.09-4.7-14.03-8.5-7.25-13.6 15.75-10.7 8.86-31 10.25-46.6 15.42 2.6 25.78 17.7 36.24 28.2 15.08 0 30 3.4 44.02 8.8 3.48 2.1 5.94-1.8 2.44-3.8-24.36-14.1-50.55-24.9-74.61-39.6 0.78-4.2 6.17-3.5 9.18-4.6 113.52-20.6 235.03-27.9 344.23 15.5 5 1.8 9.4-1.8 11.9-5.7 20.6-28 30-62.5 32.4-96.9v-27.6c-0.3-14.1 0.6-33-17.6-34.3 4.9-5.5 15.7-4.7 17.6-14.2v-5.5c-5.1-23.5-9.1-48.9-24.6-68.1-3.4-4.4-7.5 1.6-11.6 1.2 3-30.8-2.1-61.8 2.2-92.6 0-13.3 4.3-29.7-8.7-38.5 18.4-24.2 1.5-58.3 8.9-86.1-1.9-86.5 3.1-173.25 0-259.81-1.5-24.99 6.8-52.64-8.3-74.89 20.4-27.79 5.1-64.29 10.3-95.75 9-71.74-3-144 4.3-215.84 5.4-11.55-13-20.76-3.2-31.3 9.8-39.96-7.5-84.31 10.8-122.39 9.6-40.93 19.8-82.81 15.5-125.18-1.4-8.34-8-13.47-15.5-16.09 5.9-7.53 17.4-12.42 15.8-23.86-2.7-40.877-5.9-82.803-22.3-120.89-2.9-5.4008-6.6-14.225-14.4-12.262-45.4 11.437-86.6 36.537-133.1 44.4-105.09 31.075-215.1 38.974-323.85 46.224-199.43 1.6-404.85-13.887-589.99-93.562h-1.11zm-0.54 11.525c8.65 5.7-23.63 31.062-6.83 38.45 7.76-9.838 8.36-29.85 22.13-34.438-2.8 11.788-18.2 25.976-10.38 37.926 11.68-3.875 7.42-32.513 23.68-33.051-0.65 10.238-19.65 30.351-5.56 37.176 8.14-9.138 7.61-28.401 19.76-34.764 8.69 10.825-21.6 30.113-5.9 39.713 8.81-7.6 5.71-28.262 19.96-31.187 0.95 8.137-19.13 33.45-2.71 34.675 1.7-10.637 5.51-27.362 17.31-29.787-2.51 9.975-13.72 21.836-8.08 32.274 11.49-1.125 2.85-29.561 19.19-29.274-0.77 10.413-14.29 24.487-5.52 33.324 8.29-4.612 3.96-28.362 17.1-29.687-0.16 10.287-10.57 19.174-6.69 30.199 12.85 2.1 5.2-29.237 19.9-26.312 0.25 9.287-11.62 21.226-5.11 30.513 10.9-0.625 3.12-25.35 15.88-27.113-2.14 9.275-6.63 18.264-5.71 28.076 16.47 5.25 5.02-24.775 19.12-24.375-0.9 8.463-8.36 19.188-3.14 27.125 11.95 0.238 4.5-22.75 15.56-24.238-0.15 8-9.38 19.4-2.03 25.662 10.61-2.825 5.81-17.162 12.58-23.824 9.63 4.2-7.26 23.611 6.16 26.424 9.17-2.313 5.12-14.838 10.42-21.063 11.09-0.662-5.5 18.439 4.73 21.039 9.05 0.475 5.83-14.113 11.18-19.138 6.24 3.575-3.1 15.988 3.28 18.826 9.72 3.05 2.85-15.114 11.65-14.488 0.22 6.312-5.3 16.887 3.82 18.599 6.23-2.775 0.73-17.463 9.83-16.15 0.12 5.175-2.19 10.412-0.66 15.5 10.38 4.525 4.85-15.463 12.81-13.75 0.97 5.987-4.45 18.1 6.04 15.088-0.66-13.863 12.21-18.937 8.21-1.012 9.67 9.262 4.66-12.863 14.2-8.113 1.18 4.437-3.5 11.738 3.47 12.076 7.84 2.6 1.84-15.95 9.95-10-1.85 3.612 6.09 16.687 7.94 8.25-1-10.963 11.15-6.452 8.97 2.023 8.03 9.511 7.84-14.611 15.19-3.924 4.4 13.335 9.74-4.625 17.22 0.537 79.06 12.078 159.29 9.664 238.97 9.989 52.4 2.079 103.9-3.789 156.07-6.852 5.69 7.861 12.43-7.124 17.73 3.739 2.78-11.626 9.19-5.101 12.49-0.114 2.58-18.55 7.07-0.124 13.26-1.924-1.01-11.525 7.82-5.951 7.05 0.862 6.77 1.312 2.62-9.413 8.4-8.688 2.34 3.225 0.81 10.901 6.32 9.889 1.99-4.35-0.93-13.801 6.28-12.426 4.05 1.825-0.19 11.712 6.19 11.412 5.18-3.062-0.83-13.511 6.25-12.711 5.68 0.575 1.39 10.299 5.11 12.399 7.48-0.6 2.49-11.3 6.57-14.625 8.42-1.475 0.93 18.7 10.59 14.025 0.39-5.087 0.2-10.212 0.57-15.312 9.78-3.013 2.57 17.962 11.93 14 1.09-5.463-0.97-10.913-0.26-16.338 9.78-2.675 5.36 13.9 10.41 17.275 5.92-5.437 3.16-14.024 3.23-20.974 9.92-1.226 2.33 17.874 10.63 20.824 6.78-6.4 2.2-15.8 1.88-23.637 10.2-0.725 1.91 20.001 10.7 21.113 9.1-4.525-5.9-21.563 3.5-23.676 4.5 6.926 3.9 16.05 6.8 23.688 15.2-0.288-6.5-26.799 7-27.449 3.5 8.025 3 19.399 7.8 26.137 9.7-4.676-1.9-21.538 1.2-27.463 9.1 4.05 3.2 21.388 10.1 26.388 11.2-3.5-1.7-21.925 2.5-28.625 7.5 5.263 4 20.962 10 27.299 11.6-4.562-4.7-24.249 2.2-31.299 8.7 8.225 5.1 22.349 11.7 31.274 12.8-7.163-8-28.461 2.2-35.149 6.5 10.725 7.7 23.288 10.3 35.188 17.8-3.738-8.9-32.1 4.6-38.875 10.1 7.475 7.4 26.074 14.1 35.049 11.8-9.488-9.4-30.412-0.2-40.174 10.3 10.575 6.8 29.523 15.3 41.586 13.6-12.563-14.6-36.662 2.4-46.174 1.6 14.425 4.3 32.237 11.2 43.562 9-12.962-9.8-33.7-3.7-46.05 13.5 9.987 8.3 33.288 18.6 44.888 9-11.837-5-30.8-6.9-44.588-5-5.975 3.4-7.026 4.7-3.388 8.1 14.125 9.4 30.688 14.2 45.963 4.9 3.35 6.3-4.538 5.2-7.788-2.7-13.9-6.9-27.499-12-40.724-1.7-3.35 2.9-4.562 4.3-1.787 8.6 13.925 13.9 29.949 14.7 46.324 0.4 4.187 7.8 5.15 8 0.338-1.2-15.125-6.2-29.876-11.2-44.139-2.2-3.187-6.6-11.836 0.9-10.136 9.6 17.45 16.5 36.587 18.8 56.5 2.4 2.174 5.6 0.213 6.6-2.387-0.7-20.263-11-38.463-16-57.651 15.5 15.213 14.7 44.776 26.2 62.276 6.7-22.525-10.6-45.326-15.9-67.326 8.6 1.987 9.3 15.338 13.7 21.888 10.4 34.313 17.5 71.202 13 106.94-1.4 14.5-21.7 6.88-24.5 18.28 7.5 6.58 27.9 4.64 27 19.51 1.1 42.58-4.9 86.45-20 126.42-1.8-7.3 13.2-27.08-0.4-30.75-7.4 14.17-6.9 37.96-20.5 48.39 4.2-13.49 9.6-26.7 13.3-40.35 1.4-3.53-1.3-10.91-5.4-6.61-8.6 12.17-4.8 34.92-16.6 43.32-2.8-13.75 13.1-31.89 7.4-46.01-11.4 5.86-6.5 33.79-19.5 40.91-8.8-12.03 16.9-33.01 4.4-44.7-10.1 8.29-7.3 32.63-19.4 38.32-3.9-10.44 16.5-31.28 2.2-38.48-7 8.82-4.3 27.21-16.1 33.71-6-8.88 13.9-28.35 1-35.03-9.6 5.83-3.2 28.65-14.9 33.89-8.4-8.94 14.4-29.51-0.5-37.22-7 4.8-0.4 30.2-12.7 29.18-0.7-9.86 5.9-19.87 2.7-30.02-13.5-3.58-1.7 27.97-16.8 25.21-1.2-9.86 7.6-21.51-0.5-29.81-9.3 3.37 2.7 24.46-11 26.38-6.9-4.72 8.1-29.27-6-27 0.2 8.03-1.5 16.23-5.2 23.35-11-2.52 0.2-16.98-4.3-24.82-12.4-3.03-1 23.49-14.3 19.47-1.3-7.41 3.4-14.99 0.7-22.13-11-0.86-0.9 22.84-13 19.27-1.5-6.82 3-14.21-0.6-20.6-10.4-1.27-1.6 20.55-13 16.95-2.1-6.6 5.7-16.26-2.1-20.55-8.1 0.43-1.3 14.8-8.4 17.37-10.45-1.85 0.4-14.7-6.3-20.25-9.05 0.78-1.56 18.02-12 14.76-1.1-5.04 1.86-10.2 0.22-15.15-8.48-3.88-4.82 9.99-8.4 13.11-8.43 0.62 1.27-15.51-7.31-15.14-6.64-0.41-1.95 12.83-9.44 10.76-9.02-0.48 1.24-12.48-5.63-14.41-6.98-0.93-1.96 13.58-9.08 10.51-6.62 0.29-4.23-17.19-10.9-8.07-5.38 14.26-8.01-13.83-13.71-1.09-5.63 8.93-8.35-11.56-14.18-3.06-6.88 5.81-9.81-9.92-17.14-1.97-8.35-7.55-19.14-0.63-29.54-5.39-42.65-6.78-85.11-16.88-128.46-17.54-100.35-6.05-201.51-16.56-301.52-2.11-4.49-6.33-9.61-1.17-13.73 0.76-8.48-9.7-13.2 10.94-14.87-2.51-5.23-2.68-9.38 2.73-7.6 7.67-5.81 3.04-4.45-8.42-9.8-5.3-5.11 0.54-1.92 11.49-8.66 7.43 1.56-9.4-13.12-8.32-8.39 0.53-5.7 8.8-5.02-12.32-13.21-4.41 3.98 13.1-9.06 8.15-6.87-1.42-10.88-3.03-0.99 15.49-10.97 13.56-5.03-1.82 1-17.73-7.63-12.48-7.72 2.64 3.73 15.15-4.88 16.32-4.75-4.13-1.25-14.05-7.48-16.3-10.6 1.39 0.09 13.77-3.64 18.69-13.57 7.12 0.13-22.11-15.03-15.78-4.15 6.17 9.92 20.11-1.2 19.49-7.41-3.34 0-23.59-11.88-19.42-3.63 6.97-0.18 14.95 1.58 22-14.26 7.99-2.73-28.87-16.86-19.02-2.58 7.88 2.97 15.52 1.55 23.3-10.99 0.71-1.92-29.85-15.34-20.92-3.76 7.41 7.41 18.73 0.96 24.16-4.95-7.45-5.27-16.69-7.96-24.96-16.64 0.87 2.94 23.38-4.57 28.66-7.59-6.43-2.81-22.28-10.12-28.93-12.07 5.6-0.3 21.21-0.28 31.03-11.24-1.59-4.24-37.54-19.02-26.21-1.92 10.63 7.21 20.72 7.81 31.27-12.58-2.78-5.81-25.22-14.72-32.11-15.01 6.74 3.78 24.65 0.45 36.53-8-10.02-5.59-26.15-13.26-35.36-15.99 3.48 3.91 29.5 1.53 37.49-9.03-9.76-10.28-24.6-12.5-37.46-17.06 6.48 8.54 33.86 0.07 42.17-8.12-10.5-7.33-30.17-13.73-39.71-11.42 9.84 5.9 31.81 3.68 43.51-11.23-8.66-7.53-32.5-16.22-42.31-10.62 11.66 6.4 33.73 4.92 46.29-8.97-8.05-8.79-24.9-11.89-36.83 2.5-6.67-5.8-9.41-8.06-3.94 0.46 15.35 6.73 29.68 9.88 44.5-10.7-9.95-10.01-29.74-15.04-43.51-0.94-3.33-3.96-0.06-5.67 0.89-2.17 16.52 7.64 31.51 10.28 47.41-10.32-1.64-8.2-19.26-11.92-27.38-1.86-4.68-0.67-25.33-9.42-16.27-2.73 15.87 8.19 30.37 9.31 46.1-12.9-11.36-7.85-36.59-17.5-49.96-12.84 11.97 3.44 33.19 2.84 46.85-15.55-33.88-21.676-71.9-22.963-108.99-4.575-14.58 16.793-10.32 17.493-22.96 1.84-9.55-18.355-3.23-13.755-14.95 1.25-44.776 10.335-92.85 39.485-128.18zm-50.434 108.76c6.9 4.91-0.901 20.15 1.012 27.96 0.637 6.66 11.572 4.82 12.282 10.22-27.095 5.49-9.87 41.9-13.032 58.86-4.626-9.3-4.951-19.93-6.989-29.64-13.087 0.81-2.261 21.78-3.236 29.78-9.475-5.1 1.049-31.72-12.338-29.32-1.025 10.21-0.374 20.5 1.113 30.62-5.287-8.77-6.612-20.5-7.75-30.92-12.512 1.25-1.65 20.35-4.488 25.63-5.638-7.23-3.887-18.43-6.762-27.18-11.575 2.18-4.775 19.25-3.525 27.42-8.863-5.47-3.576-21.66-10.176-27.49-9.15 5.47-2.324 19.47-1.486 27.85-8.725-6.55-6.139-21.59-7.389-31.32 1.388-10.96 18.926-0.71 22.488-9.06-5.2-5.34-25.263-2.37-20.425-15.49 2.9-10.33 2.125-22.86 8.4-31.79 17.063-4.3 34.826-4.8 52.301-6.13zm429.83 91.66c149.03 3.41 300.48 10.85 444.78 51.87 71.61 20.44 145.81 36.94 212.41 71.48 4.9 2.73 13.8 2.27 15 9.3 0.5 23.24 0.6 46.57 0 69.79-1.1 10.31-22 4.46-16.1 16.77 20 2.88 16.5 27.91 15.6 42.67-0.1 75.8 2.2 151.7-3 227.47-2.2 18.63 5.8 45.12-9.3 59.47-16 3.75 5.8 10.05 4.9 18.92 5 125.93-2 251.72 2 377.62 2.4 15.9-9.3 27.4-22.6 32.9 4.5 5 14.6 4 20.8 8.2 2.6 41.5 1.3 83 0.7 124.5-120.6 66.9-243.75 129.7-364.96 195.8-17.16-3.6-34.96-2.5-50.68 5.8-17.34-1.7-32.45-12.2-48.87-17.7-95.84-36.3-194.69-75.6-298.88-72.6-4.81-0.8-17.38 2-12.82 9.4 19.97 27.8 54.95 40 87.05 47.7 23.23 21.8 55.14 36.1 87.8 33.7 14.69-3.4 24.76 9.2 37.41 13.7 39.19 15.7 82.23 8.4 122.43 1.5-5.72 26.8-34.4 11.2-52.72 11.6-13.66 7.6 1.38 25.4-2.05 35.6-69.95 22.7-142.89 37.3-214.56 52.3-40.61-40.8-94.51-63.4-148.39-80.6-7.91-16.6 10.96-50.3-14.9-55.5 6.99-8.1 20.59-13 20.82-25.8 0.13-30.5 10.51-63-4.23-91.4 18.93-26.6 21.39-80.9-20.6-84.6-4.46-25.4-24.51-48.5-50.84-51.6-28.18-24.1-70.25-25.1-103.06-10.8-8.45 5.9-16.22 17-27.75 15 3.51-19.3-8.97-46.6 5.69-61.8-10.85-19-5.07-41.2-7.77-61.8 3.64-82.5-4.83-165.24 2.28-247.65 0.17-13.01 17.23-15.51 21.83-25.56-4.63-7.51-19.74-3.37-23.73-12.8 1.91-118.68 0.05-237.98 5.37-356.93-0.45-10.7 4.08-22.97 15.47-25.75-3.79-4.68-19.09-6.51-15.82-17.39 1.13-46.7-0.42-93.66 3.23-140.03 58.46-27.13 120.11-49.38 183.71-61.51 67.38-14.75 135.4-27.26 204.35-31.24zm-322.51 1026.2c20.14 0 40.28 5.6 55.71 18.9 21.5 2.4 40.91 18.7 44.58 40.3-6.35-8.8-12.45 5.3-10.23 11.4-4-0.4-13.56 14-6.49 17.5 6.47-5.6 16.63-11.7 19.25-19 11.02-0.4 31.27 7.9 30.86 23.9-17.2-4.4 4.12 13.8-1.88 19.8-2.89-3.3-6.93-15.8-10.35-8.5 5.7 8.6 6.26 18.8 7.45 28.8-7.22-3.9-3.89-22.2-13.58-22.1 1.19 11.6 10.23 28.5 2.24 37.2 1.39-10.1 0.29-22-6.68-29.9-6.34-0.4-0.1 8.2-0.27 11.8 1.53 14.6-2.2-6.1-7.86-3.3 1.3 7.8 4.12 15.5 3.66 23.5-5.76-1.7-1.96-15.6-8.79-16.9-4.36 6.4 5.75 15.4 1.14 22.3-4.31-3.6-1.74-15.8-9.85-15 0.2 6.4 4.51 11.9 3.6 18.4-4.89 0.1-3.5-11.2-10.92-8.5 0 6 7.62 11.3 3.35 17.2-17.7 32.5-35.7 66.9-65.85 89.5-10.5 17.4-25.36 31.8-36 49.2-4.66 1.9-11.13-4.6-5.19-8 27.11-30.8 50.84-64.8 68.1-101.9 1.26-3.4-3.01-1.7-3.28 0.5-19.03 36.8-43.98 70.3-71.78 100.9-2.03 2.8-7.69 1.1-4.93-2.6 12.69-30.7 24.95-61.6 33.93-93.6-14.33 20.7-19.61 50.5-33.26 73.1-3.72 4.1 0.76 15.5-6.46 14.4-2.17-30.2-15.66-61.2-13.84-90-7.7 29.5 4.03 62.8 7.4 93.9 1.06 4.8-5.18 4.5-8.39 4.7-13.44-14.7-1.96-44.5-26.43-49.9-30.247-15.2-32.66-53.6-21.835-81.7 12.335 0.2 21.175 6.9 31.315 4-3.14-16.1-8.65-32.5-5.98-49.4-10.72 2.4-2.5 26.2-4.6 33.3-8.96-12.7-3.02-31.7-5.36-44.9-8.862 10.4-6.2 34.1-1.11 49.1-10.341-15.9-10.152-38-6.64-56.5 0.67-4.1-5.288-2.5-5.801 0.4-3.8 13.5-3.812 28.4 0 41.9-11.062-14.5-4.137-40.2-6.349-56-13.05 11.7-5.562 39.2-4.788 55.5-12.962-27.8-4.712-61.9 13.401-85.7 7.337-17.6 22.477-32.1 40.847-37.7 11.55-10 25.66-17.6 41.13-19 5.53-0.9 11.17-1.3 16.81-1.3zm1004.1 92.3c13.3 14 15.1 40.8 18.4 60.6-7.2 9-35 2.7-30.5 19.6 9.7 0.6 19.9 1.1 29.1 4.8 4.1 40.4 2.4 82.4-14.7 119.8-11.4 2.5-11 20.6-20.1 24.5 0.6-9.6 10.1-17.9 8-27.7-10.5-1.3-7.7 19.3-17 22.8 0.3-8.5 10.8-21 1.6-26.2-5.4 7.4-4.4 18.1-10.4 25.2-7.9-7.3 8.5-19.6 2.3-28.6-12.5-1.4-4.2 24.5-16.3 23.2-0.5-7.6 4.7-16.2 2.4-24-12.2-4.2-3 21.4-14 20.1-1.2-7.5 3.9-15.2 1.5-22.7-12-4.4-2.8 20.6-13.2 20.4-0.4-8.7 2.2-17.2 1.2-25.8-14.8-3-1.4 24.7-16.3 24.8 0.8-8.4 4.1-17.1 2.2-25.6-14.4-5.3-1.5 22.5-13.4 22.8-0.7-8.6 4-17.9-0.2-25.9-13.9-1.5-0.8 26.6-14.5 24.9-1.2-8.8 5.8-20.3-1.8-27.2-12 0.4 2.5 30.7-12.5 24.9-2.6-7.2 5.7-20.1-1.1-26.3-15.5 1.4 6.9 30-13.1 24.6-0.2-8.2 1.3-16.3 0.7-24.4-12.4-2.3-4.9 17.2-10.2 23.3-8.3 2.3-2.8-10.3-2.6-14 3-5.4-6.9-13.9-8.5-5.8-2.7 5.7 2.3 20.9-7.3 18.5-2.5-6.7 4.4-18-2.6-22.3-11.5 1.6 1.4 19.7-8.6 22.8-10.3-2.4 4.5-20.9-6.3-22.9-11.59 1.8 2.3 19.9-7.5 22.6-10.01-3.4 4.1-20-6.83-24.9-11.86-0.4 2 25.8-10.77 23.4-0.84-6.9 2.24-15.3-2.64-21.2-10.15 1.2-1.8 16.4-7.55 21.4-7.07-0.7 2.96-25.4-9.22-20.3-1.05 7.2-0.44 14.9-3.29 21.8-9.19-0.8 1.54-16.5-7.34-20.4-11.16 2.3 1.15 18.8-8.75 21.9-3.37-5.4-1.2-12.2-3.86-17.9-12.54-1.2 1.74 20.9-11.02 18.4-0.43-6.4 3.25-19.4-8.78-14.4 2.89 4.7-0.65 22.7-5.86 13.5 7.22-16-17.89-14-9.23 2.4-7.65 6.6-1.5-12.5-9.76-12.3-6.56 2.6-1.6 11.8-5.33 16.1-8.12 1.1 1.22-18.2-10.86-12.1-0.17 3.1-0.55 9.5-0.72 12.7-10.1 4.9-1.56-12.9-10.81-13.2-6.2 3.3 2.08 14.5-5.58 15.8-8.16 3.1-1.18-13.5-9.53-13.1-6.25 1.6 1.82 14.6-4.89 16.3-7.2 0.5-0.79-13.1-8.57-12.6-8.31 2.5 3.36 13.9-5.64 16-8 3-1.72-13.4-10.23-10.8-6.99 2.3 3.2 11.8-2.8 13.4-7.88-5.6-14.3-16.7-2.59-22.3 125.52-66.9 250.35-135 377.75-198.4zm-1074 39.2c-3.84 11.7-5.72 36.1 5.96 41.3-4.2-12.8-2.08-30-5.96-41.3zm8.75 13c-1.14 8.2-4.63 27.5 6.04 28.5-3.09-8.2 1.49-25.7-6.04-28.5zm10 11.3c-2.82 6-0.99 19.4 6.05 19.6-1.26-5.7 1.22-18.4-6.05-19.6zm171.73 0.3c16.58 10.6 5.43 42.8 6.47 60.4 0.64 7.8 0.4 39.4-12.74 29.6-21.3 11.2-44.6-1.8-66.57-2.9 0.08 6.6 10.87 3.5 14.88 7.9-6.65 1.7-18.22 1.4-23.73-1.4 19.38-25 41.45-50.1 53.88-80 9.53-3.7 19.35-7.5 27.81-13.6zm126.59 45.8c41.72-0.1 83.23 8.7 122.93 21.1 62.96 18.6 125.68 39.2 184.83 67.9-25.08 9.3-58.62 11.9-87.17 12.2 9.11-6.6 30.5-3.2 39.59-12.6-29.53 4.7-63.97 16.3-91.2-1.4 12.09-6.8 32.9-0.4 46.53-8.9-28.57-1.7-59.83 3.6-89.02-1.1 11.67-6 34.31-0.5 47.2-8.9-30.41 0.3-74.36 13.5-100.76-12 13.57-3.5 39.66 4.9 51.07-3.9-27.2-2.1-60.01 0.5-87.57-11.3 7.03-9.3 30.04 5.5 34.86-6.2-33.42 2.8-72.79 0.2-94.84-28.9-7.62-5.7 1.98-4.7 5.65-5.4 5.97-0.4 11.93-0.6 17.9-0.6zm-131.97 48.8c1.96 0.2-0.24 4.4-2.44 5.3-10.5 7.1-27.55 3.1-36.33-3 12.2 1.7 24.93 2.7 36.71-1.8 0.94-0.4 1.61-0.6 2.06-0.5zm-22.53 14.9c11 1.4 30.21 4.3 26.79 19.5-10.05 0-24.97-1.8-30.47-10.7 8.8-3.6 18.49 6.8 28.17 5-1.51-10.9-22.3-4-24.49-13.8zm-1.83 20.1c8.63 0.6 26.61 0.5 27.48 10.8-8.97-1.4-24.42-2.8-27.48-10.8zm-213.23 0.2c7.275 2.4-5.212 5.6 0 0zm728.45 0.1c4.29-0.3 7.44 5.1 5.74 9-6.38 10 8.13 11.9 9.7 20.3 0.9 13-8.88 28.6-0.7 40.1-1.93 6.6-8.15 19.1-16.6 13.7-10.64-12.2-14.22-34.6-35.74-30.2-9.12-7.9-24.76-1.7-29.55-14.7 14.57-21.6 39.62-37.9 66.27-38 0.3-0.1 0.59-0.2 0.88-0.2zm-734.46 7.1c10.175 0.7-6.35 10.4 0 0zm218.58 2.7c8.68 3.2 29.82-0.6 29.08 11.9-9.37-0.8-25.84-3.3-29.08-11.9zm-209.73 0.2c9.463 0.6-6.862 10.4 0 0zm7.2 2.4c9.874 1.2-6.788 10.7 0 0zm9.05 1.1c8.25 5.5-9.487 7.9 0 0zm-29 1.2c6.738 6.8-10.412 9.9 0 0zm36.28 2.3c6.392 0-2.77 8.7-1.493 0.2 0.572-0.1 1.067-0.2 1.493-0.2zm-27.655 0.6c7.388 2.8-5.237 6.3 0 0zm35.177 0.9c4.77 1.7-1.26 8.3-3.01 11.1-5.305-2.2 0.64-8.4 3.01-11.1zm24.08 0.1c11.17 2-7.03 12.9-7.47 20.5-4.39-3.3 3.6-15.5 7.47-20.5zm-51.62 0.7c2.56 0.2 5.111 3.4-1.625 6.8 1.95 11.1-11.313-1.5 0 0-2.363-5.1-0.366-6.9 1.625-6.8zm34.81 0.4c7.55 3.1-5.66 7.8 0 0zm46.09 0c4-0.3-2.13 5.6-0.94 0.2 0.36-0.1 0.68-0.2 0.94-0.2zm66.56 0.2c4.79 0.1 0.45 8.7-3.89 7.2-5.2-0.8-1.05-7.6 2.81-7.1 0.4-0.1 0.76-0.1 1.08-0.1zm-86.19 0.9c6.39 0-2.77 8.7-1.49 0.1 0.57-0.1 1.06-0.1 1.49-0.1zm92.64 0.3c10.73 1.9-7.15 10.2 0 0zm-146.47 0.1c11.424 0.3-4.326 6.9 0 0zm158.46 1c4-0.3-2.13 5.6-0.94 0.2 0.36-0.1 0.68-0.2 0.94-0.2zm-33.26 0.1c12.55 0-7.36 10.2-1.32 0.1 0.48 0 0.92 0 1.32-0.1zm-116.16 0.1c7.49-0.1-3.525 9.5-1.755 0.2 0.673-0.2 1.256-0.2 1.755-0.2zm200.87 0.1c6.22 1.7 13.72 1.6 18.81 6.1-3.7 5.6-22.19-0.3-18.81-6.1zm-145.2 2.2c4-0.3-2.13 5.6-0.94 0.2 0.36-0.1 0.68-0.2 0.94-0.2zm109.25 0.2c81.05 20.8 168.91 46.2 224.36 113.7 25.46 22.9 51.36 45.3 76.24 68.9 1.16 1.1 3.82 5.4 1.72 5.7-53.03-44-99.72-97.8-159.94-132.6-44.48-25.5-95.58-38.5-143.77-52.5-0.59-1.7-0.12-2.7 1.39-3.2zm-103.88 0.9c6.39 0-2.77 8.7-1.49 0.1 0.57-0.1 1.06-0.1 1.49-0.1zm-46.16 0.4c7.65 1.9-6.61 7.8 0 0zm52.44 1c7.59 4.7-8.27 6.4 0 0zm-78.239 0c6.853 0.4-4.637 19.2-6.899 9.1 4.925-1.6 3.088-6.1 5.276-8.8 0.628-0.2 1.166-0.3 1.623-0.3zm34.399 0.3c4.14 3.3-5.13 3.4 0 0zm-27.235 1c8 5.1-9.55 7.8 0 0zm128.52 0.3c6.71 0 0.49 11.6-4.18 7.2-3.11-2.8 1.41-6.4 4.18-7.2zm-32.48 0.7c6.39 0-2.77 8.7-1.49 0.2 0.57-0.1 1.06-0.2 1.49-0.2zm40.23 0.2c11.12 4.2-10.18 11.7 0 0zm10.03 0c10.92 4-10.99 11.7 0 0zm-40.39 0.2c11.22 3.8-9.08 6.6 0 0zm10.69 0.2c14.08 0.3-9.69 11.4-1.48 0h1.48zm38.22 0.8c11.49 5.2-9.17 11.8 0 0zm-147.5 0.2c8.239 2.7-6.513 7.8 0 0zm54.849 0c7.28 2.4-5.21 5.7 0 0zm-88.687 0.1c4.137 3.4-5.138 3.5 0 0zm5.213 1.1c12.387 0.5-6.588 11.8 0 0zm37.324 1c5.87 0.1-4.44 10.2-2.37 0.3 0.98-0.3 1.76-0.4 2.37-0.3zm51.41 0.4c10.38 0.9-6.4 8.6 0 0zm-45.26 1.2c7.28 2.4-5.21 5.6 0 0zm576.41 0.1c12.37 6.8 29.91-7.3 39.73 9.6 4.73 16 22.2 3 30.64 16 10.16-3.1 22.82 2.2 22.71 14.1 10.38 16.6 30.71 25.4 34.64 45.9 1.8 18.7 5.23 40.9-7.64 56.2-11.68-0.4-33.87-4.1-30.38-19.3 4.63-0.4 8.83 2.4 13.5 2.4-0.85-6.5-13.93-6.3-11.8-13.8 5.32-0.9 11.58 0.7 16.19-2.8-6.12-4.9-16.83 0.3-23.86-4.1-5.94-12.3 15.44-10.1 20.92-16.1-5.13-0.1-27.95 5.7-18.58-3.3 9.28-9.9-9.44 6.1-13.22-0.7-7.87-8.2 6.89-14.7 8.23-23-6.23 2.2-10.28 11.1-17.34 10.6-2.04-6.9 8.56-8.9 8.36-15.7-6.29 1.1-9.2 9.6-15.69 9.5-7.76-9.5 2.74-20.9 4.69-30.6-7.04 3-8.46 13.9-15.2 17.2-15.38-5.5-22.77-18.8-20.72-35.3-4.26 4.9-0.21 21.2-10.87 17.1-13.24-3.1-15.84-23.7-14.31-33.9zm-593.84 2c8.225 6.3-9.075 8.4 0 0zm161.56 0.3c62.12 15.2 125.78 34.9 177.43 74.4 1.13 4.2-6.23 0.1-7.81-0.8-52.3-29.7-109.17-50-167.54-63.8-9.02 1-6.12-6.8-2.08-9.8zm-74.11 0.1c6.58 2.1-5.17 5.4 0 0zm-32.43 0.1c4.65 3.4-4.64 3.4 0 0zm53.88 0.1c4.48 0.3 0.99 10.5-3.97 8.3-4.37-0.3-2.99-6.6 0.63-7.3 1.41-0.8 2.52-1.1 3.34-1zm-50.18 0.8c12.07 1.1-4.95 9.9 0 0zm59.31 0.3c5.27 0.2 2.47 9.1-2.02 8.5-6.23 0.6-2.44-7.9 1.48-8.5h0.54zm-21.2 0c14.67 0.1-9.92 9.5-1.55 0h1.55zm30.8 0.9c4.72 0.2 1.07 11.1-3.77 8.6-3.58-1.9 0.35-6.9 2.71-8.5 0.39-0.1 0.74-0.1 1.06-0.1zm-121.25 0.3c10.73 0.6-6.947 9.3 0 0zm130.84 0.7c4.91-0.3 0.39 11.6-4.45 8.5-1.09-2.8 0.01-6.5 2.61-8 0.72-0.3 1.33-0.5 1.84-0.5zm-122.23 0.4c4.49 0.8 0.92 10.2-3.77 8.8 0.54-3.2 2.1-6.1 3.77-8.8zm43.23 3.4c3.01-0.2-2.18 6-1.84 0.6 0.81-0.4 1.41-0.5 1.84-0.6zm-13.1 0.3c6.67 1.9-5.03 5.5 0 0zm4.93 1.5c6.77-0.2-2.59 7 0 0zm-114.53 0.3c16.388 2.1-20.837 11.1-25.537 9.4 4.487-7.4 17.475-6.2 25.537-9.4zm154.95 1c16.5 0.7-6.49 8.1 0 0zm10.79 1.1c9.79 1.4-4.9 6.3 0 0zm9.92 1.2c10.01 1-5.29 7.3 0 0zm9.74 1.2c4-0.3-2.13 5.5-0.94 0.1 0.36-0.1 0.68-0.1 0.94-0.1zm34.25 1.2c60.18 10.9 118.36 32.2 170.54 64.3 2.39 8.9-9.18 4.6-11.84 0.2-46.41-30.7-102.09-41.4-154.76-56.4-7.13 2-8.35-5.1-3.94-8.1zm-224.64 5.6c27.9-0.6-30.675 25.6-19.188 4.8 6.188-2.3 12.675-3.8 19.188-4.8zm218.44 7c60.49 13.6 122.24 30.4 174.43 65.2 0.76 8.7-7.88 4.7-12.42 2.3-49.12-33.4-110.2-39.4-164.76-59 0.51-2.9 1.4-5.8 2.75-8.5zm-117.8 6.6c4.48 1.2 15.65 1.5 11.21 8.2-12.82 13.1-25.56 29.3-43.548 35.2 10.968-13.7 17.178-34 32.338-43.4zm568.84 1.2c10.64 6.1 27.99 10.2 32.94 21.7-11.65-0.6-19.39-12.2-30.58-14.5 4.35 9.8 21.46 12.2 22.34 24.6-10.51-1.5-16.83-13.1-27.08-14.7 4.05 9.3 17.63 13 21.64 22.6-9.89-1.3-16.19-11.2-25.68-13.8 3.8 8.9 18.47 11.5 19.86 22.1-10.55-1.5-16.94-12.4-27-14.7 3.77 9.7 20.21 12.6 21.85 23.6-11.05-0.2-17.93-11.4-28.38-13.4 3.81 8.6 17.3 11.9 22.05 19.7-11.59 3.8-19.19-12.4-30.54-12.7 2.23 9.7 15.81 10.9 18.28 20.2-11.64-6.5-22.83-14.8-36.85-15.5 9.12-20.5 29.95-39.5 47.15-55.2zm-666.23 0.2c3.902 0 6.094 3.3 5.916 7.9-9.638 3.2-19.713 5.6-29.875 6.1-3.4752-12 12.699-9.9 19.511-12.8 1.657-0.8 3.147-1.2 4.448-1.2zm646.98 3.4c0.94 0 1.59 0.3 1.05 1.9-13.13 19.7-38.79 35.8-37.18 62-15.65 24.8-38.01 44.8-53.66 69.4-5.89 23 0.55 47.9-10.38 69.8-1.37 3.3-6.36 1.1-5.47-2.1 4.5-21.2 12.81-42.3 10.39-64.3-5.89-2.6-10.54 5.3-12.55 10-6.12 19.5-14.19 38.6-26.26 55.2-2.53 1.4-8.83 2.9-8-2 9.25-23.1 31.26-42.6 33.56-67.6-26.15-30.1-59.15-54.4-87.21-83 1.07-4.7 9.68-3.2 14.07-5.2 60.84-11 119.79-29.5 179.8-43.8 0.59-0.1 1.27-0.3 1.84-0.3zm-439.43 5c62.9 13.6 129.12 27.9 182.18 66.2 1.05 3.5 3.31 10.6-2.24 7-52.91-39.3-119.46-48.3-180.99-66.7-0.5-2-1.31-5.7 1.05-6.5zm-153.44 3.3c6.238 0 12.478 0.2 18.699 0.4 3.27 4.9-5.658 8.2-9.158 7.6-28.875 2.8-57.687 6.2-86.35 10.7-2.9245-2.4-1.2241-8 2.713-8.4 18.238-4.3 36.6-8.8 55.413-9.5 6.212-0.6 12.446-0.8 18.683-0.8zm70.749 1.3c4.22-0.1 8.4 0.8 11.32 4.1-3.42 4.9-27.46 1.3-16.95-3.5 1.8-0.4 3.72-0.6 5.63-0.6zm78.2 9.1c45.04 9.4 91.03 19.9 133.94 37.5 25.18 14.9 58.93 27.6 67.58 58.3-8.51 0.9-9.55-8.8-13.16-14-9.84-3.4-13.79-13.3-24.46-14.1-47.86-38.6-112.75-41.2-168.18-60.8-1.45-3.1 1.92-5.7 4.28-6.9zm675.9 1.9c-6.73 7.2-1.43 19-7.4 27.2-4.92 8.4-6.88 24.5 4.82 28.1 13.46 3.1 13.7-14.5 9.82-22.5-4.73-10.4-6.57-21.6-7.24-32.8zm-748.21 0.2c12.74-0.3 25.26 1.6 30.11 14-22.23-3.3-44.92-2.4-67.08-5.3-0.02-6.9 10.08-7.6 15.4-7.9 6.19 0.2 13.92-0.7 21.57-0.8zm-68.655 1.6c5.063-0.1 0.802 7.5-3.492 7.9-21.575 0.9-42.913 4.9-64.463 6.2-5.612-1.2-15.75 7.8-18.312-0.5 27.062-8.5 56.324-9.1 84.387-13.3 0.733-0.2 1.357-0.3 1.88-0.3zm130.7 9.9c34.36 6.3 67.8 17.2 101.91 24.9 4.24-0.1 3.15 10.1-2.82 4.4-33.09-11-67.89-15.6-101.8-23.5-1.3-2.6 0.66-4.5 2.71-5.8zm-94.9 4.2c57.3 1.3 116.95 7.2 169.45 31.1-64.99-6.9-131.8-22.3-198.24-19.6 1.24-12.6 20.4-7.5 28.79-11.5zm-46.029 0.5c4.628 0.3-1.945 9.5-4.371 11.8-23.362-0.7-46.763 1.3-69.863 4.6-0.9378-1.7-3.187-5.3 0.113-5.7 22.762-7.2 46.988-5.8 70.301-9.8 1.722-0.7 2.963-0.9 3.82-0.9zm358.09 5.3c42.59 27.3 77.09 67 115.15 100.8 3.13 2 4.49 8-1.01 6.4-29.36-27.6-57.96-56-90.5-79.9-7.76-8.8-21.29-14.9-23.64-27.3zm-8.61 1.4c-0.61 24.2 5.89 52 17.2 75.9-17.55-15-23.58-39.9-24.76-62.1 1.05-5.1 0.11-14.1 7.56-13.8zm474.84 8.2c3.91 2.4 2.95 13.9-2.68 12.3-0.76-4.3-0.01-8.8 2.68-12.3zm-800.88 2.4c61.99 0.2 125.1 5.4 184.15 25.5 0.79 4.7-8.96-0.5-11.01 2.1-59.53-7-118.58-22.9-178.95-19-30.775 1.8-62.425-4.7-92.35 4.3 0.1879-1.7 0.5492-5.1 0.7367-6.8 32.262-5.6 64.825-4.9 97.423-6.1zm334.73 6c37.81 24.6 73.45 57.7 106.47 90.2 2.4 2.7 9.19 10.2 2.19 11.3-33.7-29.4-65.87-60.7-99.55-90.2-3.34-3.8-12-4.5-9.11-11.3zm-105.95 0.8c4.1 0 10.17 2.2 7.47 6.7-4.26 2.2-11.4-1.2-9.07-6.6 0.47-0.1 1.02-0.1 1.6-0.1zm323.73 0c1.16 0.1-0.44 3.1-1.36 4-21.92 24.6-40.43 51.9-62.85 76-1.02-1.1-1.41-2.8-0.14-3.9 21.33-24.8 39.52-53.5 63.07-75.7 0.6-0.4 1.02-0.5 1.28-0.4zm10.59 2.5c1.66-0.1 2.97 1.3 2.22 3.1-24.78 30-49.23 60.1-73.02 90.8-1.93 3.3-8.86 4.8-6.18-0.8 25.77-30.6 49.5-63.1 76.26-93 0.24 0 0.49-0.1 0.72-0.1zm-319.34 3.6c3.43-0.2 5.99 3.4 3.82 6.8-3.99 3.4-9.89-4.1-5.33-6.5 0.52-0.2 1.02-0.3 1.51-0.3zm-249.25 0.1c66.04-0.5 131.3 14.3 196.29 24.7 5.04 3.8 17.45 3.1 18.02 8.4-34.22 5.1-68.14-9.3-102.44-8.6-64.28-12.3-131.14-7.2-196.4-9.1-7.1529 4.3-10.19-3.1-7.4404-8.5 23.087-7.3 47.638-4.9 71.451-6.3 6.848-0.3 13.688-0.6 20.519-0.6zm578.07 3.7c1.48-0.1 3.25 0.4 2.68 2.1-25.05 35.7-54.24 68.2-80.46 103.1-1.97 4.4-12.97 11.3-9.68 2.1 30.56-34.1 54.09-74.2 86.17-107 0.33-0.1 0.8-0.2 1.29-0.3zm-318.96 2.7c13.65 0.6-7.08 11.7 0 0zm82.28 3.9c33.82 20.1 61.15 53.1 91.6 79 2.18 4.8 17.26 12.3 8.32 16.7-26.93-27.7-56.82-52.4-85.35-78.4-4.25-6.4-18.02-6.7-14.57-17.3zm-70.49 0.8c4.04-0.1 7.61 3.2 4.82 8.1-4.12 2.1-11.37-3.9-6.57-7.9 0.58-0.1 1.17-0.2 1.75-0.2zm317.87 0.2c1.67 0.1 1.24 2.7 0.73 4.1-17.16 21.3-31.84 44.6-50.61 64.7-21.95 23-36.08 53.9-63.6 71.1-10.78 2.9-10.74-9.4-1.55-2.4 41.48-41.6 76.18-91.9 114.18-137.4 0.33-0.1 0.61-0.1 0.85-0.1zm-306.82 5.9c4.39-0.1 4.04 10.1-1.27 7.1-4.15-0.7-3.97-5.5-0.25-6.7 0.56-0.2 1.06-0.4 1.52-0.4zm315.68 0.4c9.2 0.4 1.85 13.5-4.4 9.1-2.29-3.5 1.61-7.4 4.4-9.1zm-641.32 4.1c74.995-0.1 150.32 2.2 223.92 18 12.35 0.5 24.81 7.7 34.55 11.5-10.73 3-24.15-1-35.73-2.9-88.42-17.6-178.89-17.3-268.57-14.7-10.962-9.9 6.424-10.9 13.712-11.7 10.693-0.1 21.4-0.1 32.113-0.2zm336.1 2c4.26-0.1 5.86 9.5 0.18 8.7-5.35 0.1-4.29-6.4-1.06-8.5 0.3-0.1 0.6-0.2 0.88-0.2zm296.58 4c15.16-0.5-7.94 18.2 0 0zm16.25 2.5c12.68-0.1-7.19 11.9 0 0zm-257.74 2.4c33.1 20.9 59.92 51.8 88.37 78.9 4.03 2.4-2.29 10.8-5.04 5.2-19.48-21.9-41.82-40.8-62.48-61.5-7.02-7.6-21-10.1-20.85-22.6zm-33.36 1.2c5.7 0.1 4.77 10.5 6.55 14.1 1.54 15.7 11.63 28.2 18.19 41.7-16.98-10.1-30.9-37.8-25.98-55.7 0.45-0.1 0.85-0.1 1.24-0.1zm-11.48 0c11.19 3.9-6.86 11.7 0 0zm280.08 2.5c9.63 1.6 0.86 11.3-5 11.3 3.08 5.8-2.96 11.4-7.76 6 3.86-6 9.26-10.9 12.76-17.3zm-565.9 0.7c64.06 0.5 127.71 10.3 190.41 22.9 3.78 0.6 17.21 6.2 8.39 9.6-101.18-16.5-204.04-22.2-306.67-19.6 0.8579-3.5-6.2917-14.3 4.146-10.7 34.612-1.7 69.049-1.3 103.72-2.2zm582.04 1.8c10.5 2-6.73 10.8 0 0zm13.85 0.2c13.7-0.6-7.95 16.4 0 0zm160.31 2.3c-2.85 0-5.7 0-8.54 0.1-11.22 9.3 4.01 33.5-14.46 37.6-4.7 5.2-0.11 10.5 1.08 15.6-13.27 19.4-27.87 38.1-41.67 57.2-9.6 8.4-10.07 22.4-6.72 33.8 17.18 14.3 42.12 14.5 63.4 14.3 35.75-1.4 71.63 4.1 107.22-1.2 12.19-1.9 21.53-16.6 17.35-28.2-16.57-24.2-33.51-48.2-50.77-71.8 5.07-5.3 7.07-15.7-0.08-20.1-11.75-8.8 2.05-27.9-7.09-36.9-19.72 1.2-39.78-0.2-59.72-0.4zm13.36 6.2c7.41 0.2 14.07 4.3 3.73 7.8 3.55 3.8 6.86 7.6-0.15 10.8 13.08 6.8-2.98 14.3-13.36 9.4-0.95-8.9-0.79-18.5 2.72-26.8 2.04-1 4.59-1.3 7.06-1.2zm29.47 2.3c3.5 0.1 3.51 5.6 0.54 7.7 3.17 6.2 5.35 23.3-5.9 19.2-0.1-8.4-1.89-20.1 3.64-26.6 0.65-0.3 1.22-0.3 1.72-0.3zm-210.61 0.2c7.35 2.1-5.06 5.7 0 0zm-13.42 0c7.92 0-3.5 10.5-1.85 0.2 0.71-0.2 1.32-0.2 1.85-0.2zm-263.38 1.1c8.64 0.2-1.22 10.2-0.9 0 0.32-0.1 0.62-0.1 0.9 0zm-352.96 5c81.018 0.2 162.22 6.2 242.03 19.8 6.09 1.6-0.54 8.9-5.05 5.2-100.9-4.9-202.01-16-303.18-13.1-5.1717-9.8 3.64-10.3 10.165-11.1 18.657-0.6 37.342-0.8 56.037-0.8zm591.19 1.6c12.04 3-5.35 10.2-5 16.4-8.24 0.3-6.69 19-15.5 10.6 6.57-8.6 12.55-19.1 20.5-27zm-228.67 0.9c3.95-0.1 9 2.6 6.24 6.9-4.37 2.7-9.86-1.9-7.83-6.6 0.49-0.2 1.03-0.2 1.59-0.3zm246.1 0.2c11.12 4.6-9.42 8.6 0 0zm-221.45 1.2c4.11-0.4-0.83 5.4-0.94 0.2 0.36-0.1 0.67-0.2 0.94-0.2zm235.92 1.2c3.99-0.3-2.13 5.6-0.94 0.2 0.36-0.1 0.67-0.2 0.94-0.2zm-230.95 3.9c18.05 5.1-5.98 11.5 0 0zm-18.8 2.5c13.66 3.3-6.54 12.7 0 0zm226.42 1.3c13.32 1.2-6.61 11.3 0 0zm16.11 1.3c6.58 2-5.18 5.3 0 0zm-648.68 2.8c89.9 3.2 181.75 0.8 269.54 23.2 12.37 4.7-10.79 4.3-14.63 3.8-95.46-10.4-191.34-16.8-287.35-11.4-9.585-21.2 21.828-11.3 32.44-15.6zm433.76 0.9c17.2 9.4 30.59 27.2 45.05 40.9 3.45 5.9-4.7 2.9-5.6-0.9-11.51-9.5-20.56-16.7-30.6-27-0.63-5.4-13.14-7.4-8.85-13zm-35.52 2.5c4.04-0.1 8.07 6.6 2.67 8.2-2.96 0-7.07-6.1-3.47-8.1 0.26-0.1 0.53-0.1 0.8-0.1zm17.94 1c11.02-0.2-1.86 12.7-1.14 0.1 0.4 0 0.78-0.1 1.14-0.1zm210.23 0.2c11.71 5.7-9.62 9.8 0 0zm-93.78 1.1c3.37 0.2 2.84 15.7-3.68 13.5 0.1-4.7 1.92-9.2 3.68-13.5zm306.26 0.2c5.42 0 11.67 0.5 11.87 5.8 1 17.8-36.46 2.8-16.75-5.7 1.37 0 3.08 0 4.88-0.1zm-198.86 1.3c6.77-0.2-2.59 7 0 0zm232.54 1c6.26 0.1 9.57 15.5-1.2 11.1-1.64-3.2-3.36-8.8-0.08-10.9 0.44-0.1 0.87-0.2 1.28-0.2zm-462.71 3.7c2.39 7.9 22.58 6.7 12.55 17.6-6.12-16.3-12.51-3.9-3.04 5.1-8.41 2.1-3.63-13-11.72-9.7-9.4 6.1-7.74-7.7-0.84-3.8 9.98 2.6-4.81-5.8 3.05-9.2zm18.22 1.2c3.54 0.1 6.31 6.6 1.83 7.5-2.81-0.9-7.19-4.6-3.37-7.1 0.52-0.3 1.04-0.4 1.54-0.4zm206.34 2.5c4.85 0-3.92 8.2-1.97 0.2 0.82-0.2 1.47-0.2 1.97-0.2zm-17.95 0.1c13.29 0.6-6.73 12.5 0 0zm-15.43 0.2c7.11-0.2 1.24 12.5-4.54 9.5-4.1-2.4 1.15-7.7 3.81-9.5h0.73zm-574.44 5.3c71.94 0 143.94 5.2 215.45 13.4 13.78 1.4 28.43 1.1 40.6 8.8-6.82 5.5-16.9-0.8-24.7-1-96.4-13-193.75-16.2-290.68-11.8-3.3446-3.1-0.5583-7.7 3.367-8.4 18.637-1.1 37.338 0.6 55.963-1zm410.84 1.1c6.86 0.4 10.21 7.7 15.59 11.2-3.88 12.5-17.98-7-15.59-11.2zm402.56 0.7c3.82 0 7.64 0.2 11.45 0.6 6.34 7.9-16.16 7.3-5.77 12.3 9.83 5.4-12.87 6.7-3.25 12 9.71 6.8-15.54 6.1-4.29 10.8 10.8 9.2-17.97 8.2-4.38 13 10.71 6.8-16.87 6.2-4.15 11.6 10.52 5.5-16.46 7.1-3.93 11.3 10.52 5.9-14.11 7.1-6.17 12.6-6.05 3.6-31.56 7.1-27.4-8.1 12.65-25.6 26.41-51.9 41.03-75.8 2.28-0.2 4.57-0.3 6.86-0.3zm32.57 0.1c1.8-0.2 3.43 1.4 4.47 2.8 12.98 26.1 24.67 52.8 37.55 79 0.86 9.6-14.93 4-20.34 3.9-4.14-28.8-23.31-57.6-22.95-85.4 0.43-0.2 0.85-0.3 1.27-0.3zm-344.73 1.3c6.5 0.1 1.97 16.1-4.23 9.7-0.07-3.4 1.29-6.6 2.78-9.5 0.53-0.2 1.01-0.3 1.45-0.2zm97.09 0.2c11 2.5-6.84 10.6 0 0zm-14.8 1.3c9.78 3.5-9.98 10.7 0 0zm-17.17 1.1c6.14 0 1.12 10.5-4.26 8.6-5.54-0.8 0.35-6.9 2.87-8.5 0.52-0.1 0.98-0.1 1.39-0.1zm-161.45 3.9c13.99 3.5-10.27 11.3 0 0zm184.83 4.9c11.24 1.8-7.44 11 0 0zm-638.06 0.2c9.421-0.1 22.014 3.1 28.469 0.4 84.22-1.5 169.1 0.9 252.43 14.8 3.36 1.4 11.76 0.5 10.31 5.8-38.05 1.2-75.58-6.8-113.56-7.5-63.08-2.9-126.37-2.1-189.49-3.1-0.8939-8.3 4.514-10.4 11.841-10.4zm605.54 1.1c4.94 0 3.93 8.5-1.26 8.9-11.99 16.9-25.02 26.3-38.51 41.5-4.97 0.1-8.9 10.3-10.51 0.7 19.46-12.7 32.83-34.2 49.21-51 0.38-0.1 0.74-0.1 1.07-0.1zm17.48 1.1c7.58 4.7-8.27 6.4 0 0zm-160.1 1.4c11.05 3.2-6.21 9.9 0 0zm16.45 1.3c15.19 0.5-6.36 12.3 0 0zm64.73 0.9c5.72-0.1 3.27 12-2.75 7.8-4.18-1.3-1.38-5.5 0.71-7.3 0.77-0.3 1.45-0.5 2.04-0.5zm71.48 5.4c6.54 5.2-10.77 7.9 0 0zm13.84 1c6.45 0.2-4.16 10.2-1.52 0.1 0.59 0 1.09-0.1 1.52-0.1zm-137.69 0.3c11.55 7.2-12.95 8.4 0 0zm-18.52 0.9c11.75 3.8-10.69 10.3 0 0zm34.15 0.1c3.06 0.2-1.93 5.7-1.84 0.3 0.8-0.2 1.4-0.3 1.84-0.3zm-450.33 3.1c79.898 1.8 160.68 4.5 239.53 18 13.24 3.6-8.39 6.7-12.44 5-97.42-11.8-195.55-13.6-293.6-12.5-4.9867 0.6-4.3383-9.9 0.774-9 21.8-2.5 43.864 0.3 65.738-1.5zm478.49 3.3c6.74 0.2 10.34 9.5 9.3 15.7-8.44 4.1-18.96-8.2-11.49-15.5 0.77-0.2 1.5-0.3 2.19-0.2zm-34.72 1c3.61-0.1 7.67 4.7 4.26 7.4-3.85 4.7-10.6-4.3-5.75-7.1 0.47-0.2 0.98-0.3 1.49-0.3zm119.83 0.1c10.13 1-7.16 11.6 0 0zm-13.91 0c7.36 5.1-8.61 7.7 0 0zm-124.81 1.1c13.05 0.4-5.96 10.7 0 0zm11.18 7.9c12.58 0.3-1.88 14.3-1.31 0 0.47-0.1 0.9-0.1 1.31 0zm103.87 1c9.91 0.9-6.05 9.4 0 0zm16.7 1.2c4.21 0.1-3.05 7.1-1.7 0.3 0.7-0.2 1.26-0.3 1.7-0.3zm-538.5 0.9c27.019 0 54.019 1 80.799 4.6 47.97 3.7 96.5 2.6 144 11-0.64 6.8-13.62 0.7-18.48 3.1-96.96-12.2-194.94-5.2-292.35-8.4-2.3354-12.7 15.064-7.4 23.039-9.3 20.946-0.3 41.976-0.9 62.992-1zm446.63 1.6c7.04 1.9-5.8 6 0 0zm-16.85 5.2c4.48 0.1 12.14 5 7.83 9.6-4.47-1.1-9.46-4.3-8.68-9.6h0.85zm84.47 0.1c10.17 1.2-7.08 10.2 0 0zm14.86 1.1c8.24 2.7-6.51 7.8 0 0zm-74.95 0.1c12.32 0.1-6.68 11.3 0 0zm9.93 6.1c8.57 4.1-6.82 9.4 0 0zm-542.09 0.9c0.92 0.1 1.842 0.3 2.723 0.7 103.9 0.9 211.45-3.1 312.8 14.4-17.15 7.4-42.03 0.2-61.97-1.7-85.89-4.6-172.13-2.8-258.1-3.1-8.2283-1.5-1.887-10.3 4.549-10.3zm583.36 0.5c12.68-0.1-7.19 11.9 0 0zm16.32 2.3c9.66-0.3-7.18 10.1-1.02 0.1 0.37-0.1 0.71-0.1 1.02-0.1zm-76.03 0.1c14.81 0.5-6.01 13.7 0 0zm51.1 6.2c13.01 1.2-10.8 11.1 0 0zm16.27 2.6c10.79 5.4-12.76 10 0 0zm-55.12 0c12.32 1.4-6.3 11.1 0 0zm-541.27 3.7c94.486 4.2 189.18-4.8 283.32 6.2-0.07 0.6-0.18 1.8-0.23 2.4-95.26-0.1-190.77 0.5-285.26-1.6-3.4746-2-0.9383-6.3 2.174-7zm570.44 1c4.43 0 3.79 8.2-0.77 9-4.26-1.1-5.14-7.1-0.77-8.7 0.57-0.2 1.08-0.3 1.54-0.3zm-16.83 1.6c14.41 1.9-5.4 11.2 0 0zm32.61 3.7c10.63 2.9-10.54 9.1 0 0z" transform="scale(.8)"/>
</svg>
