<?xml version="1.0" encoding="UTF-8" standalone="no"?>
<!-- Created with Inkscape (http://www.inkscape.org/) -->

<svg
   xmlns:dc="http://purl.org/dc/elements/1.1/"
   xmlns:cc="http://creativecommons.org/ns#"
   xmlns:rdf="http://www.w3.org/1999/02/22-rdf-syntax-ns#"
   xmlns:svg="http://www.w3.org/2000/svg"
   xmlns="http://www.w3.org/2000/svg"
   xmlns:sodipodi="http://sodipodi.sourceforge.net/DTD/sodipodi-0.dtd"
   xmlns:inkscape="http://www.inkscape.org/namespaces/inkscape"
   version="1.1"
   id="svg833"
   xml:space="preserve"
   width="800"
   height="800"
   viewBox="0 0 800 800"
   sodipodi:docname="1604327065quill-paper-ink-svg.svg"
   inkscape:version="0.92.3 (2405546, 2018-03-11)"><title
     id="title1155">Paper and quill</title><metadata
     id="metadata839"><rdf:RDF><cc:Work
         rdf:about=""><dc:format>image/svg+xml</dc:format><dc:type
           rdf:resource="http://purl.org/dc/dcmitype/StillImage" /><dc:title>Paper and quill</dc:title><cc:license
           rdf:resource="http://creativecommons.org/publicdomain/zero/1.0/" /></cc:Work><cc:License
         rdf:about="http://creativecommons.org/publicdomain/zero/1.0/"><cc:permits
           rdf:resource="http://creativecommons.org/ns#Reproduction" /><cc:permits
           rdf:resource="http://creativecommons.org/ns#Distribution" /><cc:permits
           rdf:resource="http://creativecommons.org/ns#DerivativeWorks" /></cc:License></rdf:RDF></metadata><defs
     id="defs837"><clipPath
       clipPathUnits="userSpaceOnUse"
       id="clipPath849"><path
         d="M 0,600 H 600 V 0 H 0 Z"
         id="path847"
         inkscape:connector-curvature="0" /></clipPath><clipPath
       clipPathUnits="userSpaceOnUse"
       id="clipPath859"><path
         d="M 0,600 H 600 V 0 H 0 Z"
         id="path857"
         inkscape:connector-curvature="0" /></clipPath><radialGradient
       fx="0"
       fy="0"
       cx="0"
       cy="0"
       r="1"
       gradientUnits="userSpaceOnUse"
       gradientTransform="matrix(566.44501,0,0,-566.44501,300,300)"
       spreadMethod="pad"
       id="radialGradient869"><stop
         style="stop-opacity:1;stop-color:#ffffff"
         offset="0"
         id="stop865" /><stop
         style="stop-opacity:1;stop-color:#231f20"
         offset="1"
         id="stop867" /></radialGradient><clipPath
       clipPathUnits="userSpaceOnUse"
       id="clipPath891"><path
         d="M 57.9277,510.609 H 441.192 V 74.3906 H 57.9277 Z"
         id="path889"
         inkscape:connector-curvature="0" /></clipPath><clipPath
       clipPathUnits="userSpaceOnUse"
       id="clipPath981"><path
         d="m 498.673,110.958 h 54.872 V 79.8066 h -54.872 z"
         id="path979"
         inkscape:connector-curvature="0" /></clipPath><clipPath
       clipPathUnits="userSpaceOnUse"
       id="clipPath995"><path
         d="m 505.146,122.125 h 41.926 v -8.532 h -41.926 z"
         id="path993"
         inkscape:connector-curvature="0" /></clipPath><clipPath
       clipPathUnits="userSpaceOnUse"
       id="clipPath1009"><path
         d="m 507.155,125.627 h 37.907 v -4.352 h -37.907 z"
         id="path1007"
         inkscape:connector-curvature="0" /></clipPath><clipPath
       clipPathUnits="userSpaceOnUse"
       id="clipPath1023"><path
         d="m 507.795,417.339 h 36.629 v -283.15 h -36.629 z"
         id="path1021"
         inkscape:connector-curvature="0" /></clipPath><clipPath
       clipPathUnits="userSpaceOnUse"
       id="clipPath1047"><path
         d="M 419.912,489.371 H 585.435 V 448.295 H 419.912 Z"
         id="path1045"
         inkscape:connector-curvature="0" /></clipPath></defs><sodipodi:namedview
     pagecolor="#ffffff"
     bordercolor="#666666"
     borderopacity="1"
     objecttolerance="10"
     gridtolerance="10"
     guidetolerance="10"
     inkscape:pageopacity="0"
     inkscape:pageshadow="2"
     inkscape:window-width="1920"
     inkscape:window-height="1017"
     id="namedview835"
     showgrid="false"
     inkscape:zoom="1.06125"
     inkscape:cx="400"
     inkscape:cy="362.3086"
     inkscape:window-x="3832"
     inkscape:window-y="-8"
     inkscape:window-maximized="1"
     inkscape:current-layer="g841" /><g
     id="g841"
     inkscape:groupmode="layer"
     inkscape:label="feather-paper-publicdomainvectors"
     transform="matrix(1.3333333,0,0,-1.3333333,0,800)"><path
       d="M 600,0 H 0 v 600 h 600 z"
       style="fill:#458fa3;fill-opacity:1;fill-rule:nonzero;stroke:none"
       id="path851"
       inkscape:connector-curvature="0" /><g
       id="g853"><g
         id="g855" /><g
         id="g883"><g
           clip-path="url(#clipPath859)"
           id="g881"
           style="opacity:0.30000299"><g
             id="g879"><g
               id="g877"><g
                 id="g875"><g
                   id="g873"><path
                     d="M 600,0 H 0 v 600 h 600 z"
                     style="fill:url(#radialGradient869);stroke:none"
                     id="path871"
                     inkscape:connector-curvature="0" /></g></g></g></g></g></g></g><g
       id="g885"><g
         id="g887" /><g
         id="g897"><g
           clip-path="url(#clipPath891)"
           id="g895"
           style="opacity:0.5"><path
             d="m 135.303,471.922 c 0,9.348 -3.315,17.921 -8.834,24.609 5.519,-6.688 8.834,-15.261 8.834,-24.609 m -14.078,29.853 c -0.956,0.788 -1.95,1.532 -2.979,2.227 1.029,-0.695 2.023,-1.439 2.979,-2.227 0.955,-0.788 1.872,-1.622 2.747,-2.497 -0.875,0.875 -1.792,1.709 -2.747,2.497 m -9.017,5.553 c 1.543,-0.681 3.039,-1.451 4.468,-2.319 -1.429,0.868 -2.925,1.638 -4.468,2.319 m 261.95,-393.689 v 357.722 c 0,21.677 -17.572,39.248 -39.248,39.248 H 96.616 96.615 96.322 v -0.007 C 75.091,510.444 57.928,493.19 57.928,471.922 v -0.561 h 77.375 v -39.248 -318.474 -0.561 c 0,-21.366 17.322,-38.687 38.688,-38.687 h 227.952 c 21.677,0 39.249,17.572 39.249,39.248 z"
             style="fill:#458fa3;fill-opacity:1;fill-rule:nonzero;stroke:none"
             id="path893"
             inkscape:connector-curvature="0" /></g></g></g><path
       d="m 205.179,120.578 v 0.561 h 228.513 c 0,-21.676 -17.572,-39.248 -39.249,-39.248 H 166.491 c 21.367,0 38.688,17.321 38.688,38.687"
       style="fill:#2b2d2d;fill-opacity:1;fill-rule:nonzero;stroke:none"
       id="path899"
       inkscape:connector-curvature="0" /><path
       d="m 89.116,518.109 c -0.099,0 -0.195,-0.013 -0.294,-0.014 v 0.014 z"
       style="fill:#f3ba0c;fill-opacity:1;fill-rule:nonzero;stroke:none"
       id="path901"
       inkscape:connector-curvature="0" /><path
       d="m 366.658,478.861 v 0 -357.722 H 205.179 v -0.561 c 0,-21.366 -17.321,-38.687 -38.688,-38.687 -21.366,0 -38.688,17.321 -38.688,38.687 v 0.561 318.474 39.248 0.561 c 0,21.367 -17.321,38.687 -38.687,38.687 H 327.41 c 21.676,0 39.248,-17.571 39.248,-39.248"
       style="fill:#f3ba0c;fill-opacity:1;fill-rule:nonzero;stroke:none"
       id="path903"
       inkscape:connector-curvature="0" /><path
       d="m 89.116,518.109 h -0.001 c -21.366,0 -38.687,-17.32 -38.687,-38.687 v -0.561 h 77.375 v 0.561 c 0,21.367 -17.321,38.687 -38.687,38.687"
       style="fill:#2b2d2d;fill-opacity:1;fill-rule:nonzero;stroke:none"
       id="path905"
       inkscape:connector-curvature="0" /><path
       d="m 237.948,455.575 h -60.311 v 4.797 h 60.311 z"
       style="fill:#4d4d4d;fill-opacity:1;fill-rule:nonzero;stroke:none"
       id="path907"
       inkscape:connector-curvature="0" /><path
       d="m 237.948,438.898 h -78.13 v 4.797 h 78.13 z"
       style="fill:#4d4d4d;fill-opacity:1;fill-rule:nonzero;stroke:none"
       id="path909"
       inkscape:connector-curvature="0" /><path
       d="m 237.948,422.221 h -78.13 v 4.797 h 78.13 z"
       style="fill:#4d4d4d;fill-opacity:1;fill-rule:nonzero;stroke:none"
       id="path911"
       inkscape:connector-curvature="0" /><path
       d="m 237.948,405.544 h -78.13 v 4.797 h 78.13 z"
       style="fill:#4d4d4d;fill-opacity:1;fill-rule:nonzero;stroke:none"
       id="path913"
       inkscape:connector-curvature="0" /><path
       d="m 237.948,388.868 h -78.13 v 4.797 h 78.13 z"
       style="fill:#4d4d4d;fill-opacity:1;fill-rule:nonzero;stroke:none"
       id="path915"
       inkscape:connector-curvature="0" /><path
       d="m 237.948,372.19 h -78.13 v 4.797 h 78.13 z"
       style="fill:#4d4d4d;fill-opacity:1;fill-rule:nonzero;stroke:none"
       id="path917"
       inkscape:connector-curvature="0" /><path
       d="m 237.948,355.514 h -60.311 v 4.797 h 60.311 z"
       style="fill:#4d4d4d;fill-opacity:1;fill-rule:nonzero;stroke:none"
       id="path919"
       inkscape:connector-curvature="0" /><path
       d="m 237.948,338.837 h -78.13 v 4.797 h 78.13 z"
       style="fill:#4d4d4d;fill-opacity:1;fill-rule:nonzero;stroke:none"
       id="path921"
       inkscape:connector-curvature="0" /><path
       d="m 237.948,322.16 h -78.13 v 4.797 h 78.13 z"
       style="fill:#4d4d4d;fill-opacity:1;fill-rule:nonzero;stroke:none"
       id="path923"
       inkscape:connector-curvature="0" /><path
       d="m 237.948,305.483 h -78.13 v 4.797 h 78.13 z"
       style="fill:#4d4d4d;fill-opacity:1;fill-rule:nonzero;stroke:none"
       id="path925"
       inkscape:connector-curvature="0" /><path
       d="m 237.948,288.806 h -60.311 v 4.798 h 60.311 z"
       style="fill:#4d4d4d;fill-opacity:1;fill-rule:nonzero;stroke:none"
       id="path927"
       inkscape:connector-curvature="0" /><path
       d="m 237.948,272.129 h -78.13 v 4.798 h 78.13 z"
       style="fill:#4d4d4d;fill-opacity:1;fill-rule:nonzero;stroke:none"
       id="path929"
       inkscape:connector-curvature="0" /><path
       d="m 237.948,255.452 h -60.311 v 4.798 h 60.311 z"
       style="fill:#4d4d4d;fill-opacity:1;fill-rule:nonzero;stroke:none"
       id="path931"
       inkscape:connector-curvature="0" /><path
       d="m 237.948,238.775 h -78.13 v 4.797 h 78.13 z"
       style="fill:#4d4d4d;fill-opacity:1;fill-rule:nonzero;stroke:none"
       id="path933"
       inkscape:connector-curvature="0" /><path
       d="m 237.948,222.099 h -78.13 v 4.797 h 78.13 z"
       style="fill:#4d4d4d;fill-opacity:1;fill-rule:nonzero;stroke:none"
       id="path935"
       inkscape:connector-curvature="0" /><path
       d="m 237.948,205.421 h -78.13 v 4.798 h 78.13 z"
       style="fill:#4d4d4d;fill-opacity:1;fill-rule:nonzero;stroke:none"
       id="path937"
       inkscape:connector-curvature="0" /><path
       d="m 237.948,188.744 h -60.311 v 4.798 h 60.311 z"
       style="fill:#4d4d4d;fill-opacity:1;fill-rule:nonzero;stroke:none"
       id="path939"
       inkscape:connector-curvature="0" /><path
       d="m 237.948,172.067 h -78.13 v 4.798 h 78.13 z"
       style="fill:#4d4d4d;fill-opacity:1;fill-rule:nonzero;stroke:none"
       id="path941"
       inkscape:connector-curvature="0" /><path
       d="m 227.887,155.391 h -68.07 v 4.797 h 68.07 z"
       style="fill:#4d4d4d;fill-opacity:1;fill-rule:nonzero;stroke:none"
       id="path943"
       inkscape:connector-curvature="0" /><path
       d="m 343.035,455.575 h -60.54 v 4.797 h 60.54 z"
       style="fill:#4d4d4d;fill-opacity:1;fill-rule:nonzero;stroke:none"
       id="path945"
       inkscape:connector-curvature="0" /><path
       d="m 343.035,438.898 h -78.13 v 4.797 h 78.13 z"
       style="fill:#4d4d4d;fill-opacity:1;fill-rule:nonzero;stroke:none"
       id="path947"
       inkscape:connector-curvature="0" /><path
       d="m 343.035,422.221 h -78.13 v 4.797 h 78.13 z"
       style="fill:#4d4d4d;fill-opacity:1;fill-rule:nonzero;stroke:none"
       id="path949"
       inkscape:connector-curvature="0" /><path
       d="m 343.035,405.544 h -78.13 v 4.797 h 78.13 z"
       style="fill:#4d4d4d;fill-opacity:1;fill-rule:nonzero;stroke:none"
       id="path951"
       inkscape:connector-curvature="0" /><path
       d="m 343.035,388.868 h -60.54 v 4.797 h 60.54 z"
       style="fill:#4d4d4d;fill-opacity:1;fill-rule:nonzero;stroke:none"
       id="path953"
       inkscape:connector-curvature="0" /><path
       d="m 343.035,372.19 h -78.13 v 4.797 h 78.13 z"
       style="fill:#4d4d4d;fill-opacity:1;fill-rule:nonzero;stroke:none"
       id="path955"
       inkscape:connector-curvature="0" /><path
       d="m 343.035,355.514 h -78.13 v 4.797 h 78.13 z"
       style="fill:#4d4d4d;fill-opacity:1;fill-rule:nonzero;stroke:none"
       id="path957"
       inkscape:connector-curvature="0" /><path
       d="m 343.035,338.837 h -78.13 v 4.797 h 78.13 z"
       style="fill:#4d4d4d;fill-opacity:1;fill-rule:nonzero;stroke:none"
       id="path959"
       inkscape:connector-curvature="0" /><path
       d="m 343.035,322.16 h -78.13 v 4.797 h 78.13 z"
       style="fill:#4d4d4d;fill-opacity:1;fill-rule:nonzero;stroke:none"
       id="path961"
       inkscape:connector-curvature="0" /><path
       d="m 343.035,305.483 h -78.13 v 4.797 h 78.13 z"
       style="fill:#4d4d4d;fill-opacity:1;fill-rule:nonzero;stroke:none"
       id="path963"
       inkscape:connector-curvature="0" /><path
       d="m 343.035,288.806 h -60.54 v 4.798 h 60.54 z"
       style="fill:#4d4d4d;fill-opacity:1;fill-rule:nonzero;stroke:none"
       id="path965"
       inkscape:connector-curvature="0" /><path
       d="m 343.035,272.129 h -78.13 v 4.798 h 78.13 z"
       style="fill:#4d4d4d;fill-opacity:1;fill-rule:nonzero;stroke:none"
       id="path967"
       inkscape:connector-curvature="0" /><path
       d="m 343.035,255.452 h -78.13 v 4.798 h 78.13 z"
       style="fill:#4d4d4d;fill-opacity:1;fill-rule:nonzero;stroke:none"
       id="path969"
       inkscape:connector-curvature="0" /><path
       d="m 343.035,238.775 h -78.13 v 4.797 h 78.13 z"
       style="fill:#4d4d4d;fill-opacity:1;fill-rule:nonzero;stroke:none"
       id="path971"
       inkscape:connector-curvature="0" /><path
       d="m 327.742,222.099 h -62.837 v 4.797 h 62.837 z"
       style="fill:#4d4d4d;fill-opacity:1;fill-rule:nonzero;stroke:none"
       id="path973"
       inkscape:connector-curvature="0" /><g
       id="g975"><g
         id="g977" /><g
         id="g987"><g
           clip-path="url(#clipPath981)"
           id="g985"
           style="opacity:0.5"><path
             d="m 541.19,79.807 h -30.162 c -4.049,0 -7.496,2.144 -8.122,5.053 l -4.133,19.194 c -0.781,3.627 3.075,6.904 8.123,6.904 h 38.426 c 5.048,0 8.904,-3.277 8.122,-6.904 L 549.313,84.86 c -0.627,-2.909 -4.074,-5.053 -8.123,-5.053"
             style="fill:#458fa3;fill-opacity:1;fill-rule:nonzero;stroke:none"
             id="path983"
             inkscape:connector-curvature="0" /></g></g></g><g
       id="g989"><g
         id="g991" /><g
         id="g1001"><g
           clip-path="url(#clipPath995)"
           id="g999"
           style="opacity:0.5"><path
             d="m 537.632,122.125 h -23.046 c -3.094,0 -5.727,-0.588 -6.206,-1.385 l -3.157,-5.256 c -0.597,-0.994 2.349,-1.891 6.206,-1.891 h 29.361 c 3.856,0 6.802,0.897 6.205,1.891 l -3.157,5.256 c -0.479,0.797 -3.112,1.385 -6.206,1.385"
             style="fill:#458fa3;fill-opacity:1;fill-rule:nonzero;stroke:none"
             id="path997"
             inkscape:connector-curvature="0" /></g></g></g><g
       id="g1003"><g
         id="g1005" /><g
         id="g1015"><g
           clip-path="url(#clipPath1009)"
           id="g1013"
           style="opacity:0.5"><path
             d="m 542.887,125.627 h -33.556 c -1.202,0 -2.176,-0.975 -2.176,-2.176 0,-1.202 0.974,-2.176 2.176,-2.176 h 33.556 c 1.202,0 2.176,0.974 2.176,2.176 0,1.201 -0.974,2.176 -2.176,2.176"
             style="fill:#458fa3;fill-opacity:1;fill-rule:nonzero;stroke:none"
             id="path1011"
             inkscape:connector-curvature="0" /></g></g></g><g
       id="g1017"><g
         id="g1019" /><g
         id="g1029"><g
           clip-path="url(#clipPath1023)"
           id="g1027"
           style="opacity:0.5"><path
             d="m 544.424,294.56 c 0,7.641 -0.243,15.106 -0.655,22.36 l -14.507,-13.175 -3.153,3.471 17.276,15.691 c -0.565,7.904 -1.329,15.509 -2.229,22.74 l -11.894,-10.803 -3.153,3.471 14.307,12.995 c -5.39,39.232 -14.307,66.029 -14.307,66.029 0,0 -3.317,-9.977 -7.127,-26.633 l 6.612,-11.394 -4.056,-2.354 -4.047,6.975 c -4.752,-22.391 -9.696,-54.137 -9.696,-89.373 0,-49.279 9.671,-91.768 14.957,-111.316 v -49.055 l 6.714,23.447 v 25.609 c 4.597,17 12.51,51.352 14.494,92.43 l -13.391,-12.163 -3.152,3.471 16.807,15.266 c 0.129,4.05 0.2,8.155 0.2,12.311"
             style="fill:#458fa3;fill-opacity:1;fill-rule:nonzero;stroke:none"
             id="path1025"
             inkscape:connector-curvature="0" /></g></g></g><path
       d="m 537.217,81.891 h -30.162 c -4.049,0 -7.495,2.144 -8.121,5.054 l -4.133,19.193 c -0.781,3.627 3.074,6.904 8.122,6.904 h 38.427 c 5.047,0 8.903,-3.277 8.122,-6.904 l -4.133,-19.193 c -0.626,-2.91 -4.072,-5.054 -8.122,-5.054"
       style="fill:#2b2d2d;fill-opacity:1;fill-rule:nonzero;stroke:none"
       id="path1031"
       inkscape:connector-curvature="0" /><path
       d="m 533.659,124.209 h -23.046 c -3.093,0 -5.727,-0.588 -6.206,-1.385 l -3.157,-5.256 c -0.597,-0.994 2.349,-1.891 6.206,-1.891 h 29.36 c 3.857,0 6.803,0.897 6.206,1.891 l -3.157,5.256 c -0.479,0.797 -3.112,1.385 -6.206,1.385"
       style="fill:#2b2d2d;fill-opacity:1;fill-rule:nonzero;stroke:none"
       id="path1033"
       inkscape:connector-curvature="0" /><path
       d="m 538.914,127.711 h -33.556 c -1.202,0 -2.175,-0.975 -2.175,-2.176 0,-1.202 0.973,-2.176 2.175,-2.176 h 33.556 c 1.201,0 2.176,0.974 2.176,2.176 0,1.201 -0.975,2.176 -2.176,2.176"
       style="fill:#2b2d2d;fill-opacity:1;fill-rule:nonzero;stroke:none"
       id="path1035"
       inkscape:connector-curvature="0" /><path
       d="m 525.493,159.72 -6.714,-23.447 v 56.271 h 6.714 z"
       style="fill:#2b2d2d;fill-opacity:1;fill-rule:nonzero;stroke:none"
       id="path1037"
       inkscape:connector-curvature="0" /><path
       d="m 526.597,265.597 -3.153,3.47 16.807,15.266 c 0.129,4.05 0.199,8.155 0.199,12.311 0,7.641 -0.242,15.106 -0.655,22.36 l -14.506,-13.175 -3.153,3.471 17.276,15.691 c -0.564,7.904 -1.329,15.509 -2.229,22.74 l -11.894,-10.803 -3.153,3.471 14.306,12.995 c -5.388,39.233 -14.306,66.029 -14.306,66.029 0,0 -3.317,-9.977 -7.126,-26.633 l 6.611,-11.394 -4.057,-2.354 -4.046,6.975 c -4.751,-22.391 -9.697,-54.137 -9.697,-89.373 0,-67.809 18.315,-122.779 18.315,-122.779 0,0 15.009,45.051 17.851,103.894 z"
       style="fill:#2b2d2d;fill-opacity:1;fill-rule:nonzero;stroke:none"
       id="path1039"
       inkscape:connector-curvature="0" /></g></svg>