<svg xmlns="http://www.w3.org/2000/svg" width="83.461441mm" height="158.47591mm" viewBox="0 0 83.461441 158.47591">
  <path fill="#d49846" d="M39.52514 157.937253c-.46366-.28271-.95893-.73062-1.10061-.99536-.33101-.61849-.48943-5.2161-.22144-6.42614.18632-.84123.13911-.95608-.51544-1.254-.92663-.42176-1.04255-.28103-.47811.58042.36674.55971.39776.8221.15911 1.34587-.45998 1.00955-1.89529.79136-1.89529-.28811 0-.82311-.45479-1.06267-1.02969-.54239-.66968.60605-1.27397.52259-1.77721-.24545-.41001-.62575-.40779-.70144.0349-1.19062.26001-.28731.63992-.52239.84423-.52239.20432 0 .30481-.10788.22332-.23974-.26572-.42994-1.20335.0213-1.66377.80078-.5415.91669-1.632 1.0541-1.8468.23271-.10857-.4152-.36089-.52917-1.17152-.52917-.85202 0-1.08731-.11887-1.3421-.67808-.1863-.40887-.59885-.73606-1.03914-.82412-.4016-.0803-.92605-.36246-1.16544-.62699-.23939-.26452-.58359-.42403-.76489-.35446-.45236.17358-1.03877-.59079-.84354-1.09955.11294-.29432-.0762-.49701-.65075-.69729-.4462-.15554-.91739-.56486-1.04912-.91135-.13664-.35938-.45585-.62899-.74471-.62899-.31934 0-.67024-.34701-.95259-.94202-.24586-.51811-.61085-1.00489-.8111-1.08173-.20024-.0768-.49814-.5459-.66198-1.04236-.16385-.49645-.39922-.90264-.52307-.90264-.42364 0-1.05671-.83102-1.05671-1.38713 0-.30557-.19348-.76937-.42995-1.03066-.23647-.2613-.42994-.7853-.42994-1.16444 0-.47039-.18814-.76088-.5923-.91454-.65489-.24899-.98783-.86304-.77238-1.4245.0771-.20093-.1735-.61168-.55749-.91372-.93343-.73424-.82442-1.72954.20237-1.84769.40019-.046.73646.0135.74727.13229.0521.57182.26923 1.51914.37178 1.6217.0632.0632.30966.0402.54769-.0512.37911-.14548.3413-.32179-.30494-1.42175-1.03968-1.76962-2.36122-4.5227-2.83397-5.90386-.22076-.64496-.58929-1.52983-.81896-1.9664-.22967-.43656-.41832-1.07262-.41922-1.41347-.00089-.34085-.23975-.92246-.53079-1.29245-.29104-.37-.52917-.81682-.52917-.99292 0-.47775-.97447-1.28111-1.17008-.96461-.0904.14619.16205.56839.56088.93821.57034.52885.65629.74128.4026.99497-.47897.47897-.39151 1.10472.2066 1.47825.33959.21207.52917.61701.52917 1.13028 0 .48595.16457.86296.41939.96075.31833.12215.37911.37561.25224 1.05188-.14843.79121-.0884.92088.53601 1.15829.58953.22414.68443.39486.58733 1.05648-.0723.49273.00063.78914.19422.78914.36334 0 1.18581.85106 1.18581 1.22703 0 .14263-.15197.46716-.33771.72117-.49374.67523-1.20553.27661-1.40503-.78685-.0933-.49732-.30787-.99184-.47682-1.09893-.35849-.22724-1.74919-2.87628-1.74919-3.33191 0-.17062-.23813-.75451-.52917-1.29753-.29104-.54303-.52917-1.16021-.52917-1.37152 0-.21131-.29765-.70538-.66145-1.09793-.36381-.39254-.66146-.98697-.66146-1.32093 0-.33396-.11219-.67654-.2493-.76128-.13711-.0847-.33011-.69298-.42888-1.35164-.0988-.65866-.34378-1.36176-.54445-1.56244-.20068-.20067-.36487-.56295-.36487-.80505 0-.2421-.23874-.74369-.53052-1.11463-.29179-.37095-.53421-.98504-.53872-1.36465-.0385-3.24578-.12914-3.86526-.56573-3.86858-.58914-.004-.64462-.0874-.86212-1.28886-.15096-.83392-.11433-1.00013.1943-.8817.3119.11969.32771.0344.0879-.47377-.20186-.42775-.38745-.54087-.59914-.36518-.2243.18614-.35838-.1908-.49907-1.40301-.10581-.91165-.3617-2.13649-.56865-2.72186-.20694-.58538-.42951-1.9573-.49459-3.04871-.16851-2.82583-.2599-3.3398-.71824-4.03931-.26831-.40951-.32699-.765-.17198-1.04199.15073-.26934.0934-.75993-.15948-1.36523-.45053-1.07825-.5231-2.13067-.13019-1.88784.14552.0899.26459.41446.26459.72117s.0713.4863.15856.39909c.27737-.27738-.18486-2.32586-.48321-2.14147-.18688.1155-.21697-.15237-.092-.81867.12713-.67766.0963-.93505-.0975-.81523-.43023.26589-.52298-.24472-.67119-3.69489-.075-1.74625-.22595-4.53253-.33542-6.19172-.1407-2.13264-.11035-3.13791.10355-3.43025.18962-.25916.21942-.63226.0798-.99941-.24535-.64534.16635-5.4655.53912-6.31196.36349-.82538.46859-2.22655.17436-2.32463-.16711-.0557-.0983-.77768.1854-1.94487.24814-1.02095.46803-2.30497.48865-2.85339.0223-.59267.19102-1.05605.416-1.14238.25391-.0974.33134-.38117.2352-.86188-.16986-.8493.26688-4.20182.60063-4.61054.1281-.15687.29437-.91593.36949-1.6868.0751-.77086.27961-1.5739.45442-1.78453.1748-.21062.25531-.62199.17891-.91415-.086-.32898.028-.62862.2995-.78711.24628-.14376.29637-.25944.1143-.26396-.36945-.009-.21222-1.23.32475-2.52159.1815-.43656.54232-1.69636.80184-2.79955.35536-1.51062.60848-2.06583 1.02531-2.24896.38068-.16725.57874-.53225.63442-1.1692.0445-.50932.26785-1.06917.49628-1.24411.26924-.2062.36793-.56603.28058-1.023-.092-.48098.0301-.86972.38407-1.22373.28535-.28535.44933-.6999.36441-.92122-.087-.22663.13864-.75066.51654-1.19977.52141-.61967.60359-.87853.36874-1.16152-.23375-.28165-.20211-.40255.13967-.5337.24303-.0933.37924-.3328.30268-.5323-.0914-.23814.0624-.3675.44782-.37661l.587-.0139-.57882-.40432c-.59345-.41454-.56234-1.15542.0485-1.15542.18652 0 .41514-.40522.50805-.9005.0929-.49527.35184-.97068.57539-1.05646.22354-.0858.33234-.27587.24177-.42242-.0968-.1567.1687-.26645.64469-.26645.74606 0 .80936.0713.80936.91103 0 .63741-.17401 1.03292-.57935 1.31684-.31864.22318-.49682.48832-.39594.58919.10087.10087-.0162.48807-.26022.86045-.24399.37237-.51693 1.03551-.60654 1.47364-.0896.43814-.41482.9222-.72271 1.07569-.44116.21995-.50367.37936-.29497.75228.20028.3579.13804.6129-.25545 1.04651-.29904.32953-.51613.93753-.51053 1.4298.005.47107-.1887 1.07576-.43123 1.34376-.24254.26799-.44098.72972-.44098 1.02606 0 .29634-.24586.85136-.54636 1.23338-.30049.38203-.47358.81234-.38464.95626.0889.14392.0142.53202-.16606.86245-.30943.56712-.59533 1.89359-.92786 4.30495-.27383 1.9857.41949.60653 1.11818-2.22435.36881-1.49427.96183-3.35362 1.31782-4.1319.35599-.77828.64799-1.63104.64889-1.89503.0009-.26399.17504-.81244.38699-1.21878.21195-.40634.87248-1.95415 1.46783-3.43958.59536-1.48543 1.28113-2.99844 1.52393-3.36224.24281-.3638.40935-.76767.3701-.89748-.0392-.12981.2202-.84419.57656-1.5875.35636-.74331.79833-1.7682.98215-2.27752.18381-.50932.47395-1.10463.64473-1.32292.17079-.21828.85047-1.4089 1.5104-2.64583 1.65985-3.1111 2.33649-4.31006 2.65044-4.69635.19143-.235555.16047-.330733-.10757-.330733-.50559 0-1.01136.535213-1.01136 1.070243 0 .23938-.23137.64464-.51417.90056-.28279.25593-.59013.81115-.68296 1.23383-.0928.42269-.39724.89078-.67646 1.04021-.27921.14943-.51031.53539-.51354.8577-.003.3223-.23871.88366-.52328 1.24746-.28458.3638-.52005.80164-.52329.97298-.003.17134-.31352.55352-.68952.84928s-.61788.64414-.53751.77418c.16917.27372-.3955 1.90148-.65963 1.90148-.0975 0-.44697-.2184-.77661-.48532-.56816-.46007-.57797-.52545-.18871-1.25677.22584-.4243.56094-1.27747.74467-1.89594.18372-.61846.41917-1.12448.5232-1.12448.10404 0 .26087-.3585.3485-.79667.10036-.50177.40642-.90926.82682-1.1008.36712-.16727.66749-.52314.66749-.79083 0-.26768.24844-.73514.5521-1.03879.37568-.37568.50309-.74732.39875-1.16304-.10077-.40153-.0208-.6618.2333-.75931.21265-.0816.57006-.58737.79425-1.123933.22419-.536562.7042-1.250432 1.06669-1.586378.36249-.335947.65908-.785379.65908-.998741 0-.213361.39091-.629526.86869-.924811s.8852-.756025.90538-1.023867c.048-.637364 1.89517-2.609761 2.6577-2.837886.32742-.09795.59531-.280695.59531-.406089 0-.399746 2.76075-2.899706 3.20875-2.905644.23684-.0031.57884-.184301.76-.402583.18116-.218281.52316-.400915.76-.405852.23685-.0049.90688-.239023 1.48896-.520189 1.16761-.563995 2.24896-.683705 2.24896-.248969 0 .154109.11906.206614.26458.116677.14552-.08994.26459-.381881.26459-.648766 0-.550169.50001-.806443 1.57345-.806443.40504 0 1.03466-.23459 1.39917-.521312.59023-.46427 1.06458-.51922 4.33516-.502191 2.01983.01052 3.99995.140534 4.40026.288927.50513.187247.83264.182833 1.07032-.01442.2532-.210136.84099-.0461 2.25475.62926 1.05174.502421 2.06694.913492 2.25598.913492.71009 0 2.98173.902755 3.77025 1.498306.4503.340098.99509.61836 1.21065.61836.21556 0 .67156.297657 1.01334.661459.34177.363802.77719.661458.96759.661458.19039 0 .71827.327422 1.17304.727604.45478.400183 1.20097 1.051563 1.65822 1.447512 1.46539 1.268947 1.80603 1.648191 2.05356 2.286281.17282.445484.39044.586235.75784.490156.28347-.07413.4968-.0577.47405.03652-.12532.519068.43589 1.932342.85678 2.157596.26936.144156.57211.530119.67278.857696.10068.327576.4064.80859.67938 1.068921.27299.26033.49634.812183.49634 1.226339 0 .51634.2133.89278.67866 1.19769.56145.36788.64922.57878.50815 1.22106-.13036.59353-.0756.77638.23237.77638.22159 0 .58212.25587.80117.56861.34879.49796.35096.66011.0175 1.30494-.37048.71643-.36312.73313.27212.61794.52781-.0957.68583.0128.8248.56651.0975.38858.0429.81389-.12623.98304-.43754.43754-.36422.72146.18633.72146.5762 0 1.23991 1.11377 1.01421 1.70194-.26083.67971-1.37121.50804-1.72414-.26656-.17073-.37471-.23225-.80777-.13671-.96235.0955-.15458-.0964-.48482-.42659-.73386-.35641-.26885-.60029-.73483-.60029-1.14699 0-.42465-.17703-.75037-.45594-.8389-.45259-.14365-1.0654-1.18357-1.0654-1.80797 0-.1791-.23813-.52952-.52917-.77872-.29104-.24919-.52916-.73345-.52916-1.07612 0-.34268-.23813-.83854-.52917-1.10193-.29104-.26339-.52917-.65308-.52917-.86598 0-.212894-.32742-.779944-.7276-1.260108-.40018-.480165-1.11008-1.388851-1.57754-2.019304-.46747-.630454-1.12231-1.45569-1.45521-1.83386-.3329-.378169-.985-1.118229-1.44912-1.644577-.46412-.526349-1.15709-1.035616-1.53994-1.131704-.38285-.09609-.83543-.397826-1.00573-.670527-.17031-.2727-.44701-.495819-.6149-.495819-.16788 0-.68686-.356485-1.15328-.792188-.59876-.559321-1.01871-.749354-1.42863-.646472-.38541.09673-.74612-.03721-1.07303-.398437-.27084-.299284-.6739-.544153-.89568-.544153-.55584 0-2.0672-.493528-3.44721-1.125672-.93423-.427947-1.1958-.461656-1.37185-.176794-.17373.281093-.34087.287837-.83005.03349-.52777-.274414-1.6543-.385977-3.45679-.342335-.25466.0062-.67138.0012-.92604-.01112-.25466-.01228-1.1774.06751-2.05052.177321-.87313.10981-1.94469.222873-2.38125.251253-.43657.02838-1.12892.189544-1.53858.358145-.40965.1686-1.098.306546-1.52965.306546-.46331 0-.84902.167267-.94151.408286-.22823.594751.11964.810839.71089.441594.28245-.176391.80579-.320712 1.16298-.320712.35718 0 .7154-.106737.79602-.237194.37386-.604917 7.55756-1.133703 7.55756-.556306 0 .182745.319.228466.87122.124869 2.09828-.39364 8.17249 1.545948 11.82878 3.777106 3.37749 2.061035 7.40902 7.230199 10.1632 13.031112.51818 1.0914 1.05834 2.16297 1.20035 2.38125 1.6131 2.47938 6.44574 13.99981 7.29162 17.38233.24757.98998.56469 2.01534.70472 2.27858.14002.26324.55335 1.57293.91851 2.91042.36516 1.33749.8436 3.08664 1.06321 3.887.2196.80037.51999 2.16959.66753 3.04271.14754.87313.31302 1.63414.36773 1.69113.0547.057.31081-.1388.56912-.4351.5888-.67543 1.81381-.98344 2.10551-.52939.1172.18243.24089.86748.27486 1.52232.11661 2.24767.39021 3.68252.76086 3.99014.42998.35685.49228 1.19541.10653 1.43382-.39527.24429-.31925 1.08046.13229 1.45521.44446.36887.54637 1.85208.12725 1.85208-.31841 0-.036 1.37475.33213 1.61657.13777.0905.16478.70043.0615 1.38906-.11211.74765-.0831 1.22771.0741 1.22771.29068 0 .30496 3.81884.0154 4.10819-.10086.10077.0454.6101.32504 1.13183.42719.79704.45225 1.01433.15691 1.36002-.28725.3362-.29263.75002-.0294 2.2635.17718 1.01864.24862 1.97114.15877 2.11667-.0898.14552-.18849.80036-.2192 1.4552-.0695 1.48241-.0753 2.00959-.0608 5.57207.004.86235-.14146 1.33891-.50828 1.67088-.31828.28804-.57664.36179-.68023.19418-.18971-.30694-.94385-.0959-.94385.2641 0 .12995.34428.23627.76507.23627.5991 0 .80175.14614.93414.67363.093.37049.0774.81698-.0347.99219-.11206.17521-.26453.9734-.33883 1.77377-.10495 1.13069-.23416 1.45596-.57942 1.45858-.24439.002-.53212.0911-.63941.19844-.10728.10728.006.19506.25246.19506.24614 0 .56733.31513.71377.70029.22016.57906.17128.78876-.28237 1.2114-.35479.33054-.49161.69072-.38726 1.0195.24251.76408-.10887 1.56673-.68588 1.56673-.33495 0-.51134.18254-.51134.52916 0 .29105.17157.52917.38126.52917.2097 0 .45929.12625.55465.28055.19688.31855-.36249 1.83612-.67678 1.83612-.23251 0-.53573 2.01927-.52289 3.48217.005.57734-.17758 1.15471-.45214 1.42926-.27961.27962-.429.76219-.38014 1.22799.0443.42204-.10773 1.0546-.33778 1.40569-.23004.3511-.41826 1.04468-.41826 1.54131 0 .49662-.17354 1.04698-.38565 1.22301-.24212.20094-.33303.58309-.24428 1.02684.0973.48628-.0301.90445-.40811 1.34033-.32059.36965-.54946 1.0024-.54946 1.51909 0 .51076-.13998.90246-.33073.9255-1.35129.16318-1.66988.06-2.0279-.6568-.45276-.90652-.57844-.73839-1.37442 1.8387-.30361.98297-1.02479 2.78232-1.60262 3.99857-1.13937 2.39817-1.20801 2.9556-.28427 2.30858.42417-.2971.55243-.58646.44669-1.00777-.0942-.37549.0501-.84324.3958-1.28274.29926-.38046.54412-.95183.54412-1.26973 0-.3179.23679-.87902.52619-1.24695.32733-.41613.4709-.8893.37987-1.25199-.22646-.90228.47999-1.35287 1.47495-.94074.89616.3712.96432.67134.39874 1.75579-.21738.41682-.39598 1.06682-.39687 1.44444-.0008.37763-.23976.9021-.5308 1.16549-.32479.29394-.52917.81491-.52917 1.34892 0 .58333-.18271.99801-.55446 1.25839-.39468.27645-.50389.54768-.37898.94123.11414.35964-.0157.82138-.37158 1.32113-.30089.42255-.54971.92848-.55294 1.1243-.003.19582-.23872.65369-.52329 1.01749-.28457.3638-.52004.87764-.52328 1.14187-.007.55043-.45459 1.4613-.97371 1.98042-.1953.1953-.35509.51189-.35509.70354 0 1.03401-4.63124 8.96486-6.26361 10.72625-.33716.36381-1.14626 1.24424-1.79799 1.95653-.65174.71229-1.40917 1.42667-1.68317 1.5875-.4726.27742-2.20368 1.52851-3.35211 2.42265-.36165.28157-.80961.36024-1.4151.24849-.58404-.10778-.82782-.0694-.71537.11249.2685.43445-.34845 1.34526-.91124 1.34526-.28025 0-.74375.25139-1.03.55864-.50453.54155-1.58112.77092-4.04161.86105-.53326.0195-1.05912.12482-1.16857.23396-.10946.10914-.5393.19843-.95521.19843-.56828 0-.82033-.16865-1.01424-.67868-.14192-.37327-.25803-.83041-.25803-1.01586 0-.51351 1.13711-.94401 1.68444-.63772.45955.25718 1.22598-.11411 1.22598-.59391 0-.24569-1.55785-.0655-2.86241.33103-.65917.20037-.83623.37571-.71035.70342.15074.39239.45069 3.00283.46058 4.00839.0179 1.82022-.17842 3.8952-.39429 4.16719-.44186.55671-3.87412.42634-4.87717-.18527zm1.76905-3.4748c0-.6448-.61827-.55366-.747.11012-.0506.26108.0843.44109.33073.44109.24543 0 .41627-.22621.41627-.55121zm1.51585-.66697c-.0879-.0879-.31613-.0973-.50712-.0209-.21107.0845-.14838.14716.15985.15985.27891.0115.43518-.051.34727-.13896zm-1.25126-1.82452c0-.21829-.1786-.39688-.39688-.39688-.41316 0-.52492.31292-.22048.61736.30443.30444.61736.19268.61736-.22048zm2.11666.13229c0-.14552-.0525-.26459-.11667-.26459-.0642 0-.19027.11907-.2802.26459-.0899.14552-.0374.26458.11667.26458.15411 0 .2802-.11906.2802-.26458zm-3.78801-1.10795c-.0845-.21106-.14715-.14837-.15985.15986-.0115.27891.051.43518.13897.34726.0879-.0879.0973-.31612.0209-.50712zm3.69671-.0713c-.0862-.22455-.35746-.40828-.60286-.40828-.40717 0-.40418.0464.0342.53079.52643.58169.81506.51951.56869-.12251zm-7.33908-1.82627c-.31603-.27253-1.56545-.41185-1.56545-.17455 0 .14829.37703.26962.83785.26962.46081 0 .78823-.0428.7276-.0951zm13.81413-.61593c.31966-.39297.30511-.42464-.12153-.26458-.26657.10001-.59399.18183-.72761.18183-.13361 0-.24294.11906-.24294.26458 0 .42198.69507.30625 1.09208-.18183zm2.03565-.74421c.53646-.682 1.21542-.86134 1.50248-.39687.27601.4466.62024.29471.7092-.31292.0537-.36655.34386-.64641.79446-.76614.58368-.15509 3.52668-2.39244 4.92762-3.74612.91332-.8825 3.49059-4.23271 3.49059-4.53744 0-.18972.23813-.56045.52917-.82384.56446-.51083.68943-.92604.27873-.92604-.13775 0-.69576.68461-1.24003 1.52135-2.13071 3.27567-7.55606 7.9326-10.68037 9.16765-1.57456.62243-1.99278.96488-1.53387 1.25599.52078.33036.65797.28145 1.22202-.43562zm-21.00564-.36689c.17284-.27965-.58552-.96933-.8143-.74056-.22045.22046.0984.97516.41204.97516.1415 0 .32252-.10557.40226-.2346zm-1.96584-1.31043c0-.29093-1.22455-.84639-1.4247-.64624-.19177.19176.64367.84848 1.09397.85994.1819.005.33073-.0915.33073-.2137zm-2.1724-1.40028c-.0549-.16471-.60207-.6633-1.21594-1.10798-.83101-.60198-1.19264-.73198-1.4157-.50892-.22306.22306-.12441.34355.38622.47171.37719.0947.8734.45845 1.1027.8084.41592.63477 1.33206.90479 1.14272.33679zm-3.01161-2.67709c-.33386-.58686-.97724-1.25677-1.207-1.25677-.44826 0-.20813.77456.36446 1.17563.70863.49634 1.1002.53406.84254.0811zm-3.03334-3.47218c-.31139-.52777-.68339-.95959-.82667-.95959-.31787 0-.26254.13209.57735 1.37843.82224 1.22014 1.02016.88764.24932-.41884zm-1.57224-2.54709c0-.14552-.17859-.26458-.39687-.26458s-.39688.11906-.39688.26458c0 .14552.1786.26459.39688.26459s.39687-.11907.39687-.26459zm46.3114-1.20183c.2633-.31727.26806-.47872.0214-.7254-.24668-.24668-.37283-.22946-.56682.0774-.56683.89658-.11065 1.43858.54544.64804zm-47.79405-.80642c.17994-.46893-.005-.90216-.38504-.90216-.13694 0-.24897.29765-.24897.66145 0 .74013.38611.88672.63401.24071zm49.16792-2.27065c-.39278-.39278-.49833-.29081-.73233.70757l-.18592.79321.61714-.59237c.47841-.45921.5461-.66342.30111-.90841zm-35.02977-.75223c.88239-.008 1.11167-.36553.84065-1.31051-.20551-.71658-.15872-1.05002.23942-1.70627.27217-.44859.58099-1.22216.68626-1.71904.10528-.49687.47531-1.43734.8223-2.08992.34698-.65259.63088-1.33281.63088-1.51159 0-.17879.18422-.47797.40939-.66485.55618-.46158.0461-.77393-1.27273-.7793-.91778-.004-1.03477.0839-1.49625 1.12043-.80098 1.79909-1.80889 4.68362-2.31617 6.6286-.41057 1.57418-.42057 1.83105-.0797 2.04774.21438.13628.54836.1895.74216.11827.1938-.0712.55099-.13133.79375-.13356zm-4.01461-.19909c.16859-.10727.50646-.96865.75083-1.91418.24437-.94552.86324-3.00624 1.37526-4.57937.51203-1.57313.86427-2.92693.78275-3.00844-.0815-.0815-.68948-.067-1.35104.0322-.88391.13256-1.20285.29941-1.20285.6293 0 .2469-.29766 1.00806-.66146 1.69146-.3638.6834-.66146 1.45963-.66146 1.72496 0 .26533-.16797.72223-.37328 1.01534-.30871.44075-.94964 3.05623-.94964 3.87527 0 .49457 1.72188.89556 2.29089.53349zm39.89516-.3849c.46424-.6628.54767-1.52863.14729-1.52863-.14552 0-.26458.22355-.26458.49677 0 .27323-.1786.64499-.39688.82615-.21828.18116-.39687.43386-.39687.56156 0 .43032.49611.23654.91104-.35585zm2.1746-1.59477c-.0734-.1819-.13345-.0331-.13345.33073 0 .3638.06.51263.13345.33073.0734-.18191.0734-.47956 0-.66146zm-1.06391-.59488c.21804-.21804.35496-.66452.30426-.99218-.0857-.55414-.12399-.5366-.54763.251-.65384 1.21561-.54934 1.53389.24337.74118zm-51.6271-3.32601c.0937-.42651.25394-.77547.35612-.77547.10219 0 .35023-.55688.5512-1.23751.43364-1.46865 1.85994-3.13989 3.13404-3.67224.54789-.22893 1.88149-.39248 3.32913-.40829 3.20082-.035 3.63778-.18043 4.21755-1.4041.61923-1.30695.44322-1.69648-.86077-1.905-1.50661-.24092-1.83223-.56952-2.28589-2.30677-.32363-1.23932-.35016-1.9917-.1374-3.89728.48211-4.31818 1.22093-5.01256 5.33339-5.01256 2.42361 0 2.64722-.0443 3.00734-.59531.55476-.84888.50148-3.30956-.0784-3.61989-.24443-.13082-.61994-.14211-.83446-.0251-.54155.2954-3.63518.6641-4.75567.56679-1.66137-.14429-2.47253-1.48976-1.25677-2.0846.32742-.1602 1.35202-.41471 2.27688-.56558.92486-.15086 2.05596-.51415 2.51354-.80731 1.37369-.88007.0451-.68199-2.11936.31598-.31354.14456-.6858.19132-.82724.10391-.14144-.0874-.85601.0189-1.58792.23626-1.58961.47206-2.55403.21276-3.02107-.81228-.28059-.61583-.23464-.74579.46627-1.31871.42765-.34955 1.0752-.64159 1.439-.64897.36381-.007.95912-.18707 1.32292-.39931.3638-.21225 1.04607-.5683 1.51616-.79123 1.36845-.64898 1.75244-1.46377 1.53017-3.24692-.20247-1.62435-.41624-1.90542-1.45883-1.91809-1.17055-.0142-2.73695-.71493-3.49516-1.56351-.80637-.90248-.93647-1.7684-.38002-2.52938.34677-.47425.39562-.47165 1.53874.0817 1.3837.66982 2.07186.72783 2.07186.17463 0-.21829-.17441-.39688-.38757-.39688-.21316 0-.51501-.23812-.67077-.52917-.15576-.29104-.51294-.52916-.79375-.52916-.88374 0-1.57298-2.20271-.95407-3.04912.39479-.5399 1.74782-.35909 1.74782.23356 0 .32982 1.05226.96347 1.59995.96347.38959 0 .29784-.79282-.10984-.94926-.51601-.19801-2.01927-2.5961-2.01927-3.22125 0-1.04112 1.03849-2.93351 1.65815-3.02157.65118-.0925.6697-.286.31594-3.3015-.2671-2.27684-.0663-2.82745 1.32908-3.64522.66907-.3921 1.25458-.95643 1.33826-1.28985.0818-.32602.013-1.72068-.15282-3.09924-.59329-4.93067-.59624-5.02612-.17043-5.49895.67328-.74764.57438-6.12511-.12055-6.5546-.32262-.19939-.28457-1.98817.0635-2.98675.25201-.72291.91075-1.35681 1.40998-1.35681.0823 0 .14969.28792.14969.63982 0 .80295.25098 1.47685.55002 1.47685.23528 0 .17723-1.15216-.15529-3.08172-.21414-1.24264.24553-3.0037.78402-3.0037.81333 0 .97094-.70117.45991-2.04609-.92907-2.44509-.31178-5.83144 1.11407-6.1117.74924-.14726 1.25922.47963 1.07447 1.32078-.1216.55364-.0649.75159.21513.75159.39152 0 .72017-1.9912.72017-4.36341 0-.85453.25362-1.50177 1.09931-2.80546.60463-.93207 1.54011-2.94482 2.07885-4.47279 1.44109-4.08717 1.67463-4.55466 2.74476-5.49424 1.03401-.90788 2.27916-1.15272 2.27916-.44817 0 .22417-.25943.75849-.57652 1.18737-.31708.42888-.49369.8626-.39246.96383.29492.29493.58639-.14487 2.04647-3.08796 1.07206-2.16094 1.79613-3.211564 3.25924-4.729157 1.03454-1.073067 2.12315-2.213615 2.41913-2.534549.29598-.320935.73113-.693127.967-.827093.23587-.133967.46996-.48039.52019-.769829.0744-.42874-.3254-.727898-2.15763-1.614473-2.74264-1.3271-3.84601-1.695593-5.63383-1.881519-.75769-.0788-1.58154-.249634-1.83077-.379635-.51606-.269189-7.03598.159626-8.27811.544451-1.52811.473428-3.54583 1.290486-4.97941 2.016373-1.93081.97766-5.88846 4.206263-7.14341 5.827508-3.31961 4.288543-4.26209 5.626083-4.72453 6.704903-.28391.66236-.61232 1.2662-.72979 1.34188-.24505.15787-1.58368 3.27724-1.794 4.18052-.0773.33183-.35647.71892-.62045.8602-.57839.30954-2.10112 3.21833-2.10112 4.01365 0 .31161-.1623.75453-.36066.98427-.19837.22974-.56815 1.01302-.82174 1.74063-.25359.7276-.56011 1.56104-.68115 1.85208-1.31282 3.15656-2.27286 5.99954-3.13697 9.28949-.56912 2.16682-1.15602 4.23733-1.30423 4.60113-.14821.36381-.47589 1.97115-.72817 3.57188-.25229 1.60073-.58245 3.14854-.73371 3.43958-.15125.29105-.29901 1.20559-.32835 2.03231-.0294.82673-.11033 1.60064-.17996 1.7198-.12499.21389-.44245 2.79673-.62825 5.11144-.14544 1.81183-.32602 3.70702-.47902 5.02708-.17644 1.52243-.17735 9.81193-.001 11.37708.0737.65485.18752 2.0836.25296 3.175.19078 3.18152.37857 4.83035.66275 5.81909.14612.50836.26695 1.52039.26853 2.24896.002.72856.17328 1.88625.38157 2.57263.20828.68638.50566 2.16074.66082 3.27635.15517 1.11562.56321 2.99481.90676 4.176.34355 1.18118.83307 3.1001 1.08783 4.26427.60338 2.75726 3.1765 10.55201 4.36708 13.22916 2.50085 5.62346 2.78945 6.11948 3.30939 5.68797.19919-.16531.43881-.64953.53249-1.07604zm53.17547-.24913c-.22895-.37045-.6488.13362-.65564.78716-.003.32303.0671.31626.42413-.0408.23591-.2359.33987-.57108.23151-.7464zm-2.58963-.46016c.44275-.69123 1.06794-2.03068 1.38929-2.97656.61164-1.80034 1.19873-3.27473 1.5937-4.00233.12852-.23674.30991-.89159.4031-1.45521.0932-.56361.27507-1.26288.40418-1.55392.83808-1.88925 1.57926-4.01702 1.57926-4.53374 0-.33333.22392-1.176.4976-1.87261.482-1.22686 1.21187-4.24895 1.61583-6.69053.10835-.65484.39864-1.905.6451-2.77812.24645-.87313.60712-2.83766.80148-4.36563.19436-1.52797.59844-4.32594.89796-6.21771.30628-1.93447.59032-5.23414.64911-7.54062.0976-3.83008-.20204-12.89854-.48523-14.68438-.0692-.43656-.29841-2.32151-.50928-4.18878-.21088-1.86728-.55239-4.0104-.75891-4.76251-.20652-.7521-.52286-2.26043-.70298-3.35183-.98854-5.98993-2.44273-11.44925-3.75008-14.07853-.26846-.5399-.4881-1.17016-.4881-1.40056 0-.23041-.60905-1.9318-1.35344-3.78086-.74439-1.84906-1.47212-3.77865-1.61718-4.28797-.14505-.50932-.56646-1.46182-.93645-2.11667-.37-.65484-1.5343-2.8575-2.58734-4.89479-2.20742-4.27063-3.22699-5.98484-4.8784-8.202084l-1.18238-1.587501-.16511 1.004897c-.15548.946222-.92804 1.996028-2.58789 3.516558-.70786.64845-.36626 1.11221.44571.60513 1.45789-.91047 1.85222.94114.54862 2.5761l-.82011 1.02857.68781.0837c1.06675.12984 1.01027 1.02149-.22931 3.62044-1.03645 2.17307-1.76206 4.23021-1.81985 5.15938-.0353.56771.0714.66146.75261.66146 1.76395 0 .95144 2.38146-1.44048 4.222-.85624.65885-1.59678 1.30449-1.64565 1.43475-.0489.13027-.71395.91168-1.47793 1.73647-1.344 1.45096-1.65737 1.99948-1.14231 1.99948.13571 0 .32044-.23217.4105-.51594.0901-.28377.7827-1.0218 1.53919-1.64008.75649-.61827 2.11959-1.82477 3.02912-2.68109.90953-.85632 1.79601-1.50952 1.96995-1.45153 1.07254.35751.53396 2.91802-1.02604 4.87797-.90741 1.14004-1.09045 1.88596-.58646 2.38994.67547.67547-.10431 2.18459-2.34187 4.53228-1.18286 1.24108-1.43741 1.81765-.66146 1.4982.25466-.10484.70115-.25343.99219-.3302.29104-.0768.70776-.29065.92604-.47527.39835-.33693.90009-.47317 1.52758-.41479.35009.0326.31869 1.51526-.0445 2.10296-.31279.5061-3.49542 2.68205-4.36756 2.98608-.89547.31216-1.05602.68905-.40065.94054 1.14928.44102.65438 2.47509-1.11337 4.57594-.52092.61907-.60241.8335-.29088.76532.49041-.10731 3.36648-3.61412 3.36648-4.10476 0-.17595.24666-.39819.54813-.49388.65538-.208 1.56854.5142 1.56854 1.24054 0 .56363-1.00385 2.80163-1.35364 3.01781-.41136.25423-.25157.98638.35655 1.6337.80948.86165.7458 2.33208-.15864 3.66308-.5318.78261-.69635 1.35045-.69635 2.40295 0 .75799-.11907 1.45176-.26459 1.54169-.14552.0899-.26458.4506-.26458.80146 0 .35086-.35719 1.34083-.79375 2.19992-.93265 1.83535-1.02319 2.68717-.28561 2.68717.3478 0 .56236.2468.67993.78211.22031 1.00307-1.43838 3.94243-3.16652 5.61138-1.29929 1.2548-1.52825 1.73325-.60124 1.2564.84863-.43652 2.05052-1.6046 2.05052-1.99284 0-.18114.3317-.56554.73709-.85421.4054-.28867.90177-.83256 1.10305-1.20864.59895-1.11915 1.70727-.83 2.10264.54856.19352.67477.0889 1.01979-.6765 2.23035-.54651.86441-.8548 1.64186-.7777 1.96126.0703.29104-.16219 1.12448-.51654 1.85209-.74688 1.53358-.80418 1.98437-.25225 1.98437.21829 0 .39688.11056.39688.24568 0 .13513.18459.43028.4102.65589.37055.37054.34497.5062-.26458 1.40323-.37114.54617-.67479 1.19938-.67479 1.45158 0 1.01745-1.49971 2.22592-3.49703 2.81792-1.05981.31412-2.14521.57075-2.41199.57029-.27226-.00053-.43542.14426-.37189.32989.13576.39668 1.28309.32468 3.65554-.22938 2.68391-.62681 3.34408-.70141 3.53098-.399.24159.3909-.49427 1.73131-1.2972 2.36289-.75126.59094-.84088.98434-.29505 1.29505.36132.20568.51744.66443.45341 1.33231-.0961 1.00217-4.20385 2.57771-5.95822 2.28528-.74303-.12385-.77654-.10111-.35698.2422.73541.60178.56992 1.45377-.39688 2.04324-1.00304.61156-2.12808.65542-4.21476.16431-.82653-.19453-1.61983-.28135-1.76288-.19294-.21793.13468-.41408 1.98986-.32973 3.11839.0174.23333 1.57763.31258 6.04279.30696 10.42284-.0131 9.59072-.0829 9.93672.83371.16478.43656.38333.79375.48566.79375.36544 0 .72293 1.76254.8991 4.43288.16049 2.43267.1212 2.83602-.38016 3.9026l-.55914 1.18952h-1.55783c-1.78574 0-1.99278.22868-1.44668 1.59786.62975 1.57892.73938 1.60656 6.30354 1.58965 2.43107-.007 2.7137.0466 3.65423.69842 1.42359.98654 2.12981 1.8974 3.24541 4.1858.53155 1.09034 1.05423 1.98244 1.16152 1.98244.10729 0 .55732-.56555 1.00008-1.25677zm-58.00597-8.56827c-.10017-.45606-.40467-1.31927-.67667-1.91823-.272-.59896-.49716-1.28858-.50036-1.5325-.003-.24391-.43156-1.67266-.95191-3.175-.52036-1.50234-1.04444-3.14824-1.16462-3.65757-.35779-1.51631-.80804-3.49632-1.07195-4.71403-.13614-.62819-.3162-1.25326-.40013-1.38906-.28839-.46663-.60383-.24633-.49889.34841.36 2.04027.46781 2.47741.67559 2.73938.12737.16059.22531.57731.21764.92604-.0231 1.04811.33351 3.1476.53457 3.1476.33533 0 .77 1.2551.62573 1.80679-.0773.29543.037.87296.25386 1.2834.59669 1.12923 1.19577 2.75467 1.39649 3.78898.0988.50932.2987 1.00179.44412 1.09438.14543.0926.26295.50931.26114.92605-.004.93201.11842 1.15457.63523 1.15457.31316 0 .36193-.18372.22016-.82921zm66.28591-1.17079c0-.20969-.11906-.38125-.26458-.38125-.14552 0-.26458.24515-.26458.54478 0 .29963.11906.47119.26458.38126.14552-.0899.26458-.33509.26458-.54479zm-.97088-1.78019c-.13093-.76667.21917-1.26302.92854-1.31646.67836-.0511.69462-.10971.17464-.62969-.43772-.43772-.53502-1.5654-.15532-1.80006.13286-.0821.32437-.63945.42559-1.23852.12901-.76362.33809-1.12951.69944-1.22401.35452-.0927.45883-.26847.33414-.56303-.42859-1.01249-.42322-1.65933.0178-2.14666.29817-.32948.40509-.73138.30289-1.13857-.0925-.3685.0008-.83897.22481-1.13514.42194-.55756.54303-2.49018.15604-2.49018-.13396 0-.31895.38696-.41108.8599-.61029 3.13267-1.01084 4.70105-2.38197 9.32656-.38823 1.30969-.79793 2.73844-.91045 3.175-.11252.43657-.29728 1.09141-.41058 1.45521l-.20601.66146.65575-.60519c.41978-.38742.61976-.81585.55576-1.19062zm-38.2607.46796c.52733-.36936.57331-.62704.56933-3.19095-.004-2.71325-.02-2.78691-.58094-2.70704-.48694.0693-.60339.30838-.74887 1.5373-.2483 2.0974-.25887 4.7625-.0189 4.7625.11314 0 .46386-.18081.77937-.40181zm-2.25839-2.11173c.0273-1.23693.0571-2.57638.0661-2.97657.0149-.65764-.0721-.7276-.90502-.7276-.86824 0-.93215.0612-1.10465 1.05833-.1007.58209-.11502 1.92154-.0318 2.97657l.15128 1.91823h1.77444zm-28.09545.13229c0-.14552-.12609-.26458-.28019-.26458-.15411 0-.20662.11906-.11668.26458.0899.14552.21603.26458.2802.26458.0642 0 .11667-.11906.11667-.26458zm-1.05833-3.29168c0-.0642-.11906-.19026-.26458-.2802-.14552-.0899-.26459-.0374-.26459.11668 0 .15411.11907.2802.26459.2802.14552 0 .26458-.0525.26458-.11668zm2.38125-1.5875c0-.0642-.11906-.19026-.26458-.2802-.14552-.0899-.26459-.0374-.26459.11668 0 .15411.11907.2802.26459.2802.14552 0 .26458-.0525.26458-.11668zm29.00952-10.79923c.0354-4.76568.14241-8.79107.23774-8.94532.0953-.15425-.0393-.51539-.29915-.80253-.39975-.44172-.42615-.65297-.1715-1.37239.16554-.46767.32422-2.16.35261-3.76073.0284-1.60073.12367-3.02948.21172-3.175.0881-.14552.17954-1.39568.2033-2.77812.0556-3.23462.24206-5.10138 1.07034-10.71563.0859-.58208.19507-1.71318.24265-2.51354.0476-.80037.21782-1.93146.37831-2.51354.16048-.58209.44694-2.18943.63656-3.57188.35618-2.59666.81533-4.76733 1.20329-5.68854.12257-.29104.22418-.93243.22582-1.42531.002-.49288.12952-1.02271.28421-1.1774.15469-.15469.28125-.54949.28125-.87734s.10666-.86959.23703-1.20386c.13036-.33427.35906-1.08401.50822-1.66609.14915-.58208.42004-1.59412.60197-2.24896.18193-.65484.30286-1.45117.26874-1.76961-.0341-.31845.13394-.87811.37348-1.2437.23954-.36559.4665-.93848.50436-1.27309.14692-1.29884 2.3192-7.9826 3.09527-9.52368.28617-.56825.38714-1.04285.24106-1.13313-.26868-.16605-1.06763 1.17631-1.06763 1.79379 0 .20384-.29766.93042-.66146 1.61464-.3638.68422-.66146 1.46883-.66146 1.74358 0 .27476-.11906.57314-.26458.66308-.14552.0899-.26458.44428-.26458.78742 0 .34315-.2339 1.16957-.51977 1.83647-.28587.66691-.46543 1.21256-.39902 1.21256.0664 0-.0436.44649-.24444.99219-.20085.5457-.56992 2.00422-.82014 3.24115-.25023 1.23692-.54737 2.54661-.66032 2.91041-.11295.36381-.35275 1.19724-.5329 1.85209-.18014.65484-.60536 2.08359-.94492 3.175-.33956 1.0914-.86245 3.35359-1.16198 5.02708-.29953 1.67349-.71489 3.99521-.92303 5.15938-.3383 1.89229-.77158 4.72664-1.45606 9.525-.12455.87312-.22295 1.76609-.21867 1.98437.004.21828-.12558 1.82563-.28859 3.57188-.55421 5.93719-.61592 7.93181-.59759 19.31458.0101 6.2574.0223 11.47511.0273 11.59492.005.11981.21126.17887.45856.13125.41063-.0791.45523-.8383.51405-8.75145zm-30.42179 5.29351c-.0734-.1819-.13345-.0331-.13345.33073 0 .3638.0601.51263.13345.33073.0734-.1819.0734-.47956 0-.66146zm35.92482-1.11606c-.28247-.21365-.62498-.39225-.76112-.39688-.13614-.005-.52309-.26729-.8599-.5837-.72793-.68386-.79958-1.82815-.14934-2.38518.52118-.44648 1.01025-.35092 2.63529.51489 1.1551.61543 2.45794.78977 2.45794.32891 0-.14552-.18021-.26458-.40047-.26458-.82716 0-1.96848-.86749-1.97673-1.50246-.009-.7191.81339-1.06677 2.90635-1.22817 2.19712-.16943 5.0271-.89362 5.0271-1.28644 0-.28788-.085-.2809-2.36162.19405-2.18432.4557-4.55791.30527-5.19225-.32906-.92475-.92476-.15869-1.93334 1.46845-1.93334.4557 0 1.0886-.14091 1.40646-.31314.31785-.17223 1.27869-.55918 2.13519-.8599 1.41578-.49707 1.62435-.67296 2.29554-1.93581.40605-.76399.6674-1.38907.58079-1.38907-.0866 0-.79038.35719-1.56393.79375-1.55153.87563-2.00499.96055-2.42526.45415-.35401-.42656-.1766-.68534 1.13715-1.65876.57882-.42887 1.32228-1.07742 1.65214-1.44122.63117-.69611 1.41459-2.9381 1.34058-3.83646-.024-.29104.28835-1.02925.69406-1.64047 1.38757-2.0904.33414-1.8622-1.26321.27365-.54686.73121-1.36974 1.30094-2.96042 2.04966-2.50409 1.17866-3.1519 1.26707-3.56932.48711-.43043-.80427-.19098-1.15779 1.51728-2.24002 1.78597-1.13145 3.34623-2.66123 4.39431-4.30847.76829-1.2075.79333-1.74999.0463-1.00296-.66592.66592-1.97807.46988-1.97807-.29552 0-.6406 1.30063-4.07238 1.92835-5.08805.62744-1.01522.67661-1.17665.88924-2.9193.0799-.65485.44241-1.95352.80558-2.88593.94863-2.43556.96804-2.75502.21056-3.46663-.83118-.78085-.82814-1.26146.0158-2.50508.93115-1.37212.63832-1.46174-.41806-.12796-.47611.60113-1.74895 1.67792-2.82853 2.39285-1.64845 1.09165-2.04841 1.25411-2.49677 1.01416-.83749-.44822-.44033-1.27358 1.62419-3.37527 2.00897-2.04517 2.3662-3.03636 1.32797-3.68474-1.30913-.81757-.16977-2.444 2.6934-3.84482.81874-.40057 1.56105-.91706 1.64957-1.14774.12247-.31915.0495-.37429-.30507-.23062-.25631.10385-.82321.31541-1.25977.47014-.43657.15472-1.06936.45894-1.4062.67605-.55638.3586-.65923.34796-1.12336-.11617-.49153-.49153-.49339-.54274-.049-1.35071.25405-.46189 1.02745-1.26821 1.71867-1.79183.69122-.52361 1.25677-1.04319 1.25677-1.1546 0-.11142.22202-.44089.49338-.73216.63965-.68658 1.09412-1.54489 1.09412-2.06634 0-.52777-.88964-.53947-1.32292-.0174-.42367.5105-.76914.50426-.96936-.0175-.10635-.27713.31623-.86867 1.27582-1.78594 1.36903-1.30864 3.34957-3.8851 2.9865-3.8851-.25041 0-2.88965 2.29471-4.45658 3.8748-.74245.74869-1.74769 1.56102-2.23386 1.80517-.83062.41713-.91444.41634-1.38907-.0132-.61196-.55382-.64976-1.24859-.0931-1.71061.22662-.18808 1.48683-1.63141 2.80045-3.20739 1.53805-1.84523 2.57182-2.86544 2.90356-2.86544.28332 0 .58367-.17859.66743-.39687.0838-.21828.31815-.39688.52087-.39688.20271 0 .36856-.12708.36856-.28241s-.21815-.21317-.48477-.12855c-.84282.2675-1.46312-.71708-1.27888-2.02995.21931-1.5628.78327-3.49747 1.14802-3.93831.24625-.29762 1.40875-3.06618 1.40925-3.3562.00007-.043-.39996-.003-.88896.0887-1.34331.252-1.34998-.35009-.0252-2.2765.63592-.92476 1.11077-1.72682 1.05522-1.78238-.28167-.28167-1.16302.35266-1.95772 1.40904-.93761 1.24633-1.45613 1.47076-1.73273.74996-.23103-.60206.0426-1.34969 1.00323-2.74085.96362-1.39554 3.29842-4.224358 3.86925-4.687945.31205-.25342.32021-.324113.0382-.330729-.19728-.0046-.71828.294167-1.15779.66399-1.67904 1.412824-2.04124-.01283-.45972-1.809533.64341-.730958 1.04689-1.429266.98471-1.704266-.0848-.375126-.33356-.231583-1.27672.736752-.64426.661457-1.42685 1.673489-1.73909 2.248958-.31223.575471-.99414 1.820213-1.51534 2.766103-.5212.94588-.95035 1.96387-.95366 2.26219-.003.29831-.12295.65934-.26588.80227-.14294.14293-.60613.93691-1.02932 1.7644-.64521 1.2616-.71005 1.5538-.40158 1.80981.53048.44026.45318.87022-.21034 1.16994-.79738.36019-.88173.82509-.18286 1.00785.49331.129.53087.216.24301.56286-.18727.22564-.53428.41405-.77112.41868-.38224.007-.3786.0479.0324.3599.6474.49144.57694.92439-.19844 1.21918-.68779.2615-.85203.64474-.39687.92604.42382.26194.30702.61233-.26459.79375-.29104.0924-.52916.34899-.52916.57026 0 .32276.20924.36695 1.05833.22349 1.52919-.25835 1.34902.23178-.51369 1.39748-1.78385 1.11633-2.17393 1.64523-1.21342 1.64523.99473 0 1.05003.47405.16133 1.38303-.44851.45875-.81547.97024-.81547 1.13664 0 .50133.3265.66873.69989.35885.19343-.16054.54522-.21763.78174-.12686.59181.22709.0567.85538-1.16222 1.36469-.66832.27925-.84392.47033-.65459.71232.88768 1.13455.38529 2.0505-1.12469 2.0505-.4443 0-.65974.12108-.58846.33073.0618.1819.41837.33073.79229.33073 1.02181 0 1.08328.23806.34307 1.32882-.76951 1.13394-.84769 1.66405-.27766 1.88279.6429.2467.4564.75095-.39687 1.07302-.89745.33875-1.12253 1.01475-.24516.73628.37004-.11744.66094-.0205.89377.29793.32434.44356.37221.44501.79322.024.24642-.24643.67767-.44805.95832-.44805.77947 0 .62772.914-.21734 1.30907-.40018.18709-.93435.44534-1.18704.57388-.25268.12854-.75167.23371-1.10886.23371-.75007 0-1.16973.4915-.67875.79494.6213.38398.0737 1.58442-.80272 1.7597-.98941.19789-1.03263.80288-.0591.82712 3.11937.0777 3.22358 1.15493.19844 2.05131-.7252.21488-1.06897.47101-1.09212.8137-.0186.27506-.24185 1.01107-.49614 1.63557-.2543.6245-.40723 1.19058-.33985 1.25796.0674.0674.50802-.0119.97921-.17614.65466-.22821.92997-.22255 1.16738.0241.23977.24902.17402.4154-.288.72884-.51518.34951-.54355.44747-.20338.70238.55698.41735.15453.92428-1.06721 1.34429-1.28791.44277-1.56142 1.00067-.37416.76322.58108-.11622.91418-.054 1.07554.2008.37013.58453.28977.72521-.46531.8146-.86255.10212-1.06999 1.15423-.30797 1.56205.65708.35166.61153.73599-.12022 1.0142-.58819.22363-1.4884 1.07935-1.13546 1.07935.0964 0 .64199-.23813 1.21248-.52917s1.22059-.52917 1.44467-.52917c1.04147 0-.0323 1.01199-2.03998 1.92265-.82139.37257-.99219.58473-.99219 1.23246 0 .43032-.11906.856-.26458.94593-.14553.0899-.26459.28925-.26459.44292 0 .16088.26035.10882.6137-.12271.33754-.22116.95953-.44321 1.38222-.49345.6697-.0796.7757.00005.82436.6194.0307.39091.24485.99921.47587 1.35178.58566.89383.32437 1.33325-1.20331 2.02368-1.55176.7013-2.88659 1.75901-2.88659 2.28731 0 .5285.70512.46346 2.05384-.18944.90323-.43724 1.29076-.50162 1.73718-.28858.31604.15083.78297.34081 1.03763.4222.25466.0814.46302.26267.46302.40285 0 .44973-3.10002 2.40757-3.81211 2.40757-.19604 0-.51087.18608-.69962.41352-.29992.36138-.25762.39203.33562.24314.96199-.24144 1.23607.35214.44385.96127-.34835.26783-.54702.48962-.44148.49286.10554.003.0816.29602-.0532.65063-.20905.54983-.16201.65694.31947.7276.36632.0538.63658.35364.76959.85394.26571.99948.20083 1.07791-1.22089 1.47597-.65859.18439-1.19744.43885-1.19744.56546 0 .31271.36327.29026.69659-.0431.29332-.29332 1.15549-.0795 1.15549.28656 0 .1217-.25103.39711-.55785.61201-.514.36002-.48675 1.14845.0287.8299.33837-.20913.63031.40155.33374.69813-.28326.28325-.13106 1.48134.21537 1.69544.12174.0752.61354-.0264 1.09288-.22583 1.04486-.43475 1.53301-.31762 1.53301.36785 0 .27891.17859.50711.39687.50711.70863 0 .41904.83135-.39687 1.13933-.4586.1731-.79375.49196-.79375.75515 0 .25055-.11907.52913-.26459.61907-.14552.0899-.26458.38137-.26458.64762 0 .33699-.2621.53328-.86243.6459-1.14684.21515-1.70791 1.06873-1.10125 1.67539.40343.40342.39985.46046-.0495.78903-.37787.27631-.48612.71651-.49236 2.00228-.008 1.61236.0115 1.65784.89019 2.09651.494.24662 1.02383.57404 1.17739.7276.15357.15357.57581.27921.93832.27921.63635 0 .64137-.0134.14552-.38846zm.29723-13.19239c-.69238-.50628-.15738-1.36989 1.10538-1.78431.54682-.17946 1.96922-.78431 3.16088-1.34411 1.19166-.5598 2.35252-1.01782 2.57969-1.01782 1.11859 0-.17438 2.23379-1.80131 3.112-2.43939 1.3168-4.17234 1.67208-5.04464 1.03424zm5.37761-21.27043c-.23439-.0541-.56592-.40507-.73674-.77998-.25168-.55237-.23242-.80095.10153-1.31062.22665-.34592.4994-.62896.60609-.62896.1067 0 .88698-.67123 1.73397-1.49163 1.34532-1.30309 1.58847-1.44314 1.92365-1.10796.33518.33518.31125.54881-.18934 1.69007-.63862 1.45595-1.90743 3.18674-2.57578 3.51359-.24047.1176-.629.16958-.86338.11549zm-2.54318-9.63118c-.42882-.42882.0381-1.27549 1.19086-2.15933 1.11824-.85739 1.7418-.8394 1.86856.0539.0652.45924-.17679.87936-.87462 1.51865-.99998.9161-1.67434 1.09721-2.1848.58675zm4.76819-24.86515c-.89087-.89087 2.31546-5.79406 3.7889-5.79406.40222 0 .62995.15371.62995.42519 0 .83254-1.60022 3.76015-2.57032 4.7024-1.04527 1.01528-1.3793 1.1357-1.84853.66647zm2.41625-2.66201c.22957-.46019.36932-.88478.31056-.94354-.17365-.17365-1.21837 1.05531-1.21837 1.43325 0 .62432.48168.36447.90781-.48971zm-21.08963 70.96469c1.71756-.21376 2.60082-.97235 2.79203-2.39792.13592-1.01333-.35713-2.9549-.92375-3.63763-.20245-.24395-.16513-.46507.13436-.796.29134-.32194.34054-.59073.16539-.90369-.18797-.33589-.1057-.54604.33447-.85434l.58376-.40889-.58035-.61775c-.58951-.6275-.76517-1.2451-.35414-1.2451.44959 0 .56793-3.72025.15015-4.72013-.43633-1.04428-.33688-1.62987.2768-1.62987.22285 0 .40518-.11488.40518-.25528 0-.3528-.85083-.75843-1.27381-.60728-.63034.22523-2.64055-1.06611-3.19485-2.05236-.66434-1.18204-1.61721-2.10076-1.61577-1.55786.002.63238.96748 1.99605 1.93788 2.73621 1.10567.84334 1.33122 1.3291.94886 2.04354-.24272.45354-.48972.51726-1.6527.42635-.75202-.0588-1.57568-.20103-1.83034-.31611-.32414-.14648-.46302-.0943-.46302.17389 0 .51257 2.35109 1.76742 3.76304 2.00846 1.55169.2649 1.54553.99832-.0156 1.8595-.91886.50687-1.26138.57676-1.71979.35089-.31483-.15512-1.1082-.36-1.76304-.45528-1.06169-.15447-1.14765-.1299-.79375.2269.51914.52341 2.99704 1.23926 4.28966 1.23926 1.1783 0 1.51692.49308 1.00084 1.45739-.21217.39645-.27271 1.02414-.16421 1.70267.11051.69105.04 1.38147-.19746 1.9339-.52784 1.22792-2.24961 2.75764-3.34133 2.96865-1.58128.30562-1.85209.4271-1.85209.83075 0 .30585.21614.35381.99219.22016 1.60541-.2765 3.97272-1.19794 4.45946-1.73578.24816-.27422.74555-.49857 1.10532-.49857.62863 0 .64897.0535.52226 1.37224-.14479 1.50682-.82666 2.33192-1.92711 2.33192-.33556 0-.65542.13594-.7108.30209-.0554.16615-.57132.33772-1.14653.38126-.5752.0435-1.10536.088-1.17812.0988-.0728.0108.0463.13566.26458.27742.21829.14176.57547.18165.79375.0886.21829-.093 1.01866-.2465 1.77861-.34108zm11.64897-.96153c-.25214-.25214-.75764.15626-.56973.46029.11168.18071.25968.17615.4497-.0139.15577-.15578.20979-.35667.12003-.44642zm35.66268-.83225c.006-.5901.16488-1.25948.35413-1.48751.21418-.25807.27946-.70888.17291-1.19401-.099-.45064-.0531-.85241.10889-.95249.15404-.0952.28007-.74154.28007-1.4363 0-.69476.0881-1.35132.19581-1.45901.10769-.1077.201-.69309.20735-1.30087.0337-3.23284.14522-4.12918.56579-4.54976.30641-.30641.34937-.49566.14164-.62405-.42729-.26408-.25379-4.10087.21076-4.66061.25228-.30398.27602-.49395.0771-.61737-.38991-.24196-.48493-.85121-.24361-1.56199.11016-.32449.0859-.79447-.054-1.04441-.16208-.28963-.16259-.6957-.001-1.11967.17468-.45945.15305-.85184-.0699-1.26844-.24372-.45539-.24978-.76353-.0247-1.25747.18685-.41011.20309-.71299.0435-.81163-.34779-.21494-.32243-1.80455.0345-2.16146.20908-.20908.20285-.45026-.0225-.87131-.38153-.71274-.13521-1.85585.39982-1.85585.21551 0 .39183-.10583.39183-.23519 0-.12935-.2002-.21865-.4449-.19843-.65704.0543-1.35615-1.28538-.98068-1.8792.22363-.35368.19649-.67058-.11312-1.32096-.34637-.72758-.35422-.95491-.0524-1.51878.3044-.56879.29562-.72937-.0617-1.12872-.61422-.68648-.77708-2.1101-.26392-2.30702.34841-.1337.32017-.24438-.18168-.71192-.45791-.4266-.56054-.74353-.44737-1.38139.0874-.49261.006-1.01358-.20118-1.28668-.53513-.70557-.61864-.35961-.34933 1.44711.1359.9117.27511 2.07436.30936 2.58368.0343.50932.13476 1.10463.22334 1.32292.20475.50449.36163 2.35793.71664 8.46666.39492 6.79542.36521 10.70237-.12537 16.4849-.23216 2.73653-.35558 5.08317-.27425 5.21476.0813.13158.0344.45244-.10421.71302-.13864.26058-.37487 1.54535-.52497 2.85503-.15009 1.30969-.35311 2.84258-.45115 3.40642-.14016.80606-.10056.99907.18527.90304.22601-.0759.36733-.528.37357-1.19504zm-75.63243.40785c-.0845-.21107-.14716-.14837-.15985.15985-.0115.27891.0511.43519.13896.34727.0879-.0879.0973-.31613.0209-.50712zm2.72968.31419c0-.14552-.11906-.26458-.26459-.26458-.14552 0-.26458.11906-.26458.26458 0 .14552.11906.26458.26458.26458.14553 0 .26459-.11906.26459-.26458zm-1.47634-1.70979c-.0927-.3693-.27468-.67146-.40443-.67146-.27427 0-.31424 1.07549-.0642 1.72711.15371.40056.19611.40388.40443.0316.12799-.22871.15687-.71799.0642-1.08729zm44.63009-.70621c.49465-.16464 1.07372-.46229 1.2868-.66146.33623-.31427.31207-.36212-.18282-.36212-.31364 0-.6366.10734-.71768.23855-.0811.1312-.84001.31893-1.6865.41718-.84648.0982-1.7099.28672-1.9187.41885-.56357.35662 2.12203.31406 3.2189-.051zm-45.00584-1.12348c0-.20046-.17859-.51269-.39687-.69385-.33562-.27854-.39688-.22228-.39688.36448 0 .44037.14499.69385.39688.69385.21828 0 .39687-.16401.39687-.36448zm-.26458-2.29697c0-.571-.42038-.699-.60043-.18282-.16139.46266.0786 1.0189.36357.84276.13027-.0805.23686-.37748.23686-.65994zm.7044-1.37345c-.0734-.1819-.13346-.0331-.13346.33073 0 .36381.0601.51263.13346.33073.0734-.1819.0734-.47955 0-.66146zm-1.15641-1.96649c-.0759-.19787-.21365-1.51812-.30604-2.93388-.0927-1.41959-.28614-2.5741-.43141-2.5741-.43101 0-.41092 3.76097.022 4.12028.20233.16791.29923.41636.21534.5521-.0839.13574-.0626.86638.0474 1.62366.19835 1.36598.20148 1.36973.39534.47429.10747-.49643.13328-1.06448.0573-1.26235zm-2.19382-3.24341c0-.13693-.11907-.32255-.26459-.41249-.14552-.0899-.26458.0221-.26458.24897s.11906.41249.26458.41249c.14552 0 .26459-.11204.26459-.24897zm-.26459-2.80936c0-.22687-.121-.3377-.2689-.2463-.14789.0914-.20039.27703-.11667.41249.22681.36699.38557.29856.38557-.16619zm2.91042-.63022c0-.13694-.11906-.32256-.26458-.41249-.14552-.0899-.26459.0221-.26459.24896 0 .22687.11907.41249.26459.41249.14552 0 .26458-.11203.26458-.24896zm-1.4538-5.24114c-.0914-.61846-.26475-1.12448-.3853-1.12448-.26807 0-.10248 4.67444.18106 5.11139.26601.40992.41735-2.54443.20424-3.98691zm31.95116 1.19062c.23739-1.05502.50978-3.24974.60531-4.87713.14067-2.39628.25646-2.99082.60895-3.12671.35626-.13734.2674-.305-.48954-.92371l-.9248-.7559.59407-.63236c.32674-.34779.59407-.88554.59407-1.195 0-.30945.11386-.63301.25303-.71902.13916-.086.18537-.33268.10269-.54816-.0827-.21547-.003-.56884.17624-.78527.2401-.28931.24919-.48676.0343-.74566-.21441-.25834-.19516-.86178.0722-2.26517.31766-1.6671.31339-2.04316-.0332-2.92553-.38201-.97251-.36975-1.06025.31021-2.22052.52997-.90432.72293-1.62134.76758-2.85223.0511-1.40977.14289-1.68138.64349-1.90475.3399-.15167.58384-.49788.58384-.82862 0-.31246.1314-.69951.292-.86011.20428-.20428.2099-.43871.0187-.78036-.20471-.3658-.1681-.60459.14588-.95154.38288-.42307.38126-.50509-.0187-.94704-.25764-.28469-.43788-.93056-.43788-1.5691 0-.92399.0884-1.0978.59531-1.16979.4017-.057.68494-.36184.87091-.93717.15158-.46895.56728-1.24286.92378-1.7198.52119-.69726.63078-1.11503.55936-2.13231-.059-.84011.0529-1.48143.33299-1.90892.232-.35408.42181-.99057.42181-1.41443 0-.42387.1786-.91888.39688-1.10004.21828-.18116.39687-.65925.39687-1.06243 0-.40317.16935-.79803.37634-.87746.23273-.0893.32105-.35583.23145-.69846-.0797-.30473.0256-.7585.234-1.00837.20839-.24988.84027-1.46635 1.40417-2.70328.5639-1.23693 1.30128-2.69308 1.63862-3.23589.33734-.54281.61334-1.1048.61334-1.24886 0-.14406.33897-.9501.75328-1.79119.4143-.8411 1.32247-2.7199 2.01816-4.1751.69569-1.45521 1.36697-2.82443 1.49174-3.042713.12476-.218281.39228-.754062.59448-1.190625.20221-.436562 1.05287-1.478359 1.89036-2.315104 1.56932-1.567922 1.70456-2.054356.21688-.780081-2.05958 1.764138-5.14761 5.797103-6.82838 8.917863-2.20576 4.09553-2.28952 4.2073-2.9869 3.98596-.50232-.15943-.54485-.31529-.40601-1.48763.0853-.72025.0492-1.30887-.0802-1.30804-.22746.002-1.16134 3.44002-1.16134 4.27604 0 .36389-1.66413 3.66238-2.38044 4.71829-.63624.93787-1.14205 2.92699-1.78212 7.00821-.25721 1.64005-.73276 1.79028-2.03836.64395-1.03202-.90613-1.54996-.85246-.95478.0989.2007.3208.52781 1.35719.72692 2.30307.19911.94589.46244 2.17472.58518 2.73074.12274.55603.12654 1.43938.008 1.963-.11809.52362-.1469 1.52469-.064 2.22461.12194 1.0296.0674 1.30454-.28572 1.44004-.54403.20876-1.22345-.32726-1.22345-.96523 0-.26375-.12743-.81472-.28319-1.22437-.26498-.69694-.30152-.71208-.56822-.23552-.2129.38042-.17748.84916.13995 1.85209.23374.73852.46915 1.73198.52313 2.20768.17287 1.52334-.97047 1.77854-1.6927.37782-.4599-.89193-.90787-1.37503-1.27507-1.37503-.40754 0-.34897.41003.11339.79376.21828.18115.39688.5091.39688.72877 0 .21966.2465.79824.54779 1.28573.86005 1.39159.96185 3.48865.26249 5.40674-.47648 1.30679-.57221 2.06136-.51229 4.03824.0405 1.33713-.0154 4.09802-.12424 6.13531-.1604 3.00207-.12095 3.95491.20817 5.02708.59093 1.92506.54716 2.5701-.16734 2.4658-.41785-.061-.69497-.41618-.99491-1.27517-.22866-.65485-.49301-1.3106-.58744-1.45723-.0944-.14662-.25553-.71349-.358-1.25969-.19549-1.04205-.50754-1.44068-.78118-.99792-.17164.27771.30692 3.21555.66977 4.11171.11784.29104.63894 1.44852 1.15801 2.57216.51906 1.12365.94375 2.14163.94375 2.26219 0 .25538.55962.85419.79829.85419.0898 0 .35751-.8632.5949-1.91823zm-2.98069.18472c0-.0803-.23222-.58633-.51605-1.12448-.28383-.53816-.60415-1.21659-.71183-1.50763-.17704-.47852-.20494-.46322-.29155.15984-.0973.7.8412 2.61828 1.28098 2.61828.13115 0 .23845-.0657.23845-.14601zm9.52443-1.86989c1.16227-.51279 1.9204-1.4584.97695-1.21854-.62579.15911-2.56388 1.30657-2.56388 1.51797 0 .24451.61863.12779 1.58693-.29943zM.7291 74.795303c-.0845-.21107-.14716-.14837-.15985.15985-.0115.27892.0511.43519.13896.34727.0879-.0879.0973-.31612.0209-.50712zm1.93592-.23059c0-.13693-.11906-.24897-.26458-.24897-.14552 0-.26458.18562-.26458.41249 0 .22687.11906.33891.26458.24897.14552-.0899.26458-.27556.26458-.41249zm.26459-1.98437c0-.35522-.10519-.64585-.23374-.64585-.25895 0-.56097 1.23377-.35294 1.4418.26613.26613.58668-.16876.58668-.79595zm-1.85209-.92605c0-.29963-.11906-.47119-.26458-.38126-.14552.0899-.26458.33509-.26458.54479 0 .20969.11906.38126.26458.38126.14552 0 .26458-.24516.26458-.54479zm39.8283-.89692c.88302-.36895 1.10292-.66597.75249-1.0164-.21919-.21919-2.2162.80857-2.2162 1.14057 0 .35787.38901.32487 1.46371-.12417zm-37.90007-.96836c.0802-.59794.0805-1.4899.00058-1.98214-.0799-.49224-.0149-1.05205.14445-1.24403.15933-.19198.33868-1.47291.39856-2.84651.0599-1.37361.20008-2.77736.31157-3.11946.16625-.51013.11802-.6053-.26812-.52917-.39178.0772-.4878.43639-.57194 2.13911-.0556 1.12546-.21815 2.35411-.36119 2.73035-.14305.37623-.18706.975-.0978 1.33059.0893.35559.0387.79548-.11244.97752-.30115.36287-.10536 3.63089.21752 3.63089.10615 0 .25862-.48922.33882-1.08715zm-1.68224-1.24357c.0102-.19049-.10047-.27276-.24599-.18282-.14552.0899-.25621.48392-.24598.87551.0166.63575.0429.65532.24598.18282.12507-.29104.23576-.68502.24599-.87551zm30.71027.0661c0-.2097-.11907-.38126-.26459-.38126-.14552 0-.26458.24515-.26458.54478 0 .29963.11906.4712.26458.38126.14552-.0899.26459-.33509.26459-.54478zm9.90629-9.5178c.42396-.32067.43928-.38846.0878-.38846-.67631 0-1.2731.29849-1.11341.55689.2001.32375.42337.28709 1.02562-.16843zm-36.89734-4.72535c.34371-.98599.34573-2.2777.004-2.2777-.14553 0-.26881.26789-.27396.59531-.005.32743-.1745.89297-.37632 1.25678-.20182.3638-.30206.98748-.22276 1.38597.0885.44465-.0247.98225-.293 1.39176-.35613.54352-.37862.77669-.12132 1.25747.28784.53783.34695.43794.66578-1.1251.19244-.94343.47055-2.06145.61803-2.48449zm37.97125-1.48395c.0899-.14552-.0816-.26458-.38126-.26458-.29963 0-.54478.11906-.54478.26458 0 .14552.17157.26459.38126.26459s.45485-.11907.54478-.26459zm-36.38021-5.76194c0-.52763-.0706-.59426-.36809-.34736-.20245.16802-.41992.65861-.48326 1.0902-.10937.74514-.0908.76265.36809.34735.2658-.24054.48326-.73113.48326-1.09019zM20.9528 14.189181c.1731-.327422 1.08485-1.458516 2.02612-2.513542.94858-1.063229 1.54059-1.918229 1.3282-1.918229-.21076 0-.66282.297656-1.0046.661458-.34177.363802-.83877.661459-1.10445.661459-.33035 0-.48305.196135-.48305.620451 0 .341248-.2305.829057-.51223 1.084021-.58316.52775-1.17661 1.999695-.80623 1.999695.13283 0 .38314-.267891.55624-.595313zm4.84207-5.788983c-.20873-.337734-.64026-.01477-.64026.479182 0 .336337.0736.352542.39396.0867.21668-.179828.32751-.434474.2463-.56588zm2.15344-1.147915c.4106-.31056.43088-.390148.10114-.396875-.22685-.0046-.64357.166392-.92604.380046-.4106.31056-.43088.390147-.10114.396875.22685.0046.64356-.166393.92604-.380046zm2.29245-1.181105c.62236-.281177 1.34982-.578896 1.61658-.661597.62502-.193768.43289-.787091-.28941-.893748-.34903-.05154-.66553.121178-.84848.463021-.16049.299872-.51254.545222-.78234.545222-.2698 0-.77162.234164-1.11517.520365-.5161.42996-.54541.521893-.16868.529166.25077.0048.96514-.221251 1.5875-.502429zm48.09707 45.759735c-.17975-.43395-.25167-.98482-.15983-1.22416.0918-.23934.0624-.5689-.0655-.73236-.12786-.16345-.49351-1.17023-.81257-2.23728-.46109-1.54205-.51426-2.01943-.25914-2.32683.25988-.31314.21224-.4629-.25033-.78689-.32555-.22803-.5713-.68388-.5713-1.05975 0-.36278-.17384-.99577-.38632-1.40666s-.32276-.81063-.24507-.88832c.0777-.0777-.0461-.50358-.27514-.94644-.22901-.44286-.41638-1.12016-.41638-1.5051 0-.38495-.23854-1.03489-.53008-1.44433-.29155-.40943-.45914-.9293-.37244-1.15525.20111-.52407 1.00665-.78213 1.72739-.55338.47656.15126.5401.32833.4252 1.185-.11149.8312-.0476 1.03006.36575 1.13815.39027.10206.50084.37426.50084 1.23298 0 .65345.17085 1.27284.41974 1.52173.23489.2349.36868.68681.30381 1.02618-.0638.33355.0285.66187.20501.7296.57521.22073.62962 1.19219.10418 1.86017-.67086.85287-.63722.98762.22403.89747.68424-.0716.73256-.007.81072 1.08419.0457.63818.25407 1.3313.46302 1.54025.20895.20895.37991.84063.37991 1.40373 0 .5631.11906 1.0974.26458 1.18734.32669.2019.35231 1.19063.0309 1.19063-.12855 0-.29599.23812-.3721.52916-.214.81831-1.12745.66101-1.50887-.25983zm-5.01975-17.18528c-.15064-.28147-.27389-.74314-.27389-1.02593s-.17859-.66239-.39687-.84354c-.21828-.18116-.39688-.61728-.39688-.96916 0-.35187-.25416-.98354-.5648-1.40371-.33715-.45601-.4955-.94453-.39287-1.21198.11148-.29051-.0663-.68629-.50562-1.12561-.79792-.79792-.76353-1.62516.0804-1.93525.45428-.1669.73538-.0872 1.14826.32571l.54673.54673-.55295.58858c-.68579.72999-.69636.95136-.0454.95136.89007 0 1.34456.3047 1.34456.90143 0 .31913-.12778.70801-.28396.86419-.20222.20221-.0931.33186.37924.4504.77354.19415 1.14679 1.08024.68793 1.63313-.31196.37588-.28744.41585.29645.4834.15725.0182.45463.26381.66085.54583.3328.45512.31035.58152-.19974 1.12448-.70085.74602-1.16933.7766-1.53147.0999z"/>
</svg>