<?xml version="1.0" encoding="UTF-8" standalone="no"?>
<!-- Created with Inkscape (http://www.inkscape.org/) -->

<svg
   xmlns:dc="http://purl.org/dc/elements/1.1/"
   xmlns:cc="http://creativecommons.org/ns#"
   xmlns:rdf="http://www.w3.org/1999/02/22-rdf-syntax-ns#"
   xmlns:svg="http://www.w3.org/2000/svg"
   xmlns="http://www.w3.org/2000/svg"
   xmlns:sodipodi="http://sodipodi.sourceforge.net/DTD/sodipodi-0.dtd"
   xmlns:inkscape="http://www.inkscape.org/namespaces/inkscape"
   width="23.083134mm"
   height="55.706188mm"
   viewBox="0 0 23.083134 55.706188"
   version="1.1"
   id="svg1051"
   inkscape:version="0.92.4 (5da689c313, 2019-01-14)"
   sodipodi:docname="Quill and Ink.svg">
  <title
     id="title1066">Quill and Ink</title>
  <defs
     id="defs1045" />
  <sodipodi:namedview
     id="base"
     pagecolor="#ffffff"
     bordercolor="#666666"
     borderopacity="1.0"
     inkscape:pageopacity="0.0"
     inkscape:pageshadow="2"
     inkscape:zoom="0.35"
     inkscape:cx="167.96975"
     inkscape:cy="632.18388"
     inkscape:document-units="mm"
     inkscape:current-layer="layer1"
     showgrid="false"
     fit-margin-top="0"
     fit-margin-left="0"
     fit-margin-right="0"
     fit-margin-bottom="0"
     inkscape:window-width="1920"
     inkscape:window-height="986"
     inkscape:window-x="-11"
     inkscape:window-y="-11"
     inkscape:window-maximized="1" />
  <metadata
     id="metadata1048">
    <rdf:RDF>
      <cc:Work
         rdf:about="">
        <dc:format>image/svg+xml</dc:format>
        <dc:type
           rdf:resource="http://purl.org/dc/dcmitype/StillImage" />
        <dc:title>Quill and Ink</dc:title>
        <cc:license
           rdf:resource="http://creativecommons.org/publicdomain/zero/1.0/" />
      </cc:Work>
      <cc:License
         rdf:about="http://creativecommons.org/publicdomain/zero/1.0/">
        <cc:permits
           rdf:resource="http://creativecommons.org/ns#Reproduction" />
        <cc:permits
           rdf:resource="http://creativecommons.org/ns#Distribution" />
        <cc:permits
           rdf:resource="http://creativecommons.org/ns#DerivativeWorks" />
      </cc:License>
    </rdf:RDF>
  </metadata>
  <g
     inkscape:label="Layer 1"
     inkscape:groupmode="layer"
     id="layer1"
     transform="translate(-61.391337,-260.39247)">
    <path
       style="fill:#000000;stroke-width:1"
       d="m 70.16143,316.09024 c -1.991368,-0.11316 -3.84682,-0.45083 -5.528873,-1.0062 -0.869399,-0.28705 -1.475174,-0.5365 -2.330075,-0.95953 l -0.755751,-0.37395 -0.0416,-0.25249 c -0.09245,-0.56106 -0.112663,-0.8503 -0.11377,-1.6281 -0.0013,-0.88478 0.05076,-1.41457 0.207991,-2.11847 0.403449,-1.80614 1.2489,-3.38323 2.521335,-4.70323 0.992852,-1.02997 2.106019,-1.78551 3.416875,-2.31911 l 0.431065,-0.17548 0.01874,-0.78266 c 0.01271,-0.5305 0.034,-0.80934 0.0661,-0.86548 0.109443,-0.19138 0.572619,-0.44461 1.084783,-0.59308 0.569149,-0.165 1.586932,-0.30266 1.584743,-0.21434 -4.25e-4,0.0155 -0.04185,0.37334 -0.09216,0.79528 -0.07047,0.59109 -0.08106,0.77377 -0.04616,0.79596 0.02492,0.0158 0.302537,0.029 0.616932,0.0294 l 0.57163,5.7e-4 v -0.0901 c 0,-0.1477 0.113939,-1.49921 0.130445,-1.5473 0.0173,-0.0504 0.21768,-0.0391 0.855521,0.0483 0.864082,0.11837 1.58397,0.38176 1.88155,0.68842 l 0.149937,0.1545 0.01129,0.85495 0.01129,0.85495 0.326064,0.14025 c 1.096609,0.47166 2.166124,1.20276 3.044603,2.08124 1.518166,1.51816 2.460891,3.39545 2.795771,5.56731 0.138322,0.8971 0.06398,3.08795 -0.110903,3.26814 -0.06881,0.0709 -1.274245,0.66214 -1.767471,0.8669 -1.834035,0.76139 -3.83375,1.23306 -6.072388,1.43229 -0.46016,0.041 -2.428941,0.0761 -2.867517,0.0511 z m 1.950908,-18.18145 c -0.0025,-0.11759 0.207285,-2.02101 0.338177,-3.06779 1.198793,-9.58698 3.294154,-17.52548 6.395828,-24.23128 0.588301,-1.27191 1.600533,-3.24102 2.125437,-4.13465 0.212829,-0.36233 0.05692,-0.161 -0.3048,0.39358 -4.436979,6.80283 -7.630437,16.84916 -9.493369,29.86529 -0.155582,1.08704 -0.179326,1.22116 -0.184575,1.04262 -0.0049,-0.16697 -0.06146,-0.27065 -0.326265,-0.59821 -0.596633,-0.73801 -1.273328,-1.92231 -1.646091,-2.88086 -0.566055,-1.45561 -0.947812,-3.19799 -1.158002,-5.28523 -0.124648,-1.23781 -0.272825,-3.47182 -0.232923,-3.51173 0.01242,-0.0124 0.101435,0.008 0.197809,0.0443 0.126947,0.0485 0.307006,0.19336 0.653537,0.52584 0.343257,0.32933 0.527101,0.47755 0.651093,0.5249 0.09503,0.0363 0.180331,0.0584 0.18956,0.0492 0.0092,-0.009 -0.02325,-0.2942 -0.07218,-0.63326 -0.156003,-1.08101 -0.189925,-1.65367 -0.189726,-3.20287 1.41e-4,-1.54207 0.02957,-2.04043 0.191072,-3.24236 0.229321,-1.70659 0.698103,-3.53576 1.233023,-4.81119 l 0.06058,-0.14444 0.13134,0.27406 c 0.07224,0.15073 0.204679,0.37598 0.294314,0.50054 0.171608,0.23848 0.507315,0.58595 0.507021,0.52479 -1.12e-4,-0.0198 -0.03399,-0.26364 -0.07531,-0.54196 -0.100231,-0.67501 -0.132038,-1.52206 -0.07741,-2.06161 0.13277,-1.31148 0.481779,-2.25362 1.485758,-4.01077 0.551241,-0.96478 0.848466,-1.57393 1.049088,-2.15007 l 0.157144,-0.45127 0.0191,0.65407 c 0.01709,0.5854 0.07799,1.04846 0.137721,1.04719 0.01191,-2.7e-4 0.07036,-0.12254 0.129858,-0.27176 0.152208,-0.3817 0.578256,-1.23407 0.772622,-1.54575 0.320435,-0.51383 0.810802,-1.13085 1.236276,-1.55558 0.443431,-0.44265 0.704745,-0.66155 1.743757,-1.46074 0.732039,-0.56306 1.26002,-1.0183 1.557306,-1.34273 0.123183,-0.13444 0.230682,-0.23758 0.238886,-0.2292 0.0082,0.008 0.126433,0.37788 0.262734,0.82112 0.136299,0.44325 0.25597,0.82851 0.265936,0.85614 0.01,0.0276 0.09669,-0.0989 0.192712,-0.28113 0.739484,-1.40345 1.697798,-2.312 2.904564,-2.75372 0.326151,-0.11939 0.934144,-0.26747 0.966264,-0.23535 0.04372,0.0437 0.04642,1.46278 0.0034,1.80575 -0.14374,1.14678 -0.619988,2.31839 -1.363364,3.35401 -0.156252,0.21768 -0.192489,0.29055 -0.14456,0.29071 0.03518,1.1e-4 0.371996,-0.0278 0.748482,-0.062 0.376488,-0.0342 0.693167,-0.0536 0.703737,-0.043 0.01057,0.0106 -0.05166,0.13547 -0.138278,0.27756 -0.08662,0.1421 -0.253635,0.46077 -0.37114,0.70816 -0.207806,0.43751 -0.336669,0.75195 -0.898652,2.19281 -0.359246,0.92106 -0.752111,1.72595 -1.0886,2.23029 -0.482925,0.72382 -1.155463,1.32413 -1.856341,1.65697 -0.281822,0.13384 -0.330007,0.16554 -0.212005,0.1395 0.162581,-0.0359 1.819092,-0.24289 1.832932,-0.22905 0.0085,0.009 -0.05163,0.14008 -0.1337,0.29233 -0.273899,0.50816 -0.532037,1.16598 -0.944939,2.40799 -0.70574,2.12288 -1.056573,2.88199 -1.769511,3.82878 -0.258569,0.34338 -1.006054,1.10216 -1.274168,1.29342 -0.0995,0.071 -0.163489,0.13486 -0.142187,0.14196 0.07291,0.0243 0.510367,-0.10664 0.772911,-0.23135 0.144313,-0.0685 0.363593,-0.20161 0.487291,-0.29568 0.123696,-0.0941 0.228214,-0.16776 0.232262,-0.16375 0.01562,0.0155 -0.139008,1.09545 -0.232518,1.62392 -0.622784,3.51969 -1.834125,6.2712 -3.474722,7.89269 -0.414486,0.40966 -0.414639,0.40916 0.09519,0.31161 0.510954,-0.0978 1.099459,-0.37878 1.461938,-0.69809 l 0.181246,-0.15966 -0.02587,0.18404 c -0.05974,0.4249 -0.216906,1.22676 -0.322615,1.64592 -0.627164,2.48688 -1.790502,4.45163 -3.961695,6.69088 -0.376795,0.3886 -0.491059,0.48726 -0.492399,0.42517 z"
       id="path1064"
       inkscape:connector-curvature="0" />
  </g>
</svg>
