<?xml version="1.0" encoding="UTF-8" standalone="no"?>
<svg
   xmlns:dc="http://purl.org/dc/elements/1.1/"
   xmlns:cc="http://creativecommons.org/ns#"
   xmlns:rdf="http://www.w3.org/1999/02/22-rdf-syntax-ns#"
   xmlns:svg="http://www.w3.org/2000/svg"
   xmlns="http://www.w3.org/2000/svg"
   version="1.1"
   id="svg62298"
   viewBox="0 0 1005 1089"
   height="307.34mm"
   width="283.63333mm">
  <defs
     id="defs62300" />
  <metadata
     id="metadata62303">
    <rdf:RDF>
      <cc:Work
         rdf:about="">
        <dc:format>image/svg+xml</dc:format>
        <dc:type
           rdf:resource="http://purl.org/dc/dcmitype/StillImage" />
        <dc:title></dc:title>
      </cc:Work>
    </rdf:RDF>
  </metadata>
  <g
     transform="translate(-795.35719,272.13779)"
     id="layer1">
    <path
       style="fill:#dfa826"
       d="m 795.35719,272.36221 0,-544.5 502.50001,0 502.5,0 0,544.5 0,544.49999 -502.5,0 -502.50001,0 z"
       id="path62873" />
    <path
       id="path62883"
       d="m 1250,229.50506 -48.5714,85.71429 -50,94.28571 -10,40 14.2857,5.71429 5.7143,-18.57143 34.2857,-75.71429 90,-108.57143 z"
       style="opacity:0.54000005;fill:#eaeff1;fill-opacity:1;fill-rule:evenodd;stroke:none;stroke-width:1px;stroke-linecap:butt;stroke-linejoin:miter;stroke-opacity:1" />
    <path
       id="path62875"
       d="m 1032.8571,450.93363 c 32.4144,-19.0159 73.2909,-22.06843 109.6543,-14.12027 28.4498,-8.78119 64.4474,13.02862 32.5094,38.97251 -22.1041,24.96174 10.2843,54.46587 28.3099,71.03278 20.1705,21.82079 29.7533,51.01263 49.5445,73.25464 22.6124,29.26849 1.7503,57.29481 -22.039,75.83853 -16.6787,33.05598 -59.1732,13.10744 -84.3464,2.17865 -24.9611,-17.6055 -49.2347,8.20301 -74.9179,5.39107 -24.6579,3.02606 -49.4758,-0.19616 -69.9761,-15.11817 -19.24055,-13.52907 -57.82126,-19.56858 -62.29327,-41.77447 23.32585,-21.82572 33.25948,-57.12181 70.84527,-62.50393 19.6734,-21.0925 59.8473,-34.42334 53.7388,-69.0815 -2.5979,-24.79435 -23.8385,-41.26857 -31.0295,-64.06984 z"
       style="fill:#eaeff1;fill-opacity:1;fill-rule:evenodd;stroke:none;stroke-width:1px;stroke-linecap:butt;stroke-linejoin:miter;stroke-opacity:1" />
    <path
       style="fill:#2f7ac8"
       d="m 1108.8572,746.216 c -52.1787,-2.2415 -95.8968,-7.6966 -106.1397,-13.2439 -6.25739,-3.3889 -7.97809,-7.38148 -4.42219,-10.26088 3.16369,-2.56176 1.92369,-3.71366 -7.93812,-7.37443 -17.91561,-6.65038 -35.81568,-16.26105 -46.75359,-25.10234 -10.43466,-8.43449 -14.25361,-15.42714 -17.91705,-32.80679 -0.64292,-3.05006 -1.40977,-4.08831 -3.41126,-4.61856 -1.42004,-0.37621 -20.77004,-1.24459 -43,-1.92974 -22.22995,-0.68515 -40.78373,-1.58243 -41.2306,-1.99394 -1.39038,-1.28038 -0.96475,-14.22591 0.5,-15.20743 1.20319,-0.80625 15.18565,-0.63541 61.3125,0.74912 9.35,0.28064 19.31916,0.22191 22.15369,-0.13051 l 5.15369,-0.64078 2.66027,-7.294 c 1.46315,-4.0117 4.89828,-10.47058 7.63364,-14.35306 6.9185,-9.81991 21.4476,-24.0508 31.20125,-30.56084 16.78705,-11.20446 38.80047,-26.74104 46.19747,-32.6051 18.1604,-14.39693 30.6114,-34.57677 30.4404,-49.33596 -0.033,-2.82956 -0.4848,-7.39466 -1.0044,-10.14466 -2.0556,-10.87956 -2.1801,-12.50096 -1.0628,-13.84723 0.9001,-1.08455 0.058,-2.16934 -4.0816,-5.25957 -6.0192,-4.49297 -9.3309,-8.98399 -10.9095,-14.79424 -0.9877,-3.63513 -0.846,-4.60817 1.2521,-8.59896 2.0057,-3.815 3.5075,-5.07105 9.8658,-8.2514 8.8155,-4.40939 27.582,-9.40408 40.4157,-10.75658 18.1744,-1.91534 59.9594,-0.0169 62.8309,2.8546 0.597,0.59698 0.1716,4.01705 -1.1494,9.24095 -1.1535,4.56127 -2.0972,10.4805 -2.0972,13.15385 0,4.5367 0.2166,4.95174 3.25,6.2277 4.7968,2.01769 8.4591,6.41489 9.7951,11.76039 1.4438,5.77695 0.6249,9.56341 -2.325,10.75041 -3.2462,1.30622 10.388,1.30969 13.8235,0.004 2.3372,-0.8886 2.5027,-1.22299 1.3151,-2.65619 -0.8258,-0.99654 -1.381,-4.22582 -1.4155,-8.23343 -0.031,-3.6266 -0.4171,-7.59054 -0.8575,-8.80875 -0.682,-1.88689 -0.3034,-2.42516 2.5568,-3.63433 1.8466,-0.78067 5.6075,-1.94552 8.3575,-2.58857 9.8922,-2.31312 9.8557,-6.15791 -0.091,-9.61699 -5.4633,-1.8999 -5.893,-2.27009 -5.6986,-4.9102 0.3384,-4.59666 1.4048,-5.00593 10.065,-3.86256 8.9622,1.18324 19.4014,5.46535 22.2965,9.14589 1.0802,1.37327 2.6649,4.90762 3.5214,7.85411 1.4534,4.99942 1.4355,5.60673 -0.2678,9.09241 -1.2429,2.54329 -3.3644,4.56513 -6.6485,6.33615 -2.6528,1.43055 -5.7267,3.5045 -6.831,4.6088 l -2.0079,2.00781 3.0811,0.61621 c 3.7052,0.74105 3.8043,1.82043 0.9793,10.6662 -4.6397,14.52834 -2.4541,30.71891 6.2322,46.16651 11.2279,19.96744 23.088,32.53559 49.8571,52.83349 25.0906,19.02515 42.4042,35.60633 48.0318,46 l 3.5193,6.5 12.9807,0.62251 c 7.1393,0.34238 27.3806,0.91503 44.9806,1.27256 71.072,1.44375 340.0183,5.72868 341.6078,7.64388 1.639,1.97491 0.72,15.21655 -1.1438,16.48013 -0.8232,0.55807 -16.5165,-2.18316 -8.464,0.46504 0,0 -21.175,-0.99645 -38.5,-1.56962 -17.325,-0.57317 -290.1053,-4.89295 -300.6229,-5.43286 -27.0893,-1.39058 -44.8908,-1.287 -46.1204,0.26836 -0.5434,0.6875 -1.712,4.51657 -2.5968,8.50905 -3.8765,17.49282 -15.592,32.77115 -32.889,42.89105 -7.1554,4.18637 -11.1217,5.69308 -22,8.3574 -15.3624,3.76254 -16.7456,4.57538 -14.2547,8.37697 1.5847,2.41843 1.5921,2.80123 0.099,5.08033 -0.8882,1.3557 -2.4025,2.8826 -3.365,3.3933 -2.0606,1.0932 -18.7802,4.48102 -32.25,6.53462 -16.3573,2.4938 -68.4161,4.8239 -88.5,3.9611 z m 102.1692,-63.8551 c 17.7485,-4.56989 28.8791,-10.33213 33.5742,-17.38122 1.7737,-2.66288 2.3685,-7.64625 1.0066,-8.43231 -0.4125,-0.23807 -3.675,-0.0726 -7.25,0.36762 -3.575,0.44028 -9.2,1.10743 -12.5,1.48256 -3.3,0.37514 -6.464,1.05653 -7.0312,1.51422 -0.5671,0.45767 -1.8804,3.22125 -2.9184,6.14128 -2.5308,7.1195 -3.7373,8.82821 -9.0371,12.7992 -7.0193,5.25931 -5.9966,6.12273 4.1559,3.50865 z m -181.6692,-18.96168 c 0,-0.25464 -0.9252,-2.81016 -2.056,-5.67897 -1.6667,-4.22853 -2.0617,-7.51464 -2.0867,-17.35808 -0.017,-6.67816 0.4637,-13.97834 1.068,-16.22262 1.8251,-6.77799 7.9755,-19.38433 12.66,-25.94903 2.4281,-3.40269 4.4147,-6.35153 4.4147,-6.55296 0,-0.20146 -3.4875,-0.47609 -7.75,-0.61032 l -7.75,-0.24402 -5.1708,4.28949 c -6.2544,5.18854 -8.2333,7.65472 -11.7873,14.69007 -4.5942,9.09436 -5.5642,13.72509 -5.5817,26.64436 -0.016,12.00942 0.7839,16.19192 4.4552,23.29148 1.4458,2.79579 2.0873,3.09532 7.3345,3.4246 11.3543,0.71248 12.2501,0.73267 12.2501,0.276 z m -46.63476,-22.03701 c 1.4881,-19.25298 5.42396,-30.19839 15.73206,-43.75 3.2423,-4.26251 5.4275,-7.75 4.856,-7.75 -1.7228,0 -11.005,9.20155 -13.08902,12.97537 -1.07051,1.93854 -3.23582,5.33015 -4.81178,7.5369 -3.95615,5.53961 -9.55622,19.61776 -11.05152,27.78267 -0.68443,3.73723 -1.07715,6.94326 -0.8727,7.1245 0.60975,0.54057 8.36127,4.40666 8.49517,4.23699 0.0679,-0.086 0.4017,-3.75644 0.74179,-8.15643 z m 248.13476,-1.54985 c 8.8485,-1.49702 9.5,-1.68894 9.5,-2.79845 0,-1.93435 -9.3229,-12.89999 -15.2655,-17.95542 -3.429,-2.91705 -9.8025,-8.31705 -14.1634,-12 -17.1003,-14.44204 -30.1563,-29.65442 -39.0652,-45.51739 -4.5857,-8.1652 -6.4184,-13.13197 -8.5531,-23.17889 -0.7011,-3.3 -1.6523,-6.42751 -2.1138,-6.95001 -1.2157,-1.3765 -1.0604,0.37104 0.7117,8.01233 4.6549,20.07174 14.0172,39.17079 27.4635,56.02567 13.7992,17.29732 22.4045,30.50702 25.0225,38.41151 2.3843,7.19885 3.3029,8.197 6.9633,7.56595 1.375,-0.23705 5.65,-0.96393 9.5,-1.61529 z m -179.5,-180.89113 c 0,-0.51755 -0.4922,-1.24522 -1.0939,-1.61704 -1.1516,-0.71171 -0.8024,-6.62955 0.5778,-9.79304 0.7709,-1.76681 0.6645,-1.77702 -2.3381,-0.22432 -1.7302,0.89471 -3.1458,2.02837 -3.1458,2.51927 0,0.4909 -0.249,1.54133 -0.5533,2.33429 -0.3043,0.79298 0.6357,2.85479 2.0889,4.58179 2.6151,3.10784 4.4644,4.01875 4.4644,2.19905 z m 35.7568,-2.30902 c -0.656,-2.00068 -7.5204,-3.81143 -11.834,-3.12167 -4.9573,0.79271 -5.0354,2.0995 -0.1728,2.89295 2.0625,0.33654 4.425,0.75473 5.25,0.92931 3.8986,0.82497 7.1466,0.48821 6.7568,-0.70059 z"
       id="path62871" />
    <path
       style="fill:#b15316"
       d="m 1156.3463,454.34904 c -1.0632,-1.28107 -1.0789,-2.56373 -0.083,-6.78331 0.6753,-2.86194 1.61,-7.45352 2.0771,-10.20352 2.8178,-16.59293 41.1291,-95.49712 61.1782,-126 6.0496,-9.20385 17.0699,-27.13852 28.8802,-47 2.6163,-4.4 5.0839,-9.0951 5.4834,-10.43354 0.6995,-2.34344 0.5724,-2.31156 -3.433,0.8608 -5.5594,4.40308 -15.2641,18.19933 -30.5197,43.38655 -6.9337,11.44759 -13.4346,22.02259 -14.4466,23.5 -3.2308,4.71652 -11.8635,20.48526 -14.5302,26.54135 -1.4181,3.22034 -4.108,8.39534 -5.9776,11.5 -1.8696,3.10466 -6.9158,12.61984 -11.2137,21.14484 -4.298,8.525 -9.1278,17.75 -10.7329,20.5 -3.549,6.0805 -11.6594,25.40553 -16.3677,39 -1.9048,5.5 -4.3274,10.80503 -5.3834,11.78896 -1.8627,1.73553 -1.9201,1.70389 -1.9201,-1.05961 0,-1.56671 0.9407,-6.56854 2.0905,-11.11518 1.1497,-4.54663 1.8286,-8.5284 1.5087,-8.84838 -0.32,-0.31997 -0.2033,-1.07318 0.2594,-1.67378 0.4627,-0.60061 2.7487,-6.63455 5.0801,-13.40876 l 4.2388,-12.31675 -2.6617,-4.02201 c -3.2764,-4.951 -2.7362,-6.84449 1.9528,-6.84449 4.3112,0 4.4061,-0.81582 0.5329,-4.58334 -4.5734,-4.44867 -9.1311,-11.91547 -8.4139,-13.7844 1.0204,-2.65904 2.855,-1.90671 7.3233,3.00303 6.4265,7.0615 7.1,4.87564 2.7149,-8.81202 -4.2392,-13.23245 -4.518,-16.40533 -1.5251,-17.35523 2.6599,-0.84423 3.306,-0.0775 4.8864,5.79833 1.4439,5.36842 6.379,13.73362 8.1022,13.73362 1.5538,0 0.3281,-6.15696 -2.0464,-10.2788 -1.0206,-1.77166 -3.9227,-8.00952 -6.4493,-13.86192 -6.0339,-13.97708 -6.1084,-17.80455 -0.5669,-29.12984 5.7559,-11.76349 7.1691,-13.41688 10.2628,-12.0073 1.8778,0.85559 2.7725,2.4125 3.7082,6.45277 1.9506,8.42238 10.0023,23.49061 10.0023,18.71853 0,-0.84433 -1.8007,-6.3135 -4.0015,-12.15373 -3.9423,-10.46159 -5.4558,-18.92647 -3.4985,-19.56693 1.1604,-0.37971 1.1185,-0.44941 6.7565,11.25336 2.3652,4.90937 4.8972,9.12511 5.6268,9.36831 1.7316,0.5772 1.0263,-1.74223 -4.0412,-13.28949 -4.134,-9.42004 -5.806,-16.79121 -4.0542,-17.87387 0.5779,-0.35714 1.6812,1.29753 2.5339,3.79997 1.7734,5.2046 8.8788,17.66062 11.1492,19.54486 3.4935,2.89933 3.0526,-0.23982 -3.4375,-24.47465 -3.7224,-13.90014 -3.6252,-19.26549 0.6049,-33.39362 4.102,-13.70037 8.1417,-21.66084 10.0327,-19.76989 0.2959,0.29592 1.32,4.50348 2.2757,9.35013 0.9558,4.84666 2.6841,10.61211 3.8406,12.81211 2.8054,5.3364 6.8576,10.17417 7.767,9.27265 0.7244,-0.71816 -0.1592,-4.12605 -5.3857,-20.77265 -2.0965,-6.67748 -2.657,-10.42973 -2.6143,-17.5 0.053,-8.72972 1.1552,-12.74573 5.3525,-19.5 0.5127,-0.825 2.9747,-5.1 5.4711,-9.5 4.8098,-8.47747 8.2233,-11.76312 9.7144,-9.35048 0.4534,0.73363 0.5123,2.4626 0.1308,3.84217 -1.3724,4.96363 -0.1109,20.00831 1.6778,20.00831 0.4457,0 1.0602,-3.30458 1.3657,-7.34351 0.6514,-8.6125 3.9405,-20.49579 7.2398,-26.15649 1.2822,-2.2 8.5796,-10.12917 16.2163,-17.62037 12.5567,-12.31742 17.4328,-16.05734 18.9532,-14.53695 0.2889,0.28891 -0.42,3.25678 -1.5754,6.59528 -1.2064,3.48601 -2.1006,8.56929 -2.1006,11.94102 0,10.75202 2.2123,16.22587 3.3832,8.37102 4.6665,-31.30389 6.6402,-39.86456 11.7006,-50.75 3.1025,-6.67354 4.926,-9.07775 10.9978,-14.5 10.3666,-9.25745 13.128,-11.1573 15.4184,-10.60763 1.1779,0.2827 3.1732,-0.46823 4.8543,-1.82696 2.4255,-1.96032 2.6885,-2.61699 1.75,-4.37044 -0.6073,-1.13492 -1.1113,-4.90557 -1.1199,-8.37923 -0.01,-3.47366 -0.6676,-9.01574 -1.4644,-12.31574 -0.7968,-3.3 -1.4648,-7.06662 -1.4844,-8.37027 -0.06,-3.95645 -5.1426,-10.8078 -9.5032,-12.80894 -5.7102,-2.62049 -14.6968,-2.38275 -21.2628,0.56249 -9.5671,4.29139 -19.2696,19.01377 -19.2696,29.23921 0,3.81011 -1.5887,4.43484 -3.5738,1.4053 -1.939,-2.95934 -1.163,-7.35163 2.9364,-16.62113 3.261,-7.37365 6.2251,-10.70112 14.3344,-16.09145 13.8743,-9.22233 25.0388,-10.17441 38.3841,-3.27328 1.9515,1.00918 3.377,2.97951 4.5548,6.29573 1.1291,3.17889 2.6788,5.38033 4.5392,6.44808 1.5537,0.89168 2.8307,2.20468 2.8378,2.91775 0.01,0.71308 1.0965,3.54652 2.4211,6.29652 l 2.4083,5 0.1954,-3.5 c 0.8068,-14.45018 0.3861,-22.70392 -1.2877,-25.2586 -0.9625,-1.46908 -1.75,-4.19484 -1.75,-6.05729 0,-4.30547 -4.0867,-12.04203 -8.1918,-15.50811 -1.7432,-1.4718 -5.8793,-4.47601 -9.1913,-6.67601 -6.277,-4.16948 -7.1738,-5.77041 -3.5479,-6.33379 6.0909,-0.94638 24.9894,13.27036 26.444,19.89292 0.3538,1.61092 1.1931,3.26914 1.865,3.68491 3.4387,2.1278 8.9686,16.30664 10.8251,27.75596 0.5464,3.36984 3.2079,2.33151 3.8448,-1.5 0.7718,-4.64326 2.4875,-7.64947 5.4873,-9.61501 1.3556,-0.88826 2.4648,-2.15981 2.4648,-2.82569 0,-0.66587 1.1579,-2.29851 2.5732,-3.62808 1.4153,-1.32958 4.2023,-5.51756 6.1934,-9.30663 1.9911,-3.78906 4.8043,-7.61717 6.2516,-8.5069 2.9692,-1.82538 8.9818,-8.39414 8.9818,-9.81261 0,-1.33714 5.3811,-6.30507 6.8295,-6.30507 0.671,0 1.6556,-1.14574 2.188,-2.54609 0.5324,-1.40033 3.7838,-5.07736 7.2253,-8.17115 3.4414,-3.09379 11.4906,-10.83556 17.8871,-17.20393 24.0398,-23.93438 29.5009,-28.81739 38.0422,-34.01532 5.2523,-3.19643 11.509,-8.19285 15.8663,-12.67053 3.9568,-4.06615 7.7086,-7.39299 8.3373,-7.39299 0.6288,0 1.702,-0.89477 2.385,-1.98838 0.7451,-1.1932 2.8392,-2.24381 5.2362,-2.62711 3.6216,-0.57913 4.0934,-1.00611 5.0543,-4.57483 2.8471,-10.57304 7.2161,-19.37172 11.8229,-23.80968 13.2218,-12.73732 26.5843,-22.98023 40.1259,-30.75813 3.025,-1.73748 7.9621,-5.19468 10.9712,-7.68268 7.3886,-6.10889 22.0288,-11.88175 22.0288,-8.68631 0,0.4801 -0.87,2.8426 -1.9333,5.25 -1.0634,2.40743 -3.1241,11.57712 -4.5795,20.37712 -4.5225,27.34559 -8.0185,34.99211 -22.8111,49.89266 -9.6916,9.76226 -16.0075,14.53636 -17.005,12.85367 -1.3153,-2.21872 -2.2976,-13.02008 -2.5201,-27.71062 -0.1334,-8.80273 -0.3237,-9.79155 -1.6328,-8.48249 -1.9927,1.99272 -3.546,10.41976 -4.0452,21.94678 -0.7877,18.18736 -3.2919,27.46447 -9.1075,33.73967 -1.301,1.40381 -2.3655,2.98042 -2.3655,3.50358 0,0.52317 -3.0375,4.11404 -6.75,7.97972 -7.0719,7.36372 -18.7597,17.02173 -33.5,27.68211 -4.8125,3.48048 -8.75,6.65826 -8.75,7.06172 0,0.40348 -3.0557,3.95101 -6.7905,7.8834 -9.9709,10.49848 -13.0507,9.46046 -9.3671,-3.15704 4.2298,-14.48808 10.2834,-39.79531 9.92,-41.47058 -0.9374,-4.32118 -7.3264,12.50156 -12.828,33.77743 -6.5762,25.4314 -11.7707,36.45765 -22.7624,48.31758 -4.4946,4.84965 -8.172,9.28135 -8.172,9.8482 0,2.15823 6.6583,-3.23991 10.1927,-8.26357 2.031,-2.88679 8.1865,-9.33324 13.679,-14.32546 5.4925,-4.99221 12.546,-12.11426 15.6744,-15.82675 3.1284,-3.7125 6.2822,-6.75 7.0084,-6.75 0.7262,0 3.486,-2.56291 6.1329,-5.69536 8.6047,-10.18312 12.505,-13.46966 20.6723,-17.41924 4.419,-2.13697 8.7353,-3.88541 9.5917,-3.88541 0.8565,0 4.6926,-1.13725 8.5248,-2.52722 6.3418,-2.30027 8.2076,-2.50812 20.7771,-2.31454 9.9737,0.1536 14.1127,0.57782 14.9006,1.52722 1.4527,1.75039 2.8102,1.657 5.023,-0.34553 1.423,-1.28783 4.3557,-1.73731 13.0787,-2.00453 6.3706,-0.19514 13.4116,-1.01896 16.2444,-1.90062 6.7417,-2.09824 13.7614,-5.71914 14.3166,-7.38471 0.3728,-1.1182 -1.5747,-1.24925 -10.9315,-0.73563 -25.5664,1.4034 -42.5465,2.79591 -45.2843,3.71369 -1.5946,0.53453 -7.5571,0.97187 -13.25,0.97187 -11.4341,0 -12.3173,-0.60229 -8.0899,-5.51697 2.9779,-3.46195 11.2306,-6.16251 21.1874,-6.93323 4.4284,-0.34279 11.8767,-1.06333 16.5517,-1.6012 4.675,-0.53788 17.0269,-1.90381 27.4486,-3.03541 18.6151,-2.02123 26.2459,-3.90184 22.2172,-5.47539 -1.0089,-0.39404 -6.4089,-0.4515 -12,-0.1277 -26.3133,1.52388 -44.8345,2.67437 -51.9158,3.22486 -7.3374,0.57041 -7.75,0.49357 -7.75,-1.44318 0,-4.73408 11.9592,-8.93119 28.9551,-10.16189 14.0023,-1.01394 26.352,-2.32478 39.0449,-4.14439 8.0267,-1.15068 8.2773,-1.25895 4.5,-1.94439 -10.7143,-1.94425 -27.6542,-0.86236 -43,2.74626 -11.1231,2.61562 -12.9749,2.75026 -14.3892,1.04617 -1.0928,-1.31677 0.9797,-3.91964 14.3048,-17.96556 16.3044,-17.18636 21.7657,-22.1537 27.5844,-25.08912 7.2526,-3.65881 35.2848,-13.05143 43.5,-14.57534 3.3,-0.61214 9.375,-1.96156 13.5,-2.9987 4.125,-1.03714 9.3,-2.13916 11.5,-2.44894 8.7673,-1.2345 11.2035,-1.80516 16.1535,-3.78387 6.4033,-2.55964 8.8217,-1.89788 8.004,2.19023 -0.7237,3.6185 -2.7543,8.15305 -6.2864,14.03776 -1.4855,2.475 -4.2091,7.425 -6.0524,11 -1.8433,3.575 -5.1759,8.75 -7.4058,11.5 -7.6636,9.45085 -11.6305,15.03482 -12.3973,17.45082 -0.4225,1.33123 -3.833,5.65842 -7.5788,9.616 -3.7459,3.95757 -7.536,8.93654 -8.4226,11.06438 -2.0255,4.86157 -7.4865,10.62019 -14.2155,14.9901 -3.6723,2.38487 -6.5708,5.49502 -9.8605,10.58029 -5.3013,8.19497 -8.658,11.5982 -16.1958,16.42005 -2.9124,1.86306 -5.6859,4.39785 -6.1633,5.63287 -1.8517,4.79068 -12.7005,15.93433 -20.8588,21.42561 -5.1013,3.4337 -8.666,4.31829 -17.5932,4.36582 -1.5802,0.008 -3.6669,0.4402 -4.6373,0.95954 -1.0615,0.5681 -4.4981,0.61063 -8.6271,0.10674 -3.7745,-0.46062 -7.6645,-0.54656 -8.6446,-0.19099 -0.98,0.35557 -5.48,0.27046 -10,-0.18912 -17.021,-1.73069 -37.0562,0.11212 -46.4642,4.27372 -4.681,2.07066 -4.8929,3.98194 -0.4449,4.01293 3.5983,0.0251 21.3301,4.72037 22.592,5.98224 0.5494,0.54944 2.8668,0.99901 5.1498,0.99901 2.2829,0 5.4554,0.43583 7.05,0.96852 1.5945,0.53269 8.4727,1.11489 15.2848,1.29377 11.2177,0.29456 12.8207,0.11189 17,-1.93726 6.115,-2.99822 8.1144,-2.97521 8.1144,0.0934 0,1.6852 -1.0611,3.07422 -3.4998,4.58141 -1.9248,1.18964 -5.1873,4.22499 -7.25,6.74522 -2.0626,2.52024 -5.0039,5.34603 -6.5361,6.27952 -1.5322,0.93349 -3.7822,3.53368 -5,5.77818 -3.1762,5.85419 -22.2279,30.6734 -28.7141,37.40682 -3.025,3.14027 -6.2875,6.62777 -7.25,7.75 -0.9625,1.12223 -2.7335,2.04041 -3.9356,2.04041 -1.202,0 -3.2625,1.0125 -4.5787,2.25 -2.0351,1.91327 -3.4665,2.24318 -9.5645,2.2044 -10.8048,-0.0687 -18.1411,-0.99494 -34.6712,-4.37738 -9.0228,-1.84627 -30.3208,-2.38894 -40.8909,-1.0419 -9.1925,1.17148 -10.3638,1.13877 -11.8331,-0.33053 -2.3525,-2.35248 -0.8697,-5.32515 8.2339,-16.50741 3.0976,-3.8048 8.5292,-11.54193 9.9669,-14.19718 0.4466,-0.825 -1.1824,0.4125 -3.6202,2.75 -2.4378,2.3375 -5.1128,4.25 -5.9445,4.25 -1.9581,0 -3.9121,1.97663 -3.9121,3.95736 0,3.06608 -16.2567,20.47332 -18.4171,19.7206 -1.7561,-0.61183 -1.0097,-23.23057 0.8544,-25.89186 0.872,-1.24505 1.2619,-3.13648 0.9239,-4.48292 -0.3215,-1.28103 -0.031,-2.99572 0.6448,-3.81042 0.6761,-0.81471 1.0031,-2.66477 0.7266,-4.11129 -0.2765,-1.4465 -0.079,-4.16499 0.4391,-6.04107 0.7261,-2.62982 0.5412,-4.31912 -0.8074,-7.37574 -2.0306,-4.60255 -4.3658,-5.25295 -4.3611,-1.21467 0,1.5125 -0.6612,7.25 -1.4733,12.75 -0.8122,5.5 -2.1621,17.425 -2.9998,26.5 -1.9841,21.49312 -4.8984,33.18083 -10.8303,43.43417 -2.5246,4.3638 -4.3658,8.29728 -4.0915,8.74107 0.2743,0.44379 2.1621,0.092 4.1952,-0.78168 7.5355,-3.23838 21.2556,-5.41729 34.6607,-5.50451 12.339,-0.0803 32.8794,1.58723 34.8948,2.83285 1.5868,0.98066 24.641,1.45668 24.641,0.50878 0,-2.1304 -13.4337,-6.75875 -23.8664,-8.22275 -4.0514,-0.56854 -7.8349,-1.32334 -8.4077,-1.67733 -1.1987,-0.74081 -27.2476,-0.59143 -33.2259,0.19054 -2.2,0.28776 -6.6462,0.94766 -9.8803,1.46646 -6.1729,0.99019 -9.6197,0.12568 -9.6197,-2.41275 0,-1.52198 8.1443,-12.92794 10.0894,-14.13011 0.6911,-0.42709 2.8661,-1.1093 4.8335,-1.51605 1.9674,-0.40674 6.9521,-1.71831 11.0771,-2.91459 5.2036,-1.50908 8.7248,-1.97595 11.5,-1.52476 2.2,0.35767 7.075,0.8719 10.8334,1.14274 9.3533,0.67403 21.827,3.98102 23.6666,6.27442 0.8894,1.10882 3.4629,2.14843 6.3221,2.55388 2.6521,0.37609 5.6078,1.46957 6.5682,2.42994 0.9604,0.96038 5.3787,3.4508 9.8185,5.53426 4.8033,2.25406 8.9387,4.95995 10.2117,6.68178 1.5867,2.14618 2.9712,2.8951 5.3594,2.89924 1.7711,0.003 4.9106,0.47505 6.9768,1.04885 4.7618,1.32242 19.7571,-1.10436 27.7433,-4.48988 3.025,-1.28235 7.75,-2.86194 10.5,-3.51018 2.75,-0.64824 5.9,-1.99604 7,-2.9951 1.1,-0.99906 5.825,-4.29058 10.5,-7.31449 4.675,-3.0239 11.6862,-8.59103 15.5804,-12.3714 7.6248,-7.40184 17.4196,-21.04337 17.4196,-24.26083 0,-2.52356 -2.9681,-3.50971 -10,-3.3225 -10.5756,0.28157 -15.3109,1.12736 -20.4853,3.65893 -2.8677,1.40305 -5.671,2.55102 -6.2295,2.55102 -3.5465,0 -12.2852,10.77654 -12.2852,15.15003 0,1.56748 -0.4641,2.84997 -1.0314,2.84997 -1.5948,0 -2.369,-2.99962 -1.1014,-4.26723 0.623,-0.62302 1.1328,-1.92021 1.1328,-2.88265 0,-2.06367 5.7241,-10.85012 7.0685,-10.85012 0.5098,0 2.5826,-1.56172 4.6062,-3.47049 5.8005,-5.4712 17.3952,-8.71767 32.0214,-8.96589 12.1643,-0.20643 13.7405,-1.42331 13.0512,-10.07628 -0.7085,-8.8948 -5.3339,-17.54626 -10.6667,-19.95098 -4.4888,-2.02421 -5.4388,-4.53636 -1.7155,-4.53636 4.0291,0 13.6329,8.21498 16.8077,14.37713 1.5926,3.09107 1.8761,5.01712 1.3987,9.5 -0.3293,3.09258 -0.6888,7.60644 -0.7987,10.03081 l -0.1999,4.40793 6.9636,4.21 c 8.0126,4.84429 11.5239,8.14058 16.7419,15.71693 6.3913,9.27989 7.3941,23.58313 2.2595,32.22865 -6.6988,11.27936 -23.2081,23.66654 -39.0379,29.2907 -7.5716,2.69012 -23.3593,5.23785 -32.4579,5.23785 -5.893,0 -6.8868,0.24124 -6.3846,1.54998 1.7995,4.68927 25.2023,15.35478 40.3425,18.38555 24.4602,4.89644 32.2866,4.42243 45.5989,-2.76174 4.8974,-2.64298 6.9405,-4.56228 10.3714,-9.74308 4.9087,-7.41221 6.9257,-12.44906 6.9802,-17.43071 0.052,-4.76299 -1.7705,-11.07641 -3.8973,-13.5 -2.7522,-3.13609 -3.287,-5.5 -1.2443,-5.5 2.9555,0 6.114,2.91438 8.7095,8.03637 2.0242,3.99448 2.4816,6.36447 2.4816,12.85772 0,7.11566 -0.3628,8.65654 -3.4178,14.51769 -3.9567,7.59096 -13.1326,18.58822 -15.5097,18.58822 -0.8951,0 -2.6256,0.69909 -3.8455,1.55354 -3.6004,2.52182 -13.1734,4.56088 -21.3487,4.54726 -8.423,-0.014 -23.655,-1.69442 -27.1415,-2.99428 -1.2302,-0.45866 -4.43,-1.1562 -7.1106,-1.55008 -4.8535,-0.71314 -19.2677,-5.95143 -21.0762,-7.65929 -0.5225,-0.49343 -1.8725,-0.92334 -3,-0.95535 -1.1275,-0.032 -4.525,-1.33788 -7.55,-2.90191 -3.025,-1.56403 -8.2609,-4.18621 -11.6353,-5.82706 -3.3744,-1.64085 -7.1148,-3.96298 -8.3122,-5.1603 -4.053,-4.05303 -10.9291,-6.19981 -23.0525,-7.19724 -16.6056,-1.36618 -31.4878,0.21637 -41.5,4.41304 -7.2671,3.04603 -17.2265,4.32955 -45,5.79937 -27.8682,1.47483 -44.0132,3.83915 -53.6711,7.85976 -9.2571,3.85371 -11.7224,5.53796 -10.2688,7.01533 0.7289,0.74084 2.6204,0.78156 6.0542,0.13036 2.7467,-0.5209 15.3196,-1.43858 27.9398,-2.03927 28.2432,-1.34429 35.6709,-2.37182 44.7988,-6.19733 9.7353,-4.08008 10.6511,-4.31308 10.6249,-2.70319 -0.036,2.20659 -3.0951,5.32548 -8.9778,9.1531 -6.793,4.41987 -11.4553,9.16791 -10.5078,10.70099 0.4807,0.77778 2.7008,0.95183 6.8593,0.53774 3.3817,-0.33674 9.9611,-0.22294 14.621,0.25289 5.811,0.59336 11.4656,0.4684 18,-0.3978 11.6826,-1.54862 17.3382,-3.23601 24.6194,-7.34526 3.0856,-1.74142 5.8438,-2.93265 6.1293,-2.64719 1.5252,1.52521 -1.2401,5.63166 -5.9438,8.82639 -14.372,9.76147 -21.9046,11.66789 -49.2774,12.4716 -19.055,0.55948 -24.5,1.24607 -24.5,3.08934 0,0.94915 10.1928,3.21739 14.5602,3.24014 1.6169,0.008 3.6148,0.46698 4.4398,1.01901 1.3035,0.87223 1.2564,1.18989 -0.3601,2.42543 -2.1532,1.64576 -10.2241,3.54026 -15.0822,3.54026 -3.8644,0 -18.0222,2.66255 -21.245,3.99538 -1.203,0.49752 -3.8208,3.45827 -5.8174,6.57945 -1.9966,3.12117 -5.7373,8.25127 -8.3127,11.40024 -2.5755,3.14895 -6.7076,8.58688 -9.1826,12.08429 -2.475,3.49741 -7.7558,10.29466 -11.735,15.105 -6.3199,7.63977 -8.154,9.18064 -14.5,12.18162 -3.9958,1.88955 -9.74,4.00296 -12.765,4.69647 -6.9599,1.59562 -14,4.57358 -14,5.92201 0,1.96423 8.0158,1.06124 13,-1.46446 2.7134,-1.375 6.5235,-2.5 8.4668,-2.5 3.2759,0 3.5332,0.2232 3.5332,3.06574 0,1.68615 -0.5175,4.04866 -1.15,5.25 -2.3751,4.51108 -16.3449,25.21466 -20.3114,30.10203 -2.2686,2.79522 -5.6537,7.33223 -7.5224,10.08223 -9.2803,13.65674 -21.2216,19.81913 -45.5162,23.48905 -8.2831,1.25123 -12.5,2.77567 -12.5,4.51877 0,2.30706 10.5745,2.29393 22.2701,-0.0276 5.2954,-1.05116 4.1571,1.42103 -2.0576,4.46876 -6.7775,3.32367 -14.5501,4.9725 -23.7125,5.03018 -17.1349,0.10788 -17.5458,7.46718 -0.5,8.95394 5.6443,0.49231 6.5,0.83023 6.5,2.56694 0,2.49222 -7.1311,4.64685 -12.7527,3.85315 -6.1739,-0.8717 -8.8976,-1.19028 -16.3817,-1.91612 -7.1125,-0.6898 -7.1385,-0.68329 -8.5,2.12785 -0.8942,1.84653 -2.517,3.11609 -4.7014,3.67827 -2.886,0.74275 -3.7394,1.76165 -6.3298,7.55767 -1.6468,3.68456 -4.7022,10.29919 -6.79,14.69919 -2.0877,4.4 -4.2926,10.925 -4.8997,14.5 -0.7753,4.5653 -1.7053,6.90836 -3.1243,7.87197 -1.1112,0.75459 -2.0204,1.97456 -2.0204,2.71105 0,0.73649 -0.8608,2.1441 -1.9129,3.12802 -1.0521,0.98393 -2.0646,3.10426 -2.25,4.71184 -0.3954,3.4282 -2.0011,4.28942 -3.848,2.06395 z m 380.9375,-298.48303 c 1.9654,-0.54595 4.7264,-0.99516 6.1356,-0.99822 1.4092,-0.003 4.4249,-0.90558 6.7017,-2.00558 2.2767,-1.10001 4.8702,-2 5.7633,-2 0.8931,0 4.7059,-1.80001 8.4728,-4 3.7669,-2.2 7.2376,-4 7.7127,-4 1.3282,0 7.7761,-8.07757 10.1281,-12.68804 5.449,-10.68093 4.0063,-24.1268 -3.553,-33.1135 -2.1737,-2.58416 -5.5581,-5.57812 -7.5208,-6.65323 -4.4458,-2.43525 -5.6365,-1.6348 -9.3823,6.30712 -4.8072,10.19219 -13.2264,21.83839 -20.6559,28.5729 -3.9758,3.60393 -7.6788,6.57187 -8.2288,6.59542 -0.55,0.0236 -2.5533,1.60353 -4.4519,3.51107 -1.8985,1.90754 -4.1195,3.46826 -4.9355,3.46826 -0.816,0 -2.4127,0.81673 -3.5482,1.81495 -1.1354,0.99823 -4.0894,2.67913 -6.5644,3.73533 -2.475,1.0562 -5.9965,2.91994 -7.8256,4.14165 -1.8291,1.2217 -4.1916,2.49613 -5.25,2.83207 -2.4024,0.76247 -2.5007,3.01882 -0.1744,4.00047 4.8956,2.0658 30.2872,2.39317 37.1766,0.47933 z m -32.4513,-98.3621 c 1.6216,-1.18576 0.5345,-1.42441 -8.5589,-1.87882 -5.729,-0.2863 -10.597,-0.35699 -10.8177,-0.15707 -0.2207,0.19991 1.1293,1.02777 3,1.8397 4.3195,1.87472 13.9237,1.98978 16.3766,0.19619 z m -26.5774,-103.81758 c 3.1802,-4.32438 5.0538,-8.91141 6.9799,-17.08848 1.8235,-7.74188 1.613,-8.55143 -2.1278,-8.18322 -1.7875,0.17594 -3.3729,0.34862 -3.5231,0.38373 -0.1501,0.0351 0.4383,1.14942 1.3077,2.47623 1.5064,2.29921 1.3669,2.83243 -2.9749,11.3643 -5.2644,10.34518 -6.6331,15.22331 -4.2712,15.22331 0.8462,0 2.9204,-1.87914 4.6094,-4.17587 z m -276,161.91268 c -1.8689,-1.24475 -4.2117,-3.92225 -5.2064,-5.94999 -2.5841,-5.26811 -4.182,-16.41497 -2.7907,-19.4685 0.6046,-1.32683 1.0992,-4.20576 1.0992,-6.39763 0,-7.60888 9.7542,-28.56646 12.1708,-26.14983 0.6215,0.62144 -0.4364,3.59935 -2.9654,8.34762 -10.3994,19.52519 -9.2145,42.85595 2.3897,47.05209 2.1553,0.77935 3.4049,1.89151 3.4049,3.03033 0,2.54643 -3.9193,2.32193 -8.1021,-0.46409 z m 56.7037,-22.77879 c -1.0034,-2.27428 -1.474,-4.78897 -1.0761,-5.75 0.5744,-1.38703 0.8979,-1.14423 1.7214,1.29199 0.5577,1.64999 1.6304,3.71042 2.3836,4.57873 1.7325,1.99721 1.7629,3.92127 0.062,3.92127 -0.7192,0 -2.1101,-1.8189 -3.0909,-4.04199 z m -49.6016,-39.58959 c 0,-1.99788 19.0702,-20.93856 22.0265,-21.87682 3.8855,-1.23323 3.3733,0.47557 -1.4283,4.76542 -2.6121,2.33364 -7.9256,7.50547 -11.8078,11.49298 -7.2636,7.46059 -8.7904,8.43646 -8.7904,5.61842 z m 28,-26.23242 c 0,-1.72718 20.6372,-14.32293 27.2294,-16.61927 5.06,-1.76261 5.7706,-1.82986 5.7706,-0.54603 0,1.05446 -9.8836,6.0293 -11.9785,6.0293 -1.6733,0 -7.2891,3.44972 -13.3613,8.20771 -4.6252,3.6241 -7.6602,4.78432 -7.6602,2.92829 z m 55,-17.85686 c -4.4601,-0.80013 -4.643,-2.27914 -0.2818,-2.27914 4.6134,0 7.2818,0.7721 7.2818,2.10699 0,0.91151 -2.5315,0.97377 -7,0.17214 z m 275.6882,-114.02915 c -0.6086,-1.06181 1.7538,-18.77043 3.3018,-24.75 4.8378,-18.68797 8.2882,-26.49886 14.2138,-32.17627 4.5137,-4.32457 13.9983,-11.32372 15.345,-11.32372 0.6064,0 2.1594,-1.125 3.4512,-2.5 1.2917,-1.375 2.8012,-2.5 3.3544,-2.5 0.5532,0 5.9873,-2.4311 12.0757,-5.40243 26.898,-13.12701 31.5961,-14.7424 31.5485,-10.84757 -0.012,0.9625 -2.0144,4.82642 -4.4503,8.58649 -2.4359,3.76008 -5.1849,8.93508 -6.1089,11.5 -6.4929,18.02438 -10.4422,22.73745 -32.3977,38.66351 -6.052,4.39001 -14.0566,11.20931 -24.7766,21.10769 -10.1118,9.33684 -14.2588,11.9072 -15.5569,9.6423 z m 40.5618,-17.28116 c -1.2375,-0.49742 -2.25,-1.57238 -2.25,-2.38881 0,-2.45335 11.16,-14.24882 19.5968,-20.71259 4.3468,-3.33026 11.8834,-9.69035 16.7482,-14.13351 8.8389,-8.073 8.8433,-8.0794 6.3727,-9.37382 -5.8404,-3.06011 -3.1306,-14.77417 5.6664,-24.49522 3.0888,-3.41314 5.6159,-6.5407 5.6159,-6.95013 0,-1.47261 9.5904,-7.58609 13.7872,-8.78875 3.3139,-0.94967 5.0249,-0.9618 7.5369,-0.0534 2.9873,1.08021 3.6911,0.89363 8.7129,-2.30968 3.0046,-1.91664 6.4161,-3.78387 7.5811,-4.14938 1.165,-0.36551 2.9222,-1.55308 3.905,-2.63904 2.2667,-2.50466 3.3086,-2.48117 6.096,0.13742 l 2.248,2.1119 2.6119,-2.6119 c 1.4366,-1.43654 3.3913,-2.61189 4.3439,-2.61189 2.7071,0 6.1771,-2.90154 6.1771,-5.16512 0,-1.72083 0.4279,-1.94429 2.6537,-1.38565 1.4596,0.36632 3.9259,0.13913 5.4806,-0.50488 1.5548,-0.644 4.0238,-0.8705 5.4868,-0.50332 2.6321,0.66062 2.6538,0.73932 2.0838,7.53826 -0.6336,7.55825 -2.1345,11.16248 -6.9158,16.60816 -2.1118,2.40512 -3.4157,5.16994 -3.8973,8.2635 -1.1378,7.30893 -3.9594,14.14722 -6.5333,15.83369 -1.2972,0.84996 -2.3602,2.50612 -2.3622,3.68037 -0.01,3.24116 -3.0158,7.46881 -10.4201,14.63499 -3.6938,3.57499 -8.4882,8.84819 -10.6542,11.7182 -2.1659,2.87002 -6.5597,6.9985 -9.7639,9.17439 -10.0357,6.81517 -16.7082,8.88702 -39.1581,12.15891 -21.0915,3.07391 -23.9511,3.63191 -32.5,6.34187 -5.6908,1.80395 -5.2672,1.7744 -8.25,0.57546 z m 92.25,-71.66944 c 7.1714,-0.79225 9.5155,-2.94088 5.25,-4.81227 -1.2375,-0.54292 -2.3946,-2.00608 -2.5714,-3.25147 -0.3175,-2.23657 -0.3587,-2.2427 -3.3559,-0.5 -1.6689,0.97039 -4.4071,3.74774 -6.085,6.17188 -3.0183,4.36093 -3.0251,4.39981 -0.6441,3.67588 1.3235,-0.40241 4.6564,-0.98022 7.4064,-1.28402 z m 12.575,-3.5744 c -0.041,-0.39874 -0.3,-0.72499 -0.575,-0.72499 -3.9809,0 -4.022,0.0164 -2.5,0.99905 1.6149,1.0426 3.1966,0.90163 3.075,-0.27406 z"
       id="path62869" />
    <g
       transform="translate(1165.7143,-374.28571)"
       id="g62857" />
  </g>
</svg>
