<svg viewBox="0 0 32 32" xmlns="http://www.w3.org/2000/svg" fill="none">
  <path d="M20.6472 14.7518L17.7605 15.8436L12.4726 23.5025L8.52618 24.3865L9.93872 20.6376L17.4563 15.1603L18.5477 12.3734M20.6472 14.7518L24.0976 11.2008M20.6472 14.7518L18.5477 12.3734M24.0976 11.2008L25.1255 10.1431C25.7078 9.5438 25.6941 8.58295 25.0947 8.00061L24.4132 7.33832C23.8138 6.75598 22.853 6.7697 22.2706 7.36907L21.1748 8.49717M24.0976 11.2008L21.1748 8.49717M18.5477 12.3734L21.1748 8.49717M8.7998 18.1538V8.94444C8.7998 7.31883 10.1186 6 11.7442 6H19.9435C20.7222 6 21.469 6.30811 22.0209 6.85653L24.8764 9.69389C25.4294 10.2434 25.7408 10.9912 25.7427 11.7709L25.7544 17.6111" stroke="currentColor" stroke-width="2" stroke-linecap="round" stroke-linejoin="round"/>
</svg>
