<?xml version="1.0"?>
<svg xmlns="http://www.w3.org/2000/svg" width="14" height="14">
  <path fill="gray" d="M14 8.3V5.73l-1.58-.264c-.117-.44-.292-.848-.496-1.2l.93-1.285-1.81-1.84-1.31.908c-.371-.205-.781-.38-1.187-.497L8.288 0H5.72l-.263 1.578c-.437.117-.816.293-1.196.497L2.979 1.17 1.141 2.98l.934 1.287c-.2.38-.376.79-.493 1.228L.004 5.73V8.3l1.575.264c.117.438.292.818.496 1.198l-.93 1.315 1.809 1.813 1.312-.938c.38.205.787.38 1.224.497l.26 1.55h2.566l.263-1.58c.408-.117.817-.293 1.196-.497l1.315.935 1.81-1.812-.935-1.315c.203-.38.38-.76.495-1.2L14 8.305zM7 9.704c-1.488 0-2.683-1.2-2.683-2.69S5.542 4.327 7 4.327s2.683 1.198 2.683 2.69c0 1.49-1.195 2.688-2.683 2.688z"/>
</svg>